<?xml version="1.0" standalone="no"?>
<!DOCTYPE svg PUBLIC "-//W3C//DTD SVG 1.1//EN" "http://www.w3.org/Graphics/SVG/1.1/DTD/svg11.dtd" >
<svg>
<metadata>
Created by FontForge 20090622 at Sat Aug  6 20:11:40 2016
 By deploy user
Copyright &#194;&#169; 2015 ParaType, Inc., ParaType Ltd. All rights reserved.
</metadata>
<defs>
<font id="circleroundedextrabold" horiz-adv-x="600" >
  <font-face
    font-family="Circe Rounded Extra Bold"
    font-weight="800"
    font-stretch="normal"
    units-per-em="1000"
    panose-1="2 15 8 2 2 2 3 2 2 3"
    ascent="773"
    descent="-227"
    x-height="450"
    cap-height="700"
    bbox="-518 -320 1433 957"
    underline-thickness="50"
    underline-position="-50"
    unicode-range="U+0020-U+FB02"
  />
<missing-glyph horiz-adv-x="200"
 />
    <glyph glyph-name="uniF350.var.accented" unicode="&#xf350;`" horiz-adv-x="628"
d="M426 75h-234l-19 -44q-15 -31 -48 -31h-55q-20 0 -33 13.5t-13 32.5q0 11 4 19l200 429q13 31 48 31h76q35 0 48 -31l200 -429q4 -8 4 -19q0 -19 -13 -32.5t-33 -13.5h-65q-33 0 -48 31zM310 340l-51 -115h101zM255 681l67 68q13 13 34 13q23 0 36 -17l26 -33
q11 -14 11 -30q0 -25 -22 -41l-74 -50q-14 -10 -32 -10q-27 0 -47 22q-15 18 -15 40q0 23 16 38z" />
    <glyph glyph-name="uniF355.var.accented" unicode="&#xf355;`" horiz-adv-x="508"
d="M460 105v-60q0 -19 -13 -32t-32 -13h-298q-19 0 -32 13t-13 32v435q0 19 13 32t32 13h289q19 0 32 -13t13 -32v-60q0 -19 -13 -32t-32 -13h-174v-37h149q19 0 32 -13t13 -32v-60q0 -19 -13 -32t-32 -13h-149v-38h183q19 0 32 -13t13 -32zM192 681l67 68q13 13 34 13
q23 0 36 -17l26 -33q11 -14 11 -30q0 -25 -22 -41l-74 -50q-14 -10 -32 -10q-27 0 -47 22q-15 18 -15 40q0 23 16 38z" />
    <glyph glyph-name="uniF358.var.accented" unicode="&#xf358;`" horiz-adv-x="671"
d="M554 0h-70q-19 0 -32 13t-13 32v225l-205 -244q-23 -26 -51 -26h-66q-19 0 -32 13t-13 32v435q0 19 13 32t32 13h70q19 0 32 -13t13 -32v-225l205 244q23 26 51 26h66q19 0 32 -13t13 -32v-435q0 -19 -13 -32t-32 -13zM272 681l67 68q13 13 34 13q23 0 36 -17l26 -33
q11 -14 11 -30q0 -25 -22 -41l-74 -50q-14 -10 -32 -10q-27 0 -47 22q-15 18 -15 40q0 23 16 38z" />
    <glyph glyph-name="uniF35E.var.accented" unicode="&#xf35e;`" horiz-adv-x="664"
d="M31 261q0 117 83 194.5t218 77.5q133 0 217 -73t84 -199q0 -121 -85 -197t-216 -76q-134 0 -217.5 73t-83.5 200zM201 261q0 -52 38 -87.5t93 -35.5q67 0 99 34t32 89q0 56 -37 89t-94 33q-59 0 -95 -32.5t-36 -89.5zM282 681l67 68q13 13 34 13q23 0 36 -17l26 -33
q11 -14 11 -30q0 -25 -22 -41l-74 -50q-14 -10 -32 -10q-27 0 -47 22q-15 18 -15 40q0 23 16 38z" />
    <glyph glyph-name="uniF363.var.accented" unicode="&#xf363;`" horiz-adv-x="580"
d="M221 496l100 -164l79 163q15 30 49 30h52q22 0 35.5 -13.5t13.5 -32.5q0 -8 -5 -20l-163 -327q-65 -132 -182 -132q-30 0 -48 7q-30 13 -30 41q0 3 2 13l18 55q11 35 43 35q11 0 17 -1q1 0 3 -0.5t3 -0.5q13 0 23 13l8 12l-187 278q-8 11 -8 26q0 19 13.5 33t33.5 14h79
q35 0 51 -29zM263 681l67 68q13 13 34 13q23 0 36 -17l26 -33q11 -14 11 -30q0 -25 -22 -41l-74 -50q-14 -10 -32 -10q-27 0 -47 22q-15 18 -15 40q0 23 16 38z" />
    <glyph glyph-name="uniF36B.var.accented" unicode="&#xf36b;`" horiz-adv-x="766"
d="M694 480v-435q0 -19 -13 -32t-32 -13h-70q-19 0 -32 13t-13 32v435q0 19 13 32t32 13h70q19 0 32 -13t13 -32zM232 234v-84q12 -2 28 -2q60 0 60 45q0 42 -60 42q-16 0 -28 -1zM72 45v435q0 19 13 32t32 13h70q19 0 32 -13t13 -32v-97q17 2 43 2q106 0 160.5 -50
t54.5 -138t-65.5 -143.5t-183.5 -55.5q-23 0 -65 0.5t-59 0.5q-19 1 -32 14t-13 32zM314 681l67 68q13 13 34 13q23 0 36 -17l26 -33q11 -14 11 -30q0 -25 -22 -41l-74 -50q-14 -10 -32 -10q-27 0 -47 22q-15 18 -15 40q0 23 16 38z" />
    <glyph glyph-name="uniF36D.var.accented" unicode="&#xf36d;`" horiz-adv-x="558"
d="M90 162q10 0 25 -5q47 -19 116 -19q99 0 128 55h-167q-19 0 -32 13t-13 32v60q0 19 13 32t32 13h156q-38 44 -122 44q-66 0 -115 -18q-14 -4 -21 -4q-28 0 -42 30l-17 38q-5 12 -5 21q0 27 26 41q76 40 181 40q129 0 214.5 -76.5t85.5 -197.5q0 -130 -86.5 -200.5
t-236.5 -70.5q-89 0 -156 31q-29 14 -29 40q0 11 4 20l22 54q11 27 39 27zM179 681l67 68q13 13 34 13q23 0 36 -17l26 -33q11 -14 11 -30q0 -25 -22 -41l-74 -50q-14 -10 -32 -10q-27 0 -47 22q-15 18 -15 40q0 23 16 38z" />
    <glyph glyph-name="uniF36E.var.accented" unicode="&#xf36e;`" horiz-adv-x="884"
d="M232 193v-148q0 -19 -13 -32t-32 -13h-70q-19 0 -32 13t-13 32v435q0 19 13 32t32 13h70q19 0 32 -13t13 -32v-137h56q23 87 93 139.5t179 52.5q139 0 216 -71.5t77 -200.5q0 -123 -78 -198t-215 -75q-107 0 -181 53.5t-94 149.5h-53zM448 263q0 -54 31.5 -88.5
t85.5 -34.5q61 0 89.5 34t28.5 89q0 58 -31 90t-87 32q-53 0 -85 -32.5t-32 -89.5zM313 681l67 68q13 13 34 13q23 0 36 -17l26 -33q11 -14 11 -30q0 -25 -22 -41l-74 -50q-14 -10 -32 -10q-27 0 -47 22q-15 18 -15 40q0 23 16 38z" />
    <glyph glyph-name="uniF36F.var.accented" unicode="&#xf36f;`" horiz-adv-x="580"
d="M508 480v-435q0 -19 -13 -32t-32 -13h-70q-19 0 -32 13t-13 32v95h-71l-70 -112q-18 -28 -52 -28h-67q-20 0 -33 13.5t-13 32.5q0 15 8 26l73 107q-75 51 -75 144q0 86 62.5 146t191.5 60q29 0 161 -3q19 -1 32 -14t13 -32zM348 290v85q-10 4 -61 4q-69 0 -69 -45
q0 -20 13.5 -32t32.5 -12h84zM248 681l67 68q13 13 34 13q23 0 36 -17l26 -33q11 -14 11 -30q0 -25 -22 -41l-74 -50q-14 -10 -32 -10q-27 0 -47 22q-15 18 -15 40q0 23 16 38z" />
    <glyph glyph-name="uniF371.var.accented" unicode="&#xf371;`" horiz-adv-x="508"
d="M74 637q0 34 23.5 54.5t58.5 20.5q29 0 51.5 -20.5t22.5 -54.5q0 -36 -22.5 -57.5t-51.5 -21.5q-35 0 -58.5 21t-23.5 58zM295 637q0 34 23.5 54.5t56.5 20.5q31 0 53.5 -20.5t22.5 -54.5q0 -36 -22.5 -57.5t-53.5 -21.5q-33 0 -56.5 21t-23.5 58zM460 105v-60
q0 -19 -13 -32t-32 -13h-298q-19 0 -32 13t-13 32v435q0 19 13 32t32 13h289q19 0 32 -13t13 -32v-60q0 -19 -13 -32t-32 -13h-174v-37h149q19 0 32 -13t13 -32v-60q0 -19 -13 -32t-32 -13h-149v-38h183q19 0 32 -13t13 -32zM213 786l77 78q12 12 29 12q19 0 31 -15l36 -45
q9 -12 9 -26q0 -22 -18 -34l-88 -60q-11 -8 -28 -8q-23 0 -38 17l-13 15q-11 12 -11 31q0 21 14 35z" />
    <glyph glyph-name="afii10017.var.accented" unicode="&#x410;`" horiz-adv-x="721"
d="M494 147h-277l-45 -114q-13 -33 -48 -33h-61q-18 0 -30.5 13t-12.5 30q0 9 3 17l252 607q15 33 49 33h73q34 0 49 -33l252 -607q3 -8 3 -17q0 -17 -12.5 -30t-30.5 -13h-71q-35 0 -48 33zM356 495l-79 -198h157zM298 839l148 74q9 5 20 5q31 0 42 -27l18 -41q4 -10 4 -17
q0 -14 -8.5 -25.5t-22.5 -15.5l-157 -50q-9 -3 -18 -3q-35 0 -49 30q-5 13 -5 23q0 32 28 47z" />
    <glyph glyph-name="afii10022.var.accented" unicode="&#x415;`" horiz-adv-x="575"
d="M515 104v-58q0 -19 -13.5 -32.5t-32.5 -13.5h-333q-19 0 -32.5 13.5t-13.5 32.5v608q0 19 13.5 32.5t32.5 13.5h323q19 0 32.5 -13.5t13.5 -32.5v-58q0 -19 -13.5 -32.5t-32.5 -13.5h-209v-123h179q19 0 32.5 -13.5t13.5 -32.5v-58q0 -19 -13.5 -32.5t-32.5 -13.5h-179
v-127h219q19 0 32.5 -13.5t13.5 -32.5zM270 839l148 74q9 5 20 5q31 0 42 -27l18 -41q4 -10 4 -17q0 -14 -8.5 -25.5t-22.5 -15.5l-157 -50q-9 -3 -18 -3q-35 0 -49 30q-5 13 -5 23q0 32 28 47z" />
    <glyph glyph-name="afii10026.var.accented" unicode="&#x418;`" horiz-adv-x="790"
d="M654 0h-68q-19 0 -32.5 13.5t-13.5 32.5v389l-290 -406q-19 -29 -52 -29h-62q-19 0 -32.5 13.5t-13.5 32.5v608q0 19 13.5 32.5t32.5 13.5h68q19 0 32.5 -13.5t13.5 -32.5v-389l290 406q19 29 52 29h62q19 0 32.5 -13.5t13.5 -32.5v-608q0 -19 -13.5 -32.5t-32.5 -13.5z
M360 839l148 74q9 5 20 5q31 0 42 -27l18 -41q4 -10 4 -17q0 -14 -8.5 -25.5t-22.5 -15.5l-157 -50q-9 -3 -18 -3q-35 0 -49 30q-5 13 -5 23q0 32 28 47z" />
    <glyph glyph-name="afii10032.var.accented" unicode="&#x41e;`" horiz-adv-x="824"
d="M40 350q0 155 103.5 258.5t268.5 103.5q163 0 267.5 -99t104.5 -263q0 -158 -105.5 -260t-266.5 -102q-163 0 -267.5 99t-104.5 263zM210 350q0 -90 59 -151t143 -61q96 0 149 59.5t53 152.5q0 94 -58 153t-144 59q-88 0 -145 -58.5t-57 -153.5zM370 839l148 74q9 5 20 5
q31 0 42 -27l18 -41q4 -10 4 -17q0 -14 -8.5 -25.5t-22.5 -15.5l-157 -50q-9 -3 -18 -3q-35 0 -49 30q-5 13 -5 23q0 32 28 47z" />
    <glyph glyph-name="afii10037.var.accented" unicode="&#x423;`" horiz-adv-x="694"
d="M205 669l179 -311l128 309q15 33 49 33h57q20 0 32.5 -12.5t12.5 -30.5q0 -9 -5 -21l-206 -470q-37 -83 -85.5 -124.5t-119.5 -41.5q-44 0 -82 17q-23 11 -23 37q0 10 4 21l19 49q12 31 42 31q6 0 18 -2q13 -3 26 -3q34 0 47 28l9 21l-259 431q-7 13 -7 27q0 18 12 30.5
t32 12.5h67q35 0 53 -31zM316 839l148 74q9 5 20 5q31 0 42 -27l18 -41q4 -10 4 -17q0 -14 -8.5 -25.5t-22.5 -15.5l-157 -50q-9 -3 -18 -3q-35 0 -49 30q-5 13 -5 23q0 32 28 47z" />
    <glyph glyph-name="afii10045.var.accented" unicode="&#x42b;`" horiz-adv-x="885"
d="M795 654v-608q0 -19 -13.5 -32.5t-32.5 -13.5h-68q-19 0 -32.5 13.5t-13.5 32.5v608q0 19 13.5 32.5t32.5 13.5h68q19 0 32.5 -13.5t13.5 -32.5zM250 330v-178q36 -4 47 -4q100 0 100 97q0 45 -26.5 67.5t-72.5 22.5q-15 0 -48 -5zM90 47v607q0 19 13.5 32.5t32.5 13.5
h68q19 0 32.5 -13.5t13.5 -32.5v-173q33 4 62 4q126 0 190.5 -63t64.5 -173q0 -114 -76 -182.5t-213 -68.5q-60 0 -142 2q-19 0 -32.5 14t-13.5 33zM380 839l148 74q9 5 20 5q31 0 42 -27l18 -41q4 -10 4 -17q0 -14 -8.5 -25.5t-22.5 -15.5l-157 -50q-9 -3 -18 -3
q-35 0 -49 30q-5 13 -5 23q0 32 28 47z" />
    <glyph glyph-name="afii10047.var.accented" unicode="&#x42d;`" horiz-adv-x="668"
d="M98 179q14 0 28 -7q63 -34 125 -34q75 0 132.5 35.5t76.5 108.5h-235q-19 0 -32.5 13.5t-13.5 32.5v58q0 19 13.5 32.5t32.5 13.5h229q-23 63 -80 96.5t-138 33.5q-55 0 -112 -27q-14 -7 -29 -7q-26 0 -40 23l-23 37q-7 11 -7 25q0 25 23 40q94 59 227 59
q154 0 253.5 -100t99.5 -262q0 -168 -101 -265t-273 -97q-118 0 -210 58q-21 13 -21 40q0 14 7 24l31 47q15 22 37 22zM228 839l148 74q9 5 20 5q31 0 42 -27l18 -41q4 -10 4 -17q0 -14 -8.5 -25.5t-22.5 -15.5l-157 -50q-9 -3 -18 -3q-35 0 -49 30q-5 13 -5 23q0 32 28 47z
" />
    <glyph glyph-name="afii10048.var.accented" unicode="&#x42e;`" horiz-adv-x="1084"
d="M250 282v-236q0 -19 -13.5 -32.5t-32.5 -13.5h-68q-19 0 -32.5 13.5t-13.5 32.5v608q0 19 13.5 32.5t32.5 13.5h68q19 0 32.5 -13.5t13.5 -32.5v-222h88q25 125 117 202.5t227 77.5q162 0 262 -98.5t100 -263.5q0 -159 -101 -260.5t-261 -101.5q-132 0 -229 79.5
t-118 214.5h-85zM500 350q0 -89 55 -150.5t132 -61.5q95 0 141 58.5t46 153.5q0 96 -51 154t-136 58q-81 0 -134 -58.5t-53 -153.5zM520 839l148 74q9 5 20 5q31 0 42 -27l18 -41q4 -10 4 -17q0 -14 -8.5 -25.5t-22.5 -15.5l-157 -50q-9 -3 -18 -3q-35 0 -49 30q-5 13 -5 23
q0 32 28 47z" />
    <glyph glyph-name="afii10049.var.accented" unicode="&#x42f;`" horiz-adv-x="639"
d="M549 653v-607q0 -19 -13.5 -32.5t-32.5 -13.5h-68q-19 0 -32.5 13.5t-13.5 32.5v179h-71l-115 -195q-18 -30 -53 -30h-61q-20 0 -33 13.5t-13 32.5q0 13 7 24l120 190q-108 64 -108 191q0 109 74 181t227 72q14 0 37.5 -0.5t55 -1.5t47.5 -1q19 -1 32.5 -14.5t13.5 -33.5
zM389 375v175q-20 4 -58 4q-41 0 -70 -25t-29 -67q0 -37 21 -58.5t52 -28.5h84zM306 839l148 74q9 5 20 5q31 0 42 -27l18 -41q4 -10 4 -17q0 -14 -8.5 -25.5t-22.5 -15.5l-157 -50q-9 -3 -18 -3q-35 0 -49 30q-5 13 -5 23q0 32 28 47z" />
    <glyph glyph-name="afii10023.var.accented" unicode="&#x401;`" horiz-adv-x="575"
d="M70 836q0 36 21 57.5t53 21.5q28 0 49 -21.5t21 -57.5q0 -40 -21 -62.5t-49 -22.5q-32 0 -53 22.5t-21 62.5zM395 836q0 36 22 57.5t53 21.5q28 0 48.5 -21.5t20.5 -57.5q0 -40 -20 -62.5t-49 -22.5q-32 0 -53.5 22.5t-21.5 62.5zM233 807l28 94q4 14 15.5 22.5t25.5 8.5
q8 0 16 -3l30 -10q27 -10 27 -39q0 -13 -7 -23l-57 -84q-17 -26 -41 -26q-7 0 -16 3q-24 7 -24 35q0 10 3 22zM515 104v-58q0 -19 -13.5 -32.5t-32.5 -13.5h-333q-19 0 -32.5 13.5t-13.5 32.5v608q0 19 13.5 32.5t32.5 13.5h323q19 0 32.5 -13.5t13.5 -32.5v-58
q0 -19 -13.5 -32.5t-32.5 -13.5h-209v-123h179q19 0 32.5 -13.5t13.5 -32.5v-58q0 -19 -13.5 -32.5t-32.5 -13.5h-179v-127h219q19 0 32.5 -13.5t13.5 -32.5z" />
    <glyph glyph-name="afii10065.var.accented" unicode="&#x430;`" horiz-adv-x="465"
d="M30 136q0 73 45.5 111t116.5 38q56 0 88 -25v9q0 68 -64 68q-36 0 -74 -11q-10 -2 -14 -2q-30 0 -39 26l-13 33q-3 7 -3 15q0 25 24 36q65 28 136 28q100 0 143.5 -48t43.5 -143v-233q0 -16 -11 -27t-27 -11h-54q-16 0 -27 11.5t-11 28.5q-34 -46 -118 -46
q-63 0 -102.5 37.5t-39.5 104.5zM280 142v28q-21 15 -57 15q-19 0 -31 -9t-12 -25q0 -15 12 -23.5t31 -8.5q40 0 57 23zM191 611l49 82q14 23 40 23q18 0 29 -10l33 -25q19 -15 19 -39q0 -18 -12 -32l-61 -68q-17 -19 -43 -19q-19 0 -36 12q-26 18 -26 48q0 14 8 28z" />
    <glyph glyph-name="afii10070.var.accented" unicode="&#x435;`" horiz-adv-x="512"
d="M455 175h-270q20 -62 105 -62q46 0 81 13q11 4 22 4q25 0 35 -21l16 -32q4 -8 4 -18q0 -22 -18 -33q-68 -38 -156 -38q-111 0 -177.5 65t-66.5 172q0 101 67.5 169t176.5 68q90 0 154 -59.5t64 -152.5q0 -27 -3 -45q-1 -11 -12 -20.5t-22 -9.5zM342 275q0 25 -19.5 43.5
t-53.5 18.5q-67 0 -89 -62h162zM215 611l49 82q14 23 40 23q18 0 29 -10l33 -25q19 -15 19 -39q0 -18 -12 -32l-61 -68q-17 -19 -43 -19q-19 0 -36 12q-26 18 -26 48q0 14 8 28z" />
    <glyph glyph-name="afii10074.var.accented" unicode="&#x438;`" horiz-adv-x="570"
d="M477 0h-74q-16 0 -27 11t-11 27v197l-143 -210q-17 -25 -43 -25h-86q-16 0 -27 11t-11 27v374q0 16 11 27t27 11h74q16 0 27 -11t11 -27v-197l143 210q17 25 42 25h87q16 0 27 -11t11 -27v-374q0 -16 -11 -27t-27 -11zM226 611l49 82q14 23 40 23q18 0 29 -10l33 -25
q19 -15 19 -39q0 -18 -12 -32l-61 -68q-17 -19 -43 -19q-20 0 -36 12q-26 18 -26 48q0 14 8 28z" />
    <glyph glyph-name="afii10080.var.accented" unicode="&#x43e;`" horiz-adv-x="560"
d="M30 225q0 103 68.5 170t181.5 67t181.5 -67t68.5 -170t-68.5 -170t-181.5 -67t-181.5 67t-68.5 170zM190 225q0 -42 25.5 -69.5t64.5 -27.5t64.5 26t25.5 71q0 43 -26 70t-64 27t-64 -26.5t-26 -70.5zM231 611l49 82q14 23 40 23q18 0 29 -10l33 -25q19 -15 19 -39
q0 -18 -12 -32l-61 -68q-17 -19 -43 -19q-19 0 -36 12q-26 18 -26 48q0 14 8 28z" />
    <glyph glyph-name="afii10085.var.accented" unicode="&#x443;`" horiz-adv-x="515"
d="M256 244q6 -16 17 -62q4 40 11 63l51 176q9 29 38 29h71q20 0 34 -14.5t14 -33.5q0 -8 -3 -17l-150 -385q-48 -118 -86.5 -159t-95.5 -41q-48 0 -95 30q-16 11 -16 31q0 11 6 22l22 39q8 13 14 18.5t19 5.5q5 0 19 -4t24 -4q23 0 39 38l10 24l-172 386q-4 8 -4 19
q0 18 13 31.5t32 13.5h81q29 0 41 -29zM199 611l49 82q14 23 40 23q18 0 29 -10l33 -25q19 -15 19 -39q0 -18 -12 -32l-61 -68q-17 -19 -43 -19q-19 0 -36 12q-26 18 -26 48q0 14 8 28z" />
    <glyph glyph-name="afii10093.var.accented" unicode="&#x44b;`" horiz-adv-x="705"
d="M205 345h47q109 0 157 -46.5t48 -115.5q0 -76 -53 -129.5t-163 -53.5h-148q-16 0 -27 11t-11 27v374q0 16 11 27t27 11h74q16 0 27 -11t11 -27v-67zM650 412v-374q0 -16 -11 -27t-27 -11h-74q-16 0 -27 11t-11 27v374q0 16 11 27t27 11h74q16 0 27 -11t11 -27zM205 130
h33q59 0 59 47q0 48 -58 48h-34v-95zM271 611l49 82q14 23 40 23q18 0 29 -10l33 -25q19 -15 19 -39q0 -18 -12 -32l-61 -68q-17 -19 -43 -19q-19 0 -36 12q-26 18 -26 48q0 14 8 28z" />
    <glyph glyph-name="afii10095.var.accented" unicode="&#x44d;`" horiz-adv-x="495"
d="M94 144q15 0 30 -7q40 -19 82 -19q82 0 100 59h-142q-16 0 -27 11t-11 27v24q0 16 11 27t27 11h139q-23 55 -94 55q-47 0 -86 -18q-10 -5 -23 -5q-24 0 -35 20l-20 33q-7 12 -7 22q0 20 20 33q73 45 151 45q117 0 185.5 -64t68.5 -173q0 -103 -65.5 -170t-182.5 -67
q-100 0 -167 48q-16 12 -16 31q0 12 7 24l21 34q12 19 34 19zM159 611l49 82q14 23 40 23q18 0 29 -10l33 -25q19 -15 19 -39q0 -18 -12 -32l-61 -68q-17 -19 -43 -19q-19 0 -36 12q-26 18 -26 48q0 14 8 28z" />
    <glyph glyph-name="afii10096.var.accented" unicode="&#x44e;`" horiz-adv-x="785"
d="M215 155v-117q0 -16 -11 -27t-27 -11h-84q-16 0 -27 11t-11 27v374q0 16 11 27t27 11h84q16 0 27 -11t11 -27v-107h61q22 72 82.5 114.5t146.5 42.5q112 0 181 -67t69 -170q0 -102 -69.5 -169.5t-180.5 -67.5q-90 0 -151 45.5t-81 121.5h-58zM435 225q0 -42 21 -64.5
t54 -22.5q34 0 54.5 22.5t20.5 64.5q0 41 -19.5 64t-55.5 23q-33 0 -54 -23t-21 -64zM346 611l49 82q14 23 40 23q18 0 29 -10l33 -25q19 -15 19 -39q0 -18 -12 -32l-61 -68q-17 -19 -43 -19q-20 0 -36 12q-26 18 -26 48q0 14 8 28z" />
    <glyph glyph-name="afii10097.var.accented" unicode="&#x44f;`" horiz-adv-x="490"
d="M60 62l62 86q-75 40 -75 133q0 75 59.5 122t181.5 47h117q16 0 27 -11t11 -27v-374q0 -16 -11 -27t-27 -11h-74q-16 0 -27 11t-11 27v77h-36l-55 -89q-16 -26 -46 -26h-64q-17 0 -28.5 12t-11.5 27q0 12 8 23zM293 225v95h-29q-26 0 -41.5 -13t-15.5 -34
q0 -23 16.5 -35.5t42.5 -12.5h27zM213 611l49 82q14 23 40 23q18 0 29 -10l33 -25q19 -15 19 -39q0 -18 -12 -32l-61 -68q-17 -19 -43 -19q-19 0 -36 12q-26 18 -26 48q0 14 8 28z" />
    <glyph glyph-name="afii10071.var.accented" unicode="&#x451;`" horiz-adv-x="512"
d="M47 574q0 31 19 48.5t48 17.5q25 0 43.5 -18t18.5 -48q0 -33 -18.5 -51.5t-43.5 -18.5q-29 0 -48 18.5t-19 51.5zM361 574q0 30 19.5 48t47.5 18q25 0 43.5 -18t18.5 -48q0 -33 -18 -51.5t-44 -18.5q-28 0 -47.5 18.5t-19.5 51.5zM208 585l63 106q11 17 30 17q9 0 20 -7
l37 -29q13 -10 13 -27q0 -15 -9 -25l-79 -88q-12 -15 -33 -15q-16 0 -29 10q-19 13 -19 36q0 11 6 22zM342 275q0 25 -19.5 43.5t-53.5 18.5q-67 0 -89 -62h162zM430 26q-68 -38 -156 -38q-111 0 -177.5 65t-66.5 172q0 101 67.5 169t176.5 68q90 0 154 -59.5t64 -152.5
q0 -27 -3 -45q-1 -11 -12 -20.5t-22 -9.5h-270q20 -62 105 -62q46 0 81 13q11 4 22 4q25 0 35 -21l16 -32q4 -8 4 -18q0 -22 -18 -33z" />
    <glyph glyph-name="fi" unicode="fi" horiz-adv-x="547"
d="M492 412v-374q0 -16 -11 -27t-27 -11h-74q-16 0 -27 11t-11 27v272h-137v-272q0 -16 -11 -27t-27 -11h-74q-16 0 -27 11t-11 27v462q0 107 57.5 159.5t156.5 52.5q66 0 109.5 -17.5t80.5 -56.5q12 -12 12 -28q0 -18 -12 -30l-41 -43q-12 -12 -26 -12q-18 0 -36 16
q-35 31 -74 31q-37 0 -57 -18.5t-20 -63.5v-40h249q16 0 27 -11t11 -27z" />
    <glyph glyph-name="fl" unicode="fl" horiz-adv-x="579"
d="M561 105l14 -44q2 -6 2 -15q0 -26 -27 -36q-56 -22 -107 -22q-118 0 -118 141v421q-32 22 -61 22q-59 0 -59 -58v-64h22q16 0 27 -11t11 -27v-64q0 -16 -11 -27t-27 -11h-22v-272q0 -16 -11 -27t-27 -11h-74q-16 0 -27 11t-11 27v485q0 92 43.5 140.5t120.5 48.5
q76 0 119 -28h99q16 0 27 -11t11 -27v-460q0 -32 5.5 -45t22.5 -13q2 0 11 0.5t16 0.5q23 0 31 -24z" />
    <glyph glyph-name=".notdef" horiz-adv-x="200"
 />
    <glyph glyph-name=".null" horiz-adv-x="0"
 />
    <glyph glyph-name="nonmarkingreturn" horiz-adv-x="333"
 />
    <glyph glyph-name="space" unicode=" " horiz-adv-x="200"
 />
    <glyph glyph-name="exclam" unicode="!" horiz-adv-x="310"
d="M235 654v-338q0 -19 -13.5 -32.5t-32.5 -13.5h-68q-19 0 -32.5 13.5t-13.5 32.5v338q0 19 13.5 32.5t32.5 13.5h68q19 0 32.5 -13.5t13.5 -32.5zM57 96q0 36 28 65t74 29q40 0 67 -29t27 -65q0 -41 -26.5 -71.5t-67.5 -30.5q-46 0 -74 30t-28 72z" />
    <glyph glyph-name="quotedbl" unicode="&#x22;" horiz-adv-x="450"
d="M400 652v-164q0 -20 -14 -34t-34 -14h-54q-20 0 -34 14t-14 34v164q0 20 14 34t34 14h54q20 0 34 -14t14 -34zM200 652v-164q0 -20 -14 -34t-34 -14h-54q-20 0 -34 14t-14 34v164q0 20 14 34t34 14h54q20 0 34 -14t14 -34z" />
    <glyph glyph-name="numbersign" unicode="#" horiz-adv-x="744"
d="M489 165l-49 -133q-11 -31 -44 -31q-8 0 -16 3l-27 9q-31 11 -31 44q0 9 3 16l34 92h-120l-50 -134q-11 -30 -45 -30q-10 0 -15 2l-28 10q-31 10 -31 43q0 8 3 15l35 94h-22q-19 0 -32.5 13.5t-13.5 32.5v38q0 19 13.5 32.5t32.5 13.5h70l41 110h-111q-19 0 -32.5 13.5
t-13.5 32.5v38q0 19 13.5 32.5t32.5 13.5h159l50 134q12 30 44 30q9 0 16 -3l28 -10q31 -11 31 -44q0 -8 -3 -15l-34 -92h118l50 134q11 30 45 30q10 0 15 -2l28 -10q31 -10 31 -43q0 -8 -3 -15l-35 -94h32q19 0 32.5 -13.5t13.5 -32.5v-38q0 -19 -13.5 -32.5t-32.5 -13.5
h-80l-41 -110h121q19 0 32.5 -13.5t13.5 -32.5v-38q0 -19 -13.5 -32.5t-32.5 -13.5h-169zM287 295h120l40 110h-119z" />
    <glyph glyph-name="dollar" unicode="$" horiz-adv-x="596"
d="M77 137l35 44q14 17 35 17q20 0 37 -14q57 -46 120 -46q56 0 56 54q0 28 -30 50.5t-73 42.5t-86 45t-73 71t-30 109q0 64 42 116.5t113 73.5v44q0 19 13.5 32.5t32.5 13.5h58q19 0 32.5 -13.5t13.5 -32.5v-39q54 -10 98 -41q20 -12 20 -37q0 -13 -8 -26l-28 -44
q-14 -23 -40 -23q-14 0 -28 8q-37 20 -69 20q-80 0 -80 -52q0 -27 21.5 -48t54 -34.5t70.5 -33.5t70.5 -42.5t54 -63t21.5 -94.5q0 -74 -42.5 -126.5t-114.5 -70.5v-51q0 -19 -13.5 -32.5t-32.5 -13.5h-58q-19 0 -32.5 13.5t-13.5 32.5v51q-85 18 -141 73q-16 16 -16 36
q0 17 11 31z" />
    <glyph glyph-name="percent" unicode="%" horiz-adv-x="945"
d="M732 611l-437 -585q-14 -19 -39 -19q-17 0 -33 11q-23 15 -23 41q0 14 9 26l439 589q14 18 37 18q19 0 34 -11q23 -18 23 -42q0 -15 -10 -28zM241 338q-93 0 -152 51.5t-59 136.5t59 135.5t152 50.5t152 -50.5t59 -135.5t-59 -136.5t-152 -51.5zM241 592q-32 0 -51.5 -18
t-19.5 -48q0 -32 20 -50t51 -18q33 0 52 18t19 50q0 30 -19.5 48t-51.5 18zM704 -12q-93 0 -152 51.5t-59 136.5t59 135.5t152 50.5t152 -50.5t59 -135.5t-59 -136.5t-152 -51.5zM704 242q-32 0 -51.5 -18t-19.5 -48q0 -32 20 -50t51 -18q33 0 52 18t19 50q0 30 -19.5 48
t-51.5 18z" />
    <glyph glyph-name="ampersand" unicode="&#x26;" horiz-adv-x="756"
d="M691 407v-3q-14 -142 -94 -243l71 -92q9 -12 9 -26q0 -17 -12 -30t-31 -13h-63q-35 0 -57 27l-23 28q-73 -67 -196 -67q-111 0 -178 56.5t-67 145.5q0 56 20.5 99t47.5 68t77 60q-69 48 -69 136q0 73 52.5 116t125.5 43t126 -43t53 -116q0 -43 -22.5 -81.5t-54.5 -55.5
l101 -135q29 65 35 123q2 21 16 33.5t35 12.5h56q16 0 29 -13t13 -30zM401 175l-108 156q-44 -38 -58.5 -61t-14.5 -49q0 -33 23 -58t57 -25q70 0 101 37zM266 553q0 -16 10.5 -27t27.5 -11t28 11t11 27t-11.5 27.5t-27.5 11.5q-17 0 -27.5 -11t-10.5 -28z" />
    <glyph glyph-name="quotesingle" unicode="'" horiz-adv-x="250"
d="M200 652v-164q0 -20 -14 -34t-34 -14h-54q-20 0 -34 14t-14 34v164q0 20 14 34t34 14h54q20 0 34 -14t14 -34z" />
    <glyph glyph-name="parenleft" unicode="(" horiz-adv-x="335"
d="M278 625l21 -18q17 -15 17 -37q0 -18 -12 -31q-114 -134 -114 -314q0 -176 114 -314q13 -14 13 -32q0 -21 -18 -36l-22 -19q-12 -11 -33 -11q-23 0 -37 14q-167 164 -167 398q0 227 168 398q14 14 36 14q20 0 34 -12z" />
    <glyph glyph-name="parenright" unicode=")" horiz-adv-x="335"
d="M36 607l21 18q14 12 34 12q22 0 36 -14q168 -171 168 -398q0 -234 -167 -398q-14 -14 -37 -14q-21 0 -33 11l-22 19q-18 15 -18 36q0 18 13 32q114 138 114 314q0 180 -114 314q-12 15 -12 32q0 21 17 36z" />
    <glyph glyph-name="asterisk" unicode="*" horiz-adv-x="516"
d="M258 566q-30 0 -51 21t-21 51t21 51.5t51 21.5t51.5 -21.5t21.5 -51.5t-21.5 -51t-51.5 -21zM256 233q-30 0 -51 21t-21 51t21 51.5t51 21.5t51.5 -21.5t21.5 -51.5t-21.5 -51t-51.5 -21zM403 485q-30 0 -51 21t-21 51t21 51.5t51 21.5t51.5 -21.5t21.5 -51.5t-21.5 -51
t-51.5 -21zM403 319q-30 0 -51 21t-21 51t21 51.5t51 21.5t51.5 -21.5t21.5 -51.5t-21.5 -51t-51.5 -21zM112 319q-30 0 -51 21t-21 51t21 51.5t51 21.5t51.5 -21.5t21.5 -51.5t-21.5 -51t-51.5 -21zM112 485q-30 0 -51 21t-21 51t21 51.5t51 21.5t51.5 -21.5t21.5 -51.5
t-21.5 -51t-51.5 -21z" />
    <glyph glyph-name="plus" unicode="+"
d="M321 122h-44q-19 0 -33.5 14t-14.5 34v125h-118q-19 0 -33.5 14.5t-14.5 33.5v34q0 19 14.5 33.5t33.5 14.5h118v123q0 20 14.5 34t33.5 14h44q19 0 33.5 -14t14.5 -34v-123h120q19 0 33.5 -14.5t14.5 -33.5v-34q0 -19 -14.5 -33.5t-33.5 -14.5h-120v-125
q0 -20 -14.5 -34t-33.5 -14z" />
    <glyph glyph-name="comma" unicode="," horiz-adv-x="281"
d="M89 -60q20 13 29 23q17 19 17 40v4q-7 -7 -25 -7h-6q-25 0 -44.5 23.5t-19.5 57.5q0 42 25 67.5t72 25.5q48 0 76 -35.5t28 -90.5q0 -65 -24 -106.5t-88 -73.5q-8 -4 -20 -4q-25 0 -36 20q-5 9 -5 19q0 23 21 37z" />
    <glyph glyph-name="hyphen" unicode="-" horiz-adv-x="364"
d="M314 297v-44q0 -19 -14 -33.5t-34 -14.5h-168q-20 0 -34 14.5t-14 33.5v44q0 19 14 33.5t34 14.5h168q20 0 34 -14.5t14 -33.5z" />
    <glyph glyph-name="period" unicode="." horiz-adv-x="276"
d="M40 96q0 36 28 65t74 29q40 0 67 -29t27 -65q0 -41 -26.5 -71.5t-67.5 -30.5q-46 0 -74 30t-28 72z" />
    <glyph glyph-name="slash" unicode="/" horiz-adv-x="384"
d="M396 624l-292 -787q-11 -31 -45 -31q-8 0 -17 3l-26 9q-31 11 -31 45q0 8 3 17l293 787q11 31 45 31q8 0 17 -3l25 -9q31 -11 31 -45q0 -8 -3 -17z" />
    <glyph glyph-name="zero" unicode="0" horiz-adv-x="544"
d="M30 350q0 168 61.5 263t180.5 95t180.5 -95t61.5 -263t-60.5 -263t-179.5 -95q-120 0 -182 95.5t-62 262.5zM190 350q0 -218 84 -218q43 0 61.5 48.5t18.5 169.5t-19 169.5t-63 48.5q-43 0 -62.5 -50t-19.5 -168z" />
    <glyph glyph-name="one" unicode="1" horiz-adv-x="396"
d="M156 487l-32 -22q-12 -9 -27 -9q-24 0 -38 20l-31 43q-9 12 -9 27q0 24 20 38l132 96q27 20 51 20h38q19 0 32.5 -13.5t13.5 -32.5v-608q0 -19 -13.5 -32.5t-32.5 -13.5h-58q-19 0 -32.5 13.5t-13.5 32.5v441z" />
    <glyph glyph-name="two" unicode="2" horiz-adv-x="519"
d="M479 94v-48q0 -19 -13.5 -32.5t-32.5 -13.5h-360q-19 0 -32.5 13.5t-13.5 32.5v50q0 25 24 47q125 121 169 177q75 96 75 169q0 69 -64 69q-37 0 -62 -39q-20 -31 -44 -31q-11 0 -26 6l-48 20q-25 12 -25 39q0 11 4 19q26 65 82.5 100.5t136.5 35.5q97 0 151.5 -55
t54.5 -134q0 -199 -234 -379h212q19 0 32.5 -13.5t13.5 -32.5z" />
    <glyph glyph-name="three" unicode="3" horiz-adv-x="529"
d="M242 712q93 0 151.5 -48.5t58.5 -130.5q0 -61 -25.5 -100.5t-78.5 -64.5q63 -14 97 -59t34 -109q0 -97 -67.5 -154.5t-170.5 -57.5q-131 0 -220 94q-11 11 -11 31q0 22 13 35l34 34q16 16 36 16q18 0 34 -13q60 -47 104 -47q43 0 65.5 19.5t22.5 48.5q0 77 -119 77
q-19 0 -31.5 12.5t-12.5 30.5v68q0 16 12 27.5t28 11.5q42 0 69 18t27 52q0 25 -15.5 42t-48.5 17q-40 0 -91 -31q-14 -8 -29 -8q-24 0 -39 21l-24 34q-9 12 -9 29q0 24 17 36q89 69 189 69z" />
    <glyph glyph-name="four" unicode="4" horiz-adv-x="580"
d="M478 150v-104q0 -19 -13.5 -32.5t-32.5 -13.5h-58q-19 0 -32.5 13.5t-13.5 32.5v104h-282q-19 0 -32.5 13.5t-13.5 32.5v32q0 17 27 63l216 380q17 29 51 29h66q18 0 30 -12.5t12 -28.5q0 -11 -6 -21l-193 -338h125v104q0 19 13.5 32.5t32.5 13.5h58q19 0 32.5 -13.5
t13.5 -32.5v-104h36q19 0 32.5 -13.5t13.5 -32.5v-58q0 -19 -13.5 -32.5t-32.5 -13.5h-36z" />
    <glyph glyph-name="five" unicode="5" horiz-adv-x="510"
d="M124 166q51 -28 95 -28q40 0 65.5 24.5t25.5 63.5q0 44 -34 72t-95 28q-28 0 -55 -3q-2 0 -5 -0.5t-5 -0.5q-22 0 -34.5 12.5t-12.5 34.5q0 1 0.5 5t0.5 5l33 275q3 20 18 33t34 13h254q19 0 32.5 -13.5t13.5 -32.5v-58q0 -19 -13.5 -32.5t-32.5 -13.5h-168l-14 -89h24
q94 0 156.5 -62t62.5 -166q0 -114 -72 -179.5t-183 -65.5q-105 0 -182 60q-17 12 -17 38q0 16 8 27l30 41q16 21 39 21q15 0 31 -9z" />
    <glyph glyph-name="six" unicode="6" horiz-adv-x="564"
d="M218 398q41 38 123 38q78 0 135.5 -60t57.5 -153q0 -110 -71 -172.5t-165 -62.5q-115 0 -186.5 75t-71.5 185q0 169 89.5 288t227.5 170q9 4 21 4q29 0 43 -30l14 -30q4 -8 4 -19q0 -29 -31 -44q-135 -59 -190 -189zM200 247q0 -50 26 -79.5t73 -29.5q37 0 56 22t19 52
q0 37 -22 60.5t-63 23.5q-55 0 -89 -49z" />
    <glyph glyph-name="seven" unicode="7" horiz-adv-x="510"
d="M209 0h-58q-21 0 -35 14.5t-14 33.5q0 11 4 19l195 483h-235q-19 0 -32.5 13.5t-13.5 32.5v58q0 19 13.5 32.5t32.5 13.5h368q19 0 32.5 -13.5t13.5 -32.5v-32q0 -24 -12 -55l-213 -536q-12 -31 -46 -31z" />
    <glyph glyph-name="eight" unicode="8" horiz-adv-x="605"
d="M310 435q33 0 50.5 19.5t17.5 45.5q0 62 -77 62q-37 0 -55.5 -17.5t-18.5 -44.5q0 -26 18 -45.5t52 -19.5h13zM298 285q-36 0 -62 -19.5t-26 -54.5q0 -32 22.5 -52.5t69.5 -20.5q93 0 93 70v3q-1 36 -24 55t-61 19h-12zM302 712q100 0 168 -52t68 -133q0 -52 -26.5 -97
t-73.5 -69q49 -15 83 -58.5t34 -108.5q0 -97 -70 -151.5t-182 -54.5q-111 0 -182 52.5t-71 140.5q0 66 30 111.5t77 67.5q-90 51 -90 167q0 81 67.5 133t167.5 52z" />
    <glyph glyph-name="nine" unicode="9" horiz-adv-x="559"
d="M341 292q-41 -38 -109 -38q-87 0 -149.5 62t-62.5 156q0 110 73.5 175t167.5 65q117 0 187.5 -74t70.5 -196q0 -187 -82 -295.5t-245 -153.5q-8 -2 -12 -2q-15 0 -28 10t-18 24l-12 39q-2 5 -2 15q0 34 32 45q82 29 124.5 67t64.5 101zM359 443q0 51 -26.5 85t-72.5 34
q-37 0 -58.5 -24.5t-21.5 -54.5q0 -37 24.5 -63t65.5 -26q55 0 89 49z" />
    <glyph glyph-name="colon" unicode=":" horiz-adv-x="316"
d="M60 368q0 36 28 65t74 29q40 0 67 -29t27 -65q0 -41 -26.5 -71.5t-67.5 -30.5q-46 0 -74 30t-28 72zM60 96q0 36 28 65t74 29q40 0 67 -29t27 -65q0 -41 -26.5 -71.5t-67.5 -30.5q-46 0 -74 30t-28 72z" />
    <glyph glyph-name="semicolon" unicode=";" horiz-adv-x="323"
d="M60 368q0 36 28 65t74 29q40 0 67 -29t27 -65q0 -41 -26.5 -71.5t-67.5 -30.5q-46 0 -74 30t-28 72zM111 -60q20 13 29 23q17 19 17 40v4q-7 -7 -25 -7h-6q-25 0 -44.5 23.5t-19.5 57.5q0 42 25 67.5t72 25.5q48 0 76 -35.5t28 -90.5q0 -65 -24 -106.5t-88 -73.5
q-8 -4 -20 -4q-25 0 -36 20q-5 9 -5 19q0 23 21 37z" />
    <glyph glyph-name="less" unicode="&#x3c;"
d="M530 184v-57q0 -18 -12.5 -30.5t-30.5 -12.5q-11 0 -21 6l-398 224q-28 16 -28 48t28 48l398 222q10 6 21 6q18 0 30.5 -12.5t12.5 -30.5v-57q0 -33 -29 -46l-255 -130l256 -131q28 -15 28 -47z" />
    <glyph glyph-name="equal" unicode="="
d="M537 477v-34q0 -19 -14.5 -33.5t-33.5 -14.5h-378q-19 0 -33.5 14.5t-14.5 33.5v34q0 19 14.5 33.5t33.5 14.5h378q19 0 33.5 -14.5t14.5 -33.5zM537 277v-34q0 -19 -14.5 -33.5t-33.5 -14.5h-378q-19 0 -33.5 14.5t-14.5 33.5v34q0 19 14.5 33.5t33.5 14.5h378
q19 0 33.5 -14.5t14.5 -33.5z" />
    <glyph glyph-name="greater" unicode="&#x3e;"
d="M70 127v57q0 32 28 47l256 131l-255 130q-29 13 -29 46v57q0 18 12.5 30.5t30.5 12.5q11 0 21 -6l398 -222q28 -16 28 -48t-28 -48l-398 -224q-10 -6 -21 -6q-18 0 -30.5 12.5t-12.5 30.5z" />
    <glyph glyph-name="question" unicode="?" horiz-adv-x="478"
d="M240 232h-57q-16 0 -25 11.5t-9 29.5q0 7 1 10q5 35 22.5 61.5t38 42l40 30.5t33 35t13.5 48q0 24 -19.5 43t-46.5 19q-44 0 -84 -28q-19 -13 -36 -13q-18 0 -32 13l-29 27q-16 13 -16 35q0 18 13 32q35 40 87 62t105 22q100 0 159.5 -51.5t59.5 -127.5
q0 -45 -13.5 -77.5t-34.5 -53.5t-43 -38.5t-44 -43t-33 -57.5q-6 -19 -17 -25t-33 -6zM124 96q0 36 28 65t74 29q40 0 67 -29t27 -65q0 -41 -26.5 -71.5t-67.5 -30.5q-46 0 -74 30t-28 72z" />
    <glyph glyph-name="at" unicode="@" horiz-adv-x="986"
d="M50 225q0 187 130 315t323 128q187 0 310 -108t123 -284q0 -108 -58 -188t-159 -88h-128q-9 0 -15.5 6.5t-6.5 16.5q-45 -35 -107 -35q-101 0 -160.5 65t-59.5 172q0 100 73.5 168.5t189.5 68.5q96 0 183 -39q12 -6 21.5 -21t9.5 -28v-234h19q23 0 40.5 35.5t17.5 100.5
q0 105 -78.5 178.5t-214.5 73.5q-132 0 -222.5 -80t-90.5 -223q0 -133 92 -218t221 -85q35 0 62 4q1 0 4 0.5t5 0.5q41 0 47 -35l8 -47q0 -1 0.5 -3.5t0.5 -3.5q0 -17 -10.5 -30.5t-26.5 -16.5q-49 -9 -90 -9q-196 0 -324.5 124.5t-128.5 318.5zM569 161v145q-34 16 -65 16
q-53 0 -77.5 -29.5t-24.5 -74.5q0 -43 24.5 -66.5t62.5 -23.5q45 0 80 33z" />
    <glyph glyph-name="A" unicode="A" horiz-adv-x="721"
d="M494 147h-277l-45 -114q-13 -33 -48 -33h-61q-18 0 -30.5 13t-12.5 30q0 9 3 17l252 607q15 33 49 33h73q34 0 49 -33l252 -607q3 -8 3 -17q0 -17 -12.5 -30t-30.5 -13h-71q-35 0 -48 33zM356 495l-79 -198h157z" />
    <glyph glyph-name="B" unicode="B" horiz-adv-x="617"
d="M537 530q0 -103 -80 -157q43 -17 71.5 -57.5t28.5 -103.5q0 -106 -73.5 -161t-192.5 -55q-86 0 -155 3q-18 1 -32 15.5t-14 32.5v605q0 19 13.5 33t32.5 15q94 4 166 4q119 0 177 -48t58 -126zM250 283v-131q22 -6 54 -6q93 0 93 74q0 63 -85 63h-62zM250 423h53
q74 0 74 68q0 30 -22.5 46.5t-54.5 16.5q-14 0 -50 -4v-127z" />
    <glyph glyph-name="C" unicode="C" horiz-adv-x="653"
d="M506 544q-46 18 -100 18q-85 0 -140.5 -56t-55.5 -156q0 -93 59 -152.5t153 -59.5q56 0 109 27q14 7 29 7q27 0 41 -24l24 -38q7 -12 7 -25q0 -26 -22 -42q-80 -55 -203 -55q-163 0 -265 99.5t-102 262.5q0 158 96 260t270 102q92 0 170 -39q24 -11 24 -39q0 -10 -5 -22
l-22 -46q-12 -27 -43 -27q-11 0 -24 5z" />
    <glyph glyph-name="D" unicode="D" horiz-adv-x="744"
d="M136 700q20 0 60.5 1t69.5 1.5t45 0.5q198 0 295.5 -98t97.5 -249q0 -155 -104.5 -256.5t-296.5 -101.5q-27 0 -167 2q-19 0 -32.5 14t-13.5 33v606q0 19 13.5 33t32.5 14zM250 550v-400q21 -2 58 -2q105 0 165.5 54.5t60.5 153.5q0 94 -62 145.5t-163 51.5q-39 0 -59 -3
z" />
    <glyph glyph-name="E" unicode="E" horiz-adv-x="575"
d="M515 104v-58q0 -19 -13.5 -32.5t-32.5 -13.5h-333q-19 0 -32.5 13.5t-13.5 32.5v608q0 19 13.5 32.5t32.5 13.5h323q19 0 32.5 -13.5t13.5 -32.5v-58q0 -19 -13.5 -32.5t-32.5 -13.5h-209v-123h179q19 0 32.5 -13.5t13.5 -32.5v-58q0 -19 -13.5 -32.5t-32.5 -13.5h-179
v-127h219q19 0 32.5 -13.5t13.5 -32.5z" />
    <glyph glyph-name="F" unicode="F" horiz-adv-x="535"
d="M250 252v-206q0 -19 -13.5 -32.5t-32.5 -13.5h-68q-19 0 -32.5 13.5t-13.5 32.5v608q0 19 13.5 32.5t32.5 13.5h313q19 0 32.5 -13.5t13.5 -32.5v-58q0 -19 -13.5 -32.5t-32.5 -13.5h-199v-148h169q19 0 32.5 -13.5t13.5 -32.5v-58q0 -19 -13.5 -32.5t-32.5 -13.5h-169z
" />
    <glyph glyph-name="G" unicode="G" horiz-adv-x="727"
d="M210 350q0 -97 56.5 -154.5t150.5 -57.5q30 0 63.5 11.5t46.5 23.5v76h-103q-19 0 -32.5 13.5t-13.5 32.5v58q0 19 13.5 32.5t32.5 13.5h207q19 0 32.5 -13.5t13.5 -32.5v-236q0 -34 -27 -53q-47 -35 -111.5 -55.5t-123.5 -20.5q-177 0 -276 98t-99 264q0 155 97 258.5
t258 103.5q116 0 191 -41q28 -16 28 -43q0 -12 -6 -22l-27 -48q-15 -26 -42 -26q-12 0 -24 6q-50 24 -101 24q-91 0 -147.5 -54t-56.5 -158z" />
    <glyph glyph-name="H" unicode="H" horiz-adv-x="755"
d="M665 654v-608q0 -19 -13.5 -32.5t-32.5 -13.5h-68q-19 0 -32.5 13.5t-13.5 32.5v236h-255v-236q0 -19 -13.5 -32.5t-32.5 -13.5h-68q-19 0 -32.5 13.5t-13.5 32.5v608q0 19 13.5 32.5t32.5 13.5h68q19 0 32.5 -13.5t13.5 -32.5v-222h255v222q0 19 13.5 32.5t32.5 13.5h68
q19 0 32.5 -13.5t13.5 -32.5z" />
    <glyph glyph-name="I" unicode="I" horiz-adv-x="360"
d="M260 654v-608q0 -19 -13.5 -32.5t-32.5 -13.5h-68q-19 0 -32.5 13.5t-13.5 32.5v608q0 19 13.5 32.5t32.5 13.5h68q19 0 32.5 -13.5t13.5 -32.5z" />
    <glyph glyph-name="J" unicode="J" horiz-adv-x="407"
d="M157 200v454q0 19 13.5 32.5t32.5 13.5h68q19 0 32.5 -13.5t13.5 -32.5v-483q0 -89 -48 -136t-137 -47q-59 0 -109 25q-26 13 -26 38q0 11 6 24l18 41q13 28 39 28q11 0 23 -3q11 -3 22 -3h5q22 0 34.5 16t12.5 46z" />
    <glyph glyph-name="K" unicode="K" horiz-adv-x="688"
d="M250 333v-287q0 -19 -13.5 -32.5t-32.5 -13.5h-68q-19 0 -32.5 13.5t-13.5 32.5v608q0 19 13.5 32.5t32.5 13.5h68q19 0 32.5 -13.5t13.5 -32.5v-259l208 277q21 28 56 28h66q19 0 31.5 -13t12.5 -30q0 -15 -10 -28l-206 -252l229 -304q10 -13 10 -28q0 -18 -13 -31.5
t-33 -13.5h-77q-35 0 -56 29z" />
    <glyph glyph-name="L" unicode="L" horiz-adv-x="545"
d="M535 104v-58q0 -19 -13.5 -32.5t-32.5 -13.5h-353q-19 0 -32.5 13.5t-13.5 32.5v608q0 19 13.5 32.5t32.5 13.5h68q19 0 32.5 -13.5t13.5 -32.5v-504h239q19 0 32.5 -13.5t13.5 -32.5z" />
    <glyph glyph-name="M" unicode="M" horiz-adv-x="912"
d="M250 443v-397q0 -19 -13.5 -32.5t-32.5 -13.5h-68q-19 0 -32.5 13.5t-13.5 32.5v608q0 19 13.5 32.5t32.5 13.5h84q31 0 52 -28l195 -267l184 266q19 29 50 29h75q19 0 32.5 -13.5t13.5 -32.5v-608q0 -19 -13.5 -32.5t-32.5 -13.5h-68q-19 0 -32.5 13.5t-13.5 32.5v400
l-145 -204q-26 -35 -61 -35t-61 35z" />
    <glyph glyph-name="N" unicode="N" horiz-adv-x="790"
d="M596 700h58q19 0 32.5 -13.5t13.5 -32.5v-608q0 -19 -13.5 -32.5t-32.5 -13.5h-47q-36 0 -57 28l-310 392v-374q0 -19 -13.5 -32.5t-32.5 -13.5h-58q-19 0 -32.5 13.5t-13.5 32.5v608q0 19 13.5 32.5t32.5 13.5h47q36 0 57 -28l310 -394v376q0 19 13.5 32.5t32.5 13.5z
" />
    <glyph glyph-name="O" unicode="O" horiz-adv-x="824"
d="M40 350q0 155 103.5 258.5t268.5 103.5q163 0 267.5 -99t104.5 -263q0 -158 -105.5 -260t-266.5 -102q-163 0 -267.5 99t-104.5 263zM210 350q0 -90 59 -151t143 -61q96 0 149 59.5t53 152.5q0 94 -58 153t-144 59q-88 0 -145 -58.5t-57 -153.5z" />
    <glyph glyph-name="P" unicode="P" horiz-adv-x="627"
d="M304 702q149 0 216 -65.5t67 -166.5q0 -98 -71 -166.5t-188 -68.5q-53 0 -78 3v-192q0 -19 -13.5 -32.5t-32.5 -13.5h-68q-19 0 -32.5 13.5t-13.5 32.5v607q0 19 13.5 33t32.5 14q106 2 168 2zM250 550v-160q38 -5 73 -5q38 0 66 20t28 66q0 81 -97 81q-4 0 -70 -2z" />
    <glyph glyph-name="Q" unicode="Q" horiz-adv-x="824"
d="M623 -17l-38 42q-79 -37 -173 -37q-163 0 -267.5 99t-104.5 263q0 155 103.5 258.5t268.5 103.5q163 0 267.5 -99t104.5 -263q0 -142 -87 -240l29 -32q12 -14 12 -32q0 -20 -15 -34l-35 -32q-14 -12 -31 -12q-21 0 -34 15zM560 270l28 -33q26 49 26 113q0 94 -58 153
t-144 59q-88 0 -145 -58.5t-57 -153.5q0 -90 59 -151t143 -61q37 0 68 9l-25 29q-11 14 -11 31q0 22 16 35l35 32q13 12 31 12q20 0 34 -16z" />
    <glyph glyph-name="R" unicode="R" horiz-adv-x="669"
d="M459 29l-150 216h-59v-199q0 -19 -13.5 -32.5t-32.5 -13.5h-68q-19 0 -32.5 13.5t-13.5 32.5v608q0 19 13.5 32.5t32.5 13.5q136 2 192 2q136 0 197.5 -60t61.5 -164q0 -143 -118 -202l154 -208q9 -12 9 -25q0 -17 -12.5 -30t-31.5 -13h-74q-36 0 -55 29zM250 395h58
q109 0 109 81q0 76 -97 76q-4 0 -70 -2v-155z" />
    <glyph glyph-name="S" unicode="S" horiz-adv-x="557"
d="M53 132l29 42q14 21 37 21q17 0 31 -10q71 -47 126 -47q31 0 48.5 14.5t17.5 39.5q0 28 -30 50.5t-73 42.5t-86 45t-73 71t-30 109q0 84 62 143t164 59q101 0 173 -46q19 -12 19 -39q0 -13 -6 -24l-26 -44q-15 -24 -40 -24q-13 0 -27 8q-38 19 -79 19q-33 0 -51.5 -14
t-18.5 -38q0 -27 21.5 -48t54 -34.5t70.5 -33.5t70.5 -42.5t54 -63t21.5 -94.5q0 -90 -68.5 -148t-171.5 -58q-109 0 -212 80q-15 12 -15 35q0 18 8 29z" />
    <glyph glyph-name="T" unicode="T"
d="M334 0h-68q-19 0 -32.5 13.5t-13.5 32.5v504h-164q-19 0 -32.5 13.5t-13.5 32.5v58q0 19 13.5 32.5t32.5 13.5h488q19 0 32.5 -13.5t13.5 -32.5v-58q0 -19 -13.5 -32.5t-32.5 -13.5h-164v-504q0 -19 -13.5 -32.5t-32.5 -13.5z" />
    <glyph glyph-name="U" unicode="U" horiz-adv-x="751"
d="M511 321v333q0 19 13.5 32.5t32.5 13.5h68q19 0 32.5 -13.5t13.5 -32.5v-365q0 -151 -81.5 -226t-204.5 -75q-139 0 -222 79t-83 229v358q0 19 13.5 32.5t32.5 13.5h68q19 0 32.5 -13.5t13.5 -32.5v-324q0 -192 145 -192q69 0 97.5 46.5t28.5 136.5z" />
    <glyph glyph-name="V" unicode="V" horiz-adv-x="654"
d="M173 667l163 -429l156 429q5 14 18 23.5t29 9.5h61q18 0 31 -13t13 -31q0 -8 -3 -17l-236 -606q-13 -33 -48 -33h-53q-35 0 -48 33l-243 606q-3 7 -3 16q0 18 13 31.5t31 13.5h71q35 0 48 -33z" />
    <glyph glyph-name="W" unicode="W" horiz-adv-x="997"
d="M63 700h70q20 0 36.5 -12.5t21.5 -32.5l106 -397l118 398q6 20 22.5 32t36.5 12h69q20 0 37 -12.5t23 -31.5l121 -398l108 397q5 20 21.5 32.5t36.5 12.5h43q20 0 34.5 -15t14.5 -35q0 -5 -2 -13l-166 -592q-6 -20 -22.5 -32.5t-36.5 -12.5h-72q-34 0 -46 34l-135 416
l-133 -416q-12 -34 -46 -34h-72q-20 0 -36.5 12t-22.5 32l-175 593q-2 5 -2 15q0 20 14 34t34 14z" />
    <glyph glyph-name="X" unicode="X" horiz-adv-x="666"
d="M214 670l123 -195l118 195q18 30 53 30h65q20 0 34 -14t14 -33q0 -13 -8 -26l-176 -270l185 -284q8 -13 8 -26q0 -19 -14 -33t-34 -14h-65q-34 0 -54 30l-131 205l-129 -205q-20 -30 -54 -30h-65q-20 0 -34 14t-14 33q0 13 8 26l185 284l-174 269q-8 13 -8 26
q0 19 14 33.5t34 14.5h65q34 0 54 -30z" />
    <glyph glyph-name="Y" unicode="Y" horiz-adv-x="648"
d="M197 669l133 -234l131 234q16 31 52 31h50q21 0 35.5 -15t14.5 -35q0 -14 -7 -25l-203 -340v-239q0 -19 -13.5 -32.5t-32.5 -13.5h-68q-19 0 -32.5 13.5t-13.5 32.5v239l-201 340q-7 11 -7 25q0 20 14.5 35t35.5 15h60q36 0 52 -31z" />
    <glyph glyph-name="Z" unicode="Z" horiz-adv-x="650"
d="M40 46v31q0 27 28 63l313 410h-275q-19 0 -32.5 13.5t-13.5 32.5v58q0 19 13.5 32.5t32.5 13.5h448q19 0 32.5 -13.5t13.5 -32.5v-31q0 -27 -27 -63l-314 -410h305q19 0 32.5 -13.5t13.5 -32.5v-58q0 -19 -13.5 -32.5t-32.5 -13.5h-478q-19 0 -32.5 13.5t-13.5 32.5z" />
    <glyph glyph-name="bracketleft" unicode="[" horiz-adv-x="380"
d="M360 -108v-44q0 -20 -14 -34t-34 -14h-204q-20 0 -34 14t-14 34v754q0 20 14 34t34 14h204q20 0 34 -14t14 -34v-44q0 -20 -14 -34t-34 -14h-102v-570h102q20 0 34 -14t14 -34z" />
    <glyph glyph-name="backslash" unicode="\" horiz-adv-x="384"
d="M280 -163l-292 787q-3 9 -3 17q0 34 31 45l25 9q9 3 17 3q34 0 45 -31l293 -787q3 -9 3 -17q0 -34 -31 -45l-26 -9q-9 -3 -17 -3q-34 0 -45 31z" />
    <glyph glyph-name="bracketright" unicode="]" horiz-adv-x="380"
d="M20 558v44q0 20 14 34t34 14h204q20 0 34 -14t14 -34v-754q0 -20 -14 -34t-34 -14h-204q-20 0 -34 14t-14 34v44q0 20 14 34t34 14h102v570h-102q-20 0 -34 14t-14 34z" />
    <glyph glyph-name="asciicircum" unicode="^" horiz-adv-x="522"
d="M319 480l-58 80l-58 -80q-22 -30 -58 -30h-39q-19 0 -31.5 13t-12.5 31q0 13 9 25l117 159q22 30 59 30h30q36 0 59 -30l115 -158q9 -12 9 -26q0 -18 -12.5 -31t-31.5 -13h-39q-36 0 -58 30z" />
    <glyph glyph-name="underscore" unicode="_" horiz-adv-x="375"
d="M375 -98v-54q0 -20 -14.5 -34t-33.5 -14h-279q-20 0 -34 14t-14 34v54q0 20 14 34t34 14h279q19 0 33.5 -14t14.5 -34z" />
    <glyph glyph-name="grave" unicode="`" horiz-adv-x="342"
d="M206 691l49 -80q8 -14 8 -29q0 -28 -25 -47q-16 -12 -37 -12q-25 0 -44 19l-61 66q-13 15 -13 33q0 24 19 38l35 25q11 10 29 10q28 0 40 -23z" />
    <glyph glyph-name="a" unicode="a" horiz-adv-x="465"
d="M30 136q0 73 45.5 111t116.5 38q56 0 88 -25v9q0 68 -64 68q-36 0 -74 -11q-10 -2 -14 -2q-30 0 -39 26l-13 33q-3 7 -3 15q0 25 24 36q65 28 136 28q100 0 143.5 -48t43.5 -143v-233q0 -16 -11 -27t-27 -11h-54q-16 0 -27 11.5t-11 28.5q-34 -46 -118 -46
q-63 0 -102.5 37.5t-39.5 104.5zM280 142v28q-21 15 -57 15q-19 0 -31 -9t-12 -25q0 -15 12 -23.5t31 -8.5q40 0 57 23z" />
    <glyph glyph-name="b" unicode="b" horiz-adv-x="547"
d="M205 438q46 24 99 24q98 0 155.5 -64t57.5 -166q0 -112 -70 -178t-193 -66q-85 0 -171 35q-11 5 -19.5 17t-8.5 24v598q0 16 11 27t27 11h74q16 0 27 -11t11 -27v-224zM205 293v-152q24 -13 56 -13q42 0 69 25t27 70q0 49 -26.5 74t-62.5 25q-34 0 -63 -29z" />
    <glyph glyph-name="c" unicode="c" horiz-adv-x="487"
d="M356 304q-36 18 -69 18q-38 0 -67.5 -26t-29.5 -71q0 -43 30.5 -70t68.5 -27q35 0 70 22q13 9 28 9q19 0 31 -16l31 -41q8 -11 8 -24q0 -20 -16 -32q-71 -58 -161 -58q-114 0 -182 65t-68 172q0 100 66.5 168.5t171.5 68.5q92 0 157 -42q22 -14 22 -35q0 -10 -6 -19
l-29 -48q-12 -20 -34 -20q-12 0 -22 6z" />
    <glyph glyph-name="d" unicode="d" horiz-adv-x="557"
d="M502 662v-624q0 -16 -11 -27t-27 -11h-76q-15 0 -25.5 10.5t-10.5 26.5q-47 -45 -114 -45q-95 0 -151.5 62t-56.5 165q0 107 69 175t179 68q44 0 74 -14v214q0 16 11 27t27 11h74q16 0 27 -11t11 -27zM352 165v138q-33 19 -67 19q-39 0 -67 -25.5t-28 -72.5
q0 -43 24 -67.5t55 -24.5q47 0 83 33z" />
    <glyph glyph-name="e" unicode="e" horiz-adv-x="512"
d="M455 175h-270q20 -62 105 -62q46 0 81 13q11 4 22 4q25 0 35 -21l16 -32q4 -8 4 -18q0 -22 -18 -33q-68 -38 -156 -38q-111 0 -177.5 65t-66.5 172q0 101 67.5 169t176.5 68q90 0 154 -59.5t64 -152.5q0 -27 -3 -45q-1 -11 -12 -20.5t-22 -9.5zM342 275q0 25 -19.5 43.5
t-53.5 18.5q-67 0 -89 -62h162z" />
    <glyph glyph-name="f" unicode="f" horiz-adv-x="323"
d="M205 310v-272q0 -16 -11 -27t-27 -11h-74q-16 0 -27 11t-11 27v485q0 92 43.5 140.5t120.5 48.5q60 0 112 -26q22 -11 22 -33q0 -11 -5 -21l-24 -46q-11 -21 -30 -21q-5 0 -15 2q-21 5 -33 5q-41 0 -41 -58v-64h57q16 0 27 -11t11 -27v-64q0 -16 -11 -27t-27 -11h-57z
" />
    <glyph glyph-name="g" unicode="g" horiz-adv-x="510"
d="M253 109q0 -8 3 -17q98 -3 160 -41t62 -109q0 -74 -67 -112t-172 -38q-106 0 -172.5 37t-66.5 113q0 56 40 92t109 50q-6 12 -6 25q0 15 7 26q-52 21 -81.5 62.5t-29.5 91.5q0 71 54.5 122t144.5 51q66 0 115 -30l102 21q1 0 4 0.5t4 0.5q14 0 24.5 -9t13.5 -22l8 -40
q0 -1 0.5 -4t0.5 -4q0 -14 -9 -24.5t-22 -13.5l-47 -10q5 -22 5 -38q0 -67 -50.5 -115.5t-132.5 -53.5q-1 -4 -1 -11zM140 -58q0 -30 99 -30t99 30q0 31 -99 31t-99 -31zM179 289q0 -22 15.5 -35.5t43.5 -13.5q26 0 42.5 13t16.5 36t-15 38t-44 15q-27 0 -43 -15.5
t-16 -37.5z" />
    <glyph glyph-name="h" unicode="h" horiz-adv-x="544"
d="M205 289v-251q0 -16 -11 -27t-27 -11h-74q-16 0 -27 11t-11 27v624q0 16 11 27t27 11h74q16 0 27 -11t11 -27v-243q44 39 111 39q84 0 133.5 -47t49.5 -147v-226q0 -16 -11 -27t-27 -11h-74q-16 0 -27 11t-11 27v207q0 33 -20 53t-52 20q-43 0 -72 -29z" />
    <glyph glyph-name="i" unicode="i" horiz-adv-x="286"
d="M218 412v-374q0 -16 -11 -27t-27 -11h-74q-16 0 -27 11t-11 27v374q0 16 11 27t27 11h74q16 0 27 -11t11 -27zM55 605q0 39 26.5 62t64.5 23q34 0 59.5 -23.5t25.5 -61.5q0 -42 -25.5 -66.5t-59.5 -24.5q-39 0 -65 24t-26 67z" />
    <glyph glyph-name="j" unicode="j" horiz-adv-x="284"
d="M79 -19v431q0 16 11 27t27 11h74q16 0 27 -11t11 -27v-445q0 -175 -141 -175q-49 0 -93 16q-25 8 -25 35q0 3 2 13l17 53q8 25 32 25q8 0 12 -1q10 -2 18 -2q28 0 28 50zM67 605q0 39 26.5 62t64.5 23q34 0 59.5 -23.5t25.5 -61.5q0 -42 -25.5 -66.5t-59.5 -24.5
q-39 0 -65 24t-26 67z" />
    <glyph glyph-name="k" unicode="k" horiz-adv-x="534"
d="M205 215v-177q0 -16 -11 -27t-27 -11h-74q-16 0 -27 11t-11 27v624q0 16 11 27t27 11h74q16 0 27 -11t11 -27v-407l107 169q16 26 46 26h81q17 0 28.5 -12t11.5 -27q0 -12 -8 -23l-101 -141l124 -184q7 -10 7 -23q0 -16 -11.5 -28t-29.5 -12h-85q-31 0 -47 26z" />
    <glyph glyph-name="l" unicode="l" horiz-adv-x="309"
d="M55 129v533q0 16 11 27t27 11h74q16 0 27 -11t11 -27v-476q0 -32 5.5 -45t22.5 -13q2 0 11 0.5t16 0.5q23 0 31 -24l14 -44q2 -6 2 -15q0 -26 -27 -36q-56 -22 -107 -22q-118 0 -118 141z" />
    <glyph glyph-name="m" unicode="m" horiz-adv-x="798"
d="M205 410q51 48 133 48q49 0 82 -18.5t46 -47.5q54 66 145 66q142 0 142 -164v-256q0 -16 -11 -27t-27 -11h-74q-16 0 -27 11t-11 27v216q0 64 -56 64q-23 0 -41.5 -11t-26.5 -28v-241q0 -16 -11 -27t-27 -11h-74q-16 0 -27 11t-11 27v217q0 63 -53 63q-46 0 -71 -36v-244
q0 -16 -11 -27t-27 -11h-74q-16 0 -27 11t-11 27v374q0 16 11 27t27 11h74q16 0 27 -11.5t11 -28.5z" />
    <glyph glyph-name="n" unicode="n" horiz-adv-x="544"
d="M205 287v-249q0 -16 -11 -27t-27 -11h-74q-16 0 -27 11t-11 27v374q0 16 11 27t27 11h78q14 0 24 -10t10 -24q46 42 111 42q183 0 183 -190v-230q0 -16 -11 -27t-27 -11h-74q-16 0 -27 11t-11 27v204q0 38 -20 57t-54 19q-39 0 -70 -31z" />
    <glyph glyph-name="o" unicode="o" horiz-adv-x="560"
d="M30 225q0 103 68.5 170t181.5 67t181.5 -67t68.5 -170t-68.5 -170t-181.5 -67t-181.5 67t-68.5 170zM190 225q0 -42 25.5 -69.5t64.5 -27.5t64.5 26t25.5 71q0 43 -26 70t-64 27t-64 -26.5t-26 -70.5z" />
    <glyph glyph-name="p" unicode="p" horiz-adv-x="561"
d="M205 2v-164q0 -16 -11 -27t-27 -11h-74q-16 0 -27 11t-11 27v574q0 16 11 27t27 11h79q14 0 23.5 -10t9.5 -23q47 45 125 45q90 0 145.5 -64.5t55.5 -165.5q0 -105 -67 -174.5t-175 -69.5q-51 0 -84 14zM205 282v-137q29 -17 70 -17q47 0 71.5 28.5t24.5 72.5
q0 41 -23.5 67t-64.5 26q-42 0 -78 -40z" />
    <glyph glyph-name="q" unicode="q" horiz-adv-x="562"
d="M507 378v-540q0 -16 -11 -27t-27 -11h-74q-16 0 -27 11t-11 27v171q-47 -21 -90 -21q-109 0 -173 65t-64 172q0 100 73.5 168.5t189.5 68.5q100 0 187 -41q11 -5 19 -18t8 -25zM357 154v152q-34 16 -65 16q-53 0 -77.5 -29.5t-24.5 -74.5q0 -37 27 -63.5t70 -26.5t70 26z
" />
    <glyph glyph-name="r" unicode="r" horiz-adv-x="369"
d="M205 286v-248q0 -16 -11 -27t-27 -11h-74q-16 0 -27 11t-11 27v374q0 16 11 27t27 11h77q14 0 24.5 -10.5t10.5 -24.5q31 43 88 43q31 0 54 -7q25 -8 25 -32q0 -11 -4 -20l-29 -63q-11 -24 -40 -24q-5 0 -15 2q-16 4 -28 4q-33 0 -51 -32z" />
    <glyph glyph-name="s" unicode="s" horiz-adv-x="459"
d="M41 103l27 37q10 15 28 15q16 0 33 -10q57 -32 113 -32q34 0 34 20q0 13 -24.5 21.5t-59.5 17t-70 22t-59.5 44.5t-24.5 77q0 70 50 108.5t126 38.5q84 0 156 -37q21 -11 21 -36q0 -9 -4 -16l-20 -38q-13 -23 -37 -23q-5 0 -17 4q-48 21 -90 21q-16 0 -25.5 -6t-9.5 -14
q0 -12 24.5 -20.5t59.5 -16.5t70 -21.5t59.5 -43.5t24.5 -75q0 -69 -52.5 -110.5t-141.5 -41.5q-114 0 -184 59q-15 12 -15 31q0 14 8 25z" />
    <glyph glyph-name="t" unicode="t" horiz-adv-x="363"
d="M313 117l21 -41q4 -8 4 -18q0 -23 -21 -35q-61 -35 -132 -35q-74 0 -107 46.5t-33 136.5v366q0 16 11 27t27 11h74q16 0 27 -11t11 -27v-87h87q16 0 27 -11t11 -27v-64q0 -16 -11 -27t-27 -11h-87v-132q0 -50 33 -50q16 0 34 7q9 4 19 4q22 0 32 -22z" />
    <glyph glyph-name="u" unicode="u" horiz-adv-x="530"
d="M325 169v243q0 16 11 27t27 11h74q16 0 27 -11t11 -27v-374q0 -16 -11 -27t-27 -11h-74q-16 0 -27 12t-11 30q-48 -54 -129 -54q-62 0 -106.5 46t-44.5 133v245q0 16 11 27t27 11h74q16 0 27 -11t11 -27v-213q0 -30 14 -50.5t44 -20.5q39 0 72 41z" />
    <glyph glyph-name="v" unicode="v" horiz-adv-x="486"
d="M225 308q20 -48 30 -104q10 57 29 105l42 112q12 29 41 29h58q20 0 33.5 -14t13.5 -33q0 -10 -4 -18l-150 -357q-12 -28 -42 -28h-53q-30 0 -43 28l-162 358q-4 8 -4 19q0 18 13 31.5t32 13.5h78q30 0 42 -28z" />
    <glyph glyph-name="w" unicode="w" horiz-adv-x="735"
d="M510 245q5 -13 14 -59q6 43 11 61l42 173q7 30 37 30h62q19 0 31.5 -13t12.5 -31q0 -4 -2 -12l-113 -365q-9 -29 -39 -29h-77q-29 0 -41 28l-69 180q-2 5 -13 51q-4 -30 -14 -53l-69 -178q-12 -28 -41 -28h-69q-30 0 -39 29l-117 365q-2 8 -2 13q0 17 12.5 30t30.5 13h72
q29 0 38 -29l47 -177q3 -11 10 -57q6 37 13 57l58 177q4 13 15.5 21t24.5 8h74q30 0 40 -29z" />
    <glyph glyph-name="x" unicode="x" horiz-adv-x="530"
d="M213 423l55 -101l57 101q15 27 45 27h65q18 0 30 -12.5t12 -29.5q0 -13 -7 -23l-97 -149l108 -170q7 -10 7 -23q0 -18 -12.5 -30.5t-30.5 -12.5h-75q-30 0 -45 27l-63 115l-68 -116q-15 -26 -45 -26h-65q-18 0 -30 12.5t-12 29.5q0 13 7 23l106 163l-97 156q-7 11 -7 23
q0 18 12.5 30.5t30.5 12.5h75q31 0 44 -27z" />
    <glyph glyph-name="y" unicode="y" horiz-adv-x="515"
d="M256 244q6 -16 17 -62q4 40 11 63l51 176q9 29 38 29h71q20 0 34 -14.5t14 -33.5q0 -8 -3 -17l-150 -385q-48 -118 -86.5 -159t-95.5 -41q-48 0 -95 30q-16 11 -16 31q0 11 6 22l22 39q8 13 14 18.5t19 5.5q5 0 19 -4t24 -4q23 0 39 38l10 24l-172 386q-4 8 -4 19
q0 18 13 31.5t32 13.5h81q29 0 41 -29z" />
    <glyph glyph-name="z" unicode="z" horiz-adv-x="495"
d="M40 38v50q0 22 16 38l190 184h-153q-16 0 -27 11t-11 27v64q0 16 11 27t27 11h324q16 0 27 -11t11 -27v-50q0 -22 -16 -38l-191 -184h164q16 0 27 -11t11 -27v-64q0 -16 -11 -27t-27 -11h-334q-16 0 -27 11t-11 27z" />
    <glyph glyph-name="braceleft" unicode="{" horiz-adv-x="390"
d="M370 -98v-64q0 -16 -11 -27t-27 -11h-57q-82 0 -123.5 36.5t-41.5 120.5v105q0 72 -52 92q-22 8 -30 20t-8 35v31q0 24 7.5 35.5t30.5 22.5q52 23 52 102v85q0 86 40 125.5t137 39.5h45q16 0 27 -11t11 -27v-64q0 -16 -12 -27t-30 -11q-40 0 -54 -15.5t-14 -62.5v-92
q0 -48 -20.5 -78.5t-54.5 -35.5q75 -9 75 -114v-92q0 -44 15.5 -62t56.5 -18q16 0 27 -11t11 -27z" />
    <glyph glyph-name="bar" unicode="|" horiz-adv-x="350"
d="M250 662v-624q0 -16 -11 -27t-27 -11h-74q-16 0 -27 11t-11 27v624q0 16 11 27t27 11h74q16 0 27 -11t11 -27z" />
    <glyph glyph-name="braceright" unicode="}" horiz-adv-x="390"
d="M370 240v-31q0 -23 -8 -35t-30 -20q-52 -20 -52 -92v-105q0 -84 -41.5 -120.5t-123.5 -36.5h-57q-16 0 -27 11t-11 27v64q0 16 11.5 27t27.5 11q40 0 55.5 18t15.5 62v92q0 105 75 114q-34 5 -54.5 35.5t-20.5 78.5v92q0 47 -14 62.5t-54 15.5q-18 0 -30 11t-12 27v64
q0 16 11 27t27 11h45q97 0 137 -39.5t40 -125.5v-85q0 -79 52 -102q23 -11 30.5 -22.5t7.5 -35.5z" />
    <glyph glyph-name="asciitilde" unicode="~"
d="M575 375q0 -34 -29 -59q-65 -52 -124 -52q-42 0 -118 29t-108 29q-25 0 -64 -26q-20 -14 -39 -14q-25 0 -44 21q-13 13 -13 36q0 25 18 42q74 69 139 69q42 0 116.5 -29t110.5 -29q22 0 61 26q19 12 37 12q26 0 45 -22q12 -13 12 -33z" />
    <glyph glyph-name="uni00A0" unicode="&#xa0;" horiz-adv-x="200"
 />
    <glyph glyph-name="exclamdown" unicode="&#xa1;" horiz-adv-x="310"
d="M75 -198v338q0 19 13.5 32.5t32.5 13.5h68q19 0 32.5 -13.5t13.5 -32.5v-338q0 -19 -13.5 -32.5t-32.5 -13.5h-68q-19 0 -32.5 13.5t-13.5 32.5zM253 360q0 -36 -28 -65t-74 -29q-40 0 -67 29t-27 65q0 41 26.5 71.5t67.5 30.5q46 0 74 -30t28 -72z" />
    <glyph glyph-name="cent" unicode="&#xa2;" horiz-adv-x="597"
d="M411 304q-36 18 -69 18q-38 0 -67.5 -26t-29.5 -71q0 -43 30.5 -70t68.5 -27q35 0 70 22q14 9 28 9q19 0 31 -16l31 -41q8 -11 8 -24q0 -20 -16 -32q-49 -39 -101 -51v-77q0 -16 -11 -27t-27 -11h-74q-16 0 -27 11t-11 27v82q-75 23 -117.5 82t-42.5 143q0 79 43.5 140.5
t116.5 84.5v75q0 16 11 27t27 11h74q16 0 27 -11t11 -27v-69q43 -9 85 -36q22 -14 22 -35q0 -10 -6 -19l-29 -48q-12 -20 -34 -20q-11 0 -22 6z" />
    <glyph glyph-name="sterling" unicode="&#xa3;" horiz-adv-x="610"
d="M593 89q0 -23 -19 -37q-73 -55 -153 -55q-39 0 -114 26t-114 26q-28 0 -67 -27q-16 -12 -34 -12q-20 0 -37 18l-27 32q-11 14 -11 33q0 20 12 32q35 33 87 56q21 39 25 74h-44q-19 0 -32.5 13.5t-13.5 32.5v28q0 19 13.5 32.5t32.5 13.5h25q-2 4 -8.5 20.5l-9 22.5
t-7.5 21t-7 25t-4 24t-2 28q0 86 66.5 139.5t169.5 53.5q54 0 90 -11t75 -37q19 -13 19 -39q0 -15 -7 -25l-26 -41q-15 -23 -41 -23q-13 0 -26 7q-35 19 -77 19q-73 0 -73 -67q0 -21 17.5 -59t23.5 -58h104q19 0 32.5 -13.5t13.5 -32.5v-28q0 -19 -13.5 -32.5t-32.5 -13.5
h-105q-8 -30 -33 -66q17 -5 51 -17t60.5 -18.5t50.5 -6.5q36 0 69 18q14 8 28 8q25 0 41 -23l23 -33q9 -13 9 -28z" />
    <glyph glyph-name="currency" unicode="&#xa4;" horiz-adv-x="590"
d="M111 92q-25 0 -46 19q-19 19 -19 46t19 46l24 24q-28 50 -28 113q0 62 29 114l-25 25q-19 21 -19 47q0 27 19 46t46 19q26 0 46 -20l27 -27q48 23 111 23q59 0 110 -23l27 27q19 19 47 19t46 -19q19 -18 19 -46q0 -27 -19 -46l-25 -25q29 -52 29 -114q0 -60 -28 -113
l23 -23q20 -20 20 -46q0 -27 -19 -46t-46 -19q-26 0 -47 19l-25 25q-51 -24 -112 -24q-62 0 -112 24l-26 -26q-19 -19 -46 -19zM201 340q0 -42 25.5 -69.5t68.5 -27.5q46 0 70 27t24 70q0 46 -25 71.5t-69 25.5q-43 0 -68.5 -26t-25.5 -71z" />
    <glyph glyph-name="yen" unicode="&#xa5;" horiz-adv-x="593"
d="M106 225h110v60h-110q-19 0 -32.5 13.5t-13.5 32.5v28q0 19 13.5 32.5t32.5 13.5h47l-121 233q-5 10 -5 19q0 17 12.5 30t30.5 13h78q35 0 50 -32l105 -233l104 233q6 14 19.5 23t29.5 9h68q18 0 30 -12.5t12 -29.5q0 -10 -5 -20l-122 -233h49q19 0 32.5 -13.5
t13.5 -32.5v-28q0 -19 -13.5 -32.5t-32.5 -13.5h-112v-60h112q19 0 32.5 -13.5t13.5 -32.5v-28q0 -19 -13.5 -32.5t-32.5 -13.5h-112v-59q0 -19 -13.5 -32.5t-32.5 -13.5h-68q-19 0 -32.5 13.5t-13.5 32.5v59h-110q-19 0 -32.5 13.5t-13.5 32.5v28q0 19 13.5 32.5t32.5 13.5
z" />
    <glyph glyph-name="brokenbar" unicode="&#xa6;" horiz-adv-x="350"
d="M148 700h54q20 0 34 -14t14 -34v-164q0 -20 -14 -34t-34 -14h-54q-20 0 -34 14t-14 34v164q0 20 14 34t34 14zM202 0h-54q-20 0 -34 14t-14 34v164q0 20 14 34t34 14h54q20 0 34 -14t14 -34v-164q0 -20 -14 -34t-34 -14z" />
    <glyph glyph-name="section" unicode="&#xa7;" horiz-adv-x="524"
d="M203 -47q19 -13 35 -13q15 0 24.5 11.5t9.5 29.5q0 47 -58 83q-80 12 -122 63t-42 122q0 58 28 103t82 67q-60 67 -60 136q0 61 47 103t134 42q69 0 137 -50q14 -11 14 -27q0 -12 -11 -30l-32 -43q-13 -17 -29 -17q-12 0 -30 10q-31 17 -44 17q-17 0 -26.5 -11t-9.5 -29
q0 -47 57 -86q81 -12 124 -62.5t43 -122.5q0 -58 -28.5 -103t-82.5 -67q59 -65 59 -134q0 -61 -47 -103t-134 -42q-82 0 -133 51q-14 13 -14 31q0 14 10 26l38 43q14 15 28 15t33 -13zM200 249q0 -21 14.5 -39.5t47.5 -18.5q35 0 48.5 17.5t13.5 40.5q0 22 -14.5 40.5
t-47.5 18.5q-32 0 -47 -18.5t-15 -40.5z" />
    <glyph glyph-name="dieresis" unicode="&#xa8;" horiz-adv-x="471"
d="M142 503q-35 0 -58.5 23t-23.5 63q0 37 23.5 59t58.5 22q30 0 53 -22t23 -59q0 -40 -22.5 -63t-53.5 -23zM335 503q-35 0 -58.5 23t-23.5 63q0 37 24 59t58 22q31 0 53.5 -22t22.5 -59q0 -40 -22.5 -63t-53.5 -23z" />
    <glyph glyph-name="copyright" unicode="&#xa9;" horiz-adv-x="1018"
d="M70 221q0 185 127 312t312 127t312 -127t127 -312t-127 -312t-312 -127t-312 127t-127 312zM200 220q0 -128 88.5 -218t221.5 -90q131 0 219.5 90t88.5 218q0 130 -88 220t-220 90q-133 0 -221.5 -90t-88.5 -220zM680 46q-71 -58 -164 -58q-112 0 -179.5 65t-67.5 172
q0 100 66.5 168.5t171.5 68.5q92 0 157 -42q22 -14 22 -35q0 -10 -6 -19l-29 -48q-12 -20 -34 -20q-11 0 -22 6q-36 18 -69 18q-38 0 -67.5 -26t-29.5 -71q0 -43 30.5 -70t68.5 -27q35 0 70 22q14 9 28 9q19 0 31 -16l31 -41q8 -11 8 -24q0 -20 -16 -32z" />
    <glyph glyph-name="ordfeminine" unicode="&#xaa;" horiz-adv-x="465"
d="M40 399q0 61 34 92t98 31q58 0 101 -17q-9 43 -59 43q-16 0 -50 -6q-14 -2 -20 -2q-38 0 -50 37q-3 7 -3 16q0 16 11 29t26 18q54 18 112 18q66 0 115.5 -36.5t49.5 -106.5v-177q0 -20 -14.5 -34t-33.5 -14h-45q-15 0 -26 11t-11 27q-39 -44 -124 -44q-50 0 -80.5 33
t-30.5 82zM275 408v15q-32 9 -56 9q-39 0 -39 -19t40 -19q27 0 55 14z" />
    <glyph glyph-name="guillemotleft" unicode="&#xab;" horiz-adv-x="586"
d="M433 250l98 -115q11 -14 11 -31q0 -22 -17 -37l-28 -23q-12 -11 -31 -11q-24 0 -37 17l-138 163q-13 16 -13 37q0 22 13 36l143 165q13 16 35 16q19 0 32 -12l25 -23q16 -15 16 -37q0 -19 -11 -31zM199 250l98 -115q11 -14 11 -31q0 -22 -17 -37l-28 -23q-12 -11 -31 -11
q-24 0 -37 17l-138 163q-13 16 -13 37q0 22 13 36l143 165q13 16 35 16q19 0 32 -12l25 -23q16 -15 16 -37q0 -19 -11 -31z" />
    <glyph glyph-name="logicalnot" unicode="&#xac;"
d="M509 164h-34q-19 0 -33.5 14t-14.5 34v83h-336q-19 0 -33.5 14.5t-14.5 33.5v34q0 19 14.5 33.5t33.5 14.5h418q19 0 33.5 -14.5t14.5 -33.5v-165q0 -20 -14.5 -34t-33.5 -14z" />
    <glyph glyph-name="uni00AD" unicode="&#xad;" horiz-adv-x="364"
d="M314 297v-44q0 -19 -14 -33.5t-34 -14.5h-168q-20 0 -34 14.5t-14 33.5v44q0 19 14 33.5t34 14.5h168q20 0 34 -14.5t14 -33.5z" />
    <glyph glyph-name="registered" unicode="&#xae;" horiz-adv-x="708"
d="M377 397l-30 39h-16v-28q0 -20 -14.5 -34t-35.5 -14t-35.5 14t-14.5 34v184q0 20 14.5 34t33.5 14h88q59 0 89.5 -26t30.5 -72q0 -29 -14 -51.5t-32 -31.5l24 -30q11 -12 11 -28q0 -17 -13 -29t-30 -12q-13 0 -23.5 5.5t-16 11.5t-16.5 20zM331 506h19q37 0 37 34
q0 30 -35 30h-21v-64zM356 810q134 0 223 -89t89 -223q0 -136 -90.5 -226.5t-221.5 -90.5q-134 0 -225 90.5t-91 226.5q0 131 89.5 221.5t226.5 90.5zM356 301q84 0 138 53.5t54 143.5q0 84 -54 138.5t-138 54.5q-88 0 -142 -54t-54 -139q0 -91 55.5 -144t140.5 -53z" />
    <glyph glyph-name="macron" unicode="&#xaf;" horiz-adv-x="414"
d="M354 592v-24q0 -20 -14 -34t-34 -14h-198q-20 0 -34 14t-14 34v24q0 20 14 34t34 14h198q20 0 34 -14t14 -34z" />
    <glyph glyph-name="degree" unicode="&#xb0;" horiz-adv-x="440"
d="M218 390q-74 0 -126 51t-52 127q0 78 52 130t126 52q77 0 129.5 -49t52.5 -126q0 -76 -53.5 -130.5t-128.5 -54.5zM220 620q-20 0 -35 -15t-15 -35t15 -35t35 -15t35 15t15 35t-15 35t-35 15z" />
    <glyph glyph-name="plusminus" unicode="&#xb1;"
d="M331 312h-64q-16 0 -27 11t-11 27v45h-128q-16 0 -27 11t-11 27v54q0 16 11 27t27 11h128v133q0 16 11 27t27 11h64q16 0 27 -11t11 -27v-133h130q16 0 27 -11t11 -27v-54q0 -16 -11 -27t-27 -11h-130v-45q0 -16 -11 -27t-27 -11zM537 237v-54q0 -16 -11 -27t-27 -11
h-398q-16 0 -27 11t-11 27v54q0 16 11 27t27 11h398q16 0 27 -11t11 -27z" />
    <glyph glyph-name="twosuperior" unicode="&#xb2;" horiz-adv-x="376"
d="M351 415v-20q0 -19 -13 -32t-32 -13h-236q-19 0 -32 13t-13 32v22q0 26 32 45l53.5 30.5t42.5 27t33.5 28t10.5 23.5q0 23 -26 23q-12 0 -33 -21q-18 -18 -37 -18q-11 0 -23 6l-22 12q-21 11 -21 34q0 14 10 30q43 67 141 67q72 0 111 -30.5t39 -83.5q0 -28 -14 -51
t-40 -38.5t-44 -23.5t-45 -17h113q19 0 32 -13t13 -32z" />
    <glyph glyph-name="threesuperior" unicode="&#xb3;" horiz-adv-x="366"
d="M186 707q62 0 102 -24.5t40 -65.5q0 -66 -80 -81q44 -3 67.5 -25.5t23.5 -56.5q0 -50 -47.5 -80.5t-113.5 -30.5q-88 0 -134 41q-17 14 -17 39q0 19 12 33q17 18 38 18q19 0 39 -14q18 -12 39 -12q44 0 44 18q0 15 -45 15q-11 0 -19 7.5t-8 18.5v40q0 10 7.5 17t17.5 7
q36 0 36 18q0 13 -29 13q-21 0 -41 -10q-18 -9 -34 -9q-23 0 -39 23q-7 10 -7 23q0 25 24 42q51 36 124 36z" />
    <glyph glyph-name="acute" unicode="&#xb4;" horiz-adv-x="340"
d="M87 611l49 82q14 23 40 23q18 0 29 -10l33 -25q19 -15 19 -39q0 -18 -12 -32l-61 -68q-17 -19 -43 -19q-19 0 -36 12q-26 18 -26 48q0 14 8 28z" />
    <glyph glyph-name="mu" unicode="&#xb5;" horiz-adv-x="540"
d="M335 169v243q0 16 11 27t27 11h74q16 0 27 -11t11 -27v-374q0 -16 -11 -27t-27 -11h-74q-16 0 -27 12t-11 30q-48 -54 -130 -54v-150q0 -16 -11 -27t-27 -11h-74q-16 0 -27 11t-11 27v574q0 16 11 27t27 11h74q16 0 27 -11t11 -27v-213q0 -30 14 -50.5t44 -20.5
q39 0 72 41z" />
    <glyph glyph-name="mu" unicode="&#x3bc;" horiz-adv-x="540"
d="M335 169v243q0 16 11 27t27 11h74q16 0 27 -11t11 -27v-374q0 -16 -11 -27t-27 -11h-74q-16 0 -27 12t-11 30q-48 -54 -130 -54v-150q0 -16 -11 -27t-27 -11h-74q-16 0 -27 11t-11 27v574q0 16 11 27t27 11h74q16 0 27 -11t11 -27v-213q0 -30 14 -50.5t44 -20.5
q39 0 72 41z" />
    <glyph glyph-name="paragraph" unicode="&#xb6;" horiz-adv-x="521"
d="M147 -62q18 -6 40 -6q70 0 70 102v229q-91 1 -159 60.5t-68 157.5q0 99 65.5 159t163.5 60h196q19 0 32.5 -13.5t13.5 -32.5v-48q0 -19 -13.5 -32.5t-32.5 -13.5h-48v-532q0 -118 -54 -177t-155 -59q-67 0 -123 34q-24 15 -24 39q0 8 5 20l19 37q12 22 37 22q16 0 35 -6z
" />
    <glyph glyph-name="periodcentered" unicode="&#xb7;" horiz-adv-x="200"
d="M2 306q0 36 28 65t74 29q40 0 67 -29t27 -65q0 -41 -26.5 -71.5t-67.5 -30.5q-46 0 -74 30t-28 72z" />
    <glyph glyph-name="cedilla" unicode="&#xb8;" horiz-adv-x="404"
d="M238 -9v-17q106 -9 106 -90q0 -43 -38.5 -68.5t-112.5 -25.5q-61 0 -112 32q-19 12 -19 35q0 12 7 23q12 18 32 18q15 0 27 -7q26 -11 44 -11q22 0 22 13q0 7 -18 28q-13 16 -13 44v55h75v-29z" />
    <glyph glyph-name="onesuperior" unicode="&#xb9;" horiz-adv-x="283"
d="M93 398v154q-12 -6 -23 -6q-24 0 -41 23q-9 15 -9 31q0 26 21 40l57 40q29 20 61 20h11q23 0 38 -14t15 -34v-254q0 -20 -14.5 -34t-33.5 -14h-34q-19 0 -33.5 14t-14.5 34z" />
    <glyph glyph-name="ordmasculine" unicode="&#xba;" horiz-adv-x="522"
d="M261 284q-93 0 -152 51.5t-59 136.5t59 135.5t152 50.5t152 -50.5t59 -135.5t-59 -136.5t-152 -51.5zM261 538q-32 0 -51.5 -18t-19.5 -48q0 -32 20 -50t51 -18q33 0 52 18t19 50q0 30 -19.5 48t-51.5 18z" />
    <glyph glyph-name="guillemotright" unicode="&#xbb;" horiz-adv-x="586"
d="M293 432l25 23q14 12 32 12q22 0 35 -16l143 -165q14 -16 14 -37t-14 -38l-138 -161q-13 -17 -37 -17q-19 0 -31 11l-28 23q-17 15 -17 37q0 17 11 31l98 115l-98 114q-12 13 -12 31q0 22 17 37zM61 432l25 23q14 12 32 12q22 0 35 -16l143 -165q14 -16 14 -37t-14 -38
l-138 -161q-13 -17 -37 -17q-19 0 -31 11l-28 23q-17 15 -17 37q0 17 11 31l98 115l-98 114q-12 14 -12 31q0 22 17 37z" />
    <glyph glyph-name="onequarter" unicode="&#xbc;" horiz-adv-x="715"
d="M93 398v154q-12 -6 -23 -6q-24 0 -41 23q-9 15 -9 31q0 26 21 40l57 40q29 20 61 20h11q23 0 38 -14t15 -34v-254q0 -20 -14.5 -34t-33.5 -14h-34q-19 0 -33.5 14t-14.5 34zM590 611l-437 -585q-14 -19 -39 -19q-17 0 -33 11q-23 15 -23 41q0 14 9 26l439 589
q14 18 37 18q19 0 34 -11q23 -18 23 -42q0 -15 -10 -28zM639 61v-16q0 -19 -13 -32t-32 -13h-30q-19 0 -32 13t-13 32v16h-146q-19 0 -32 11.5t-13 31.5q0 9 1 16t7 18l8.5 15.5t14.5 24.5l89 142q23 36 55 36q23 0 35.5 -14t12.5 -34q0 -14 -8 -27l-75 -120h51v19
q0 19 13 32t32 13h30q19 0 32 -13t13 -32v-19q21 0 35 -13t14 -32v-10q0 -19 -14 -32t-35 -13z" />
    <glyph glyph-name="onehalf" unicode="&#xbd;" horiz-adv-x="714"
d="M93 398v154q-12 -6 -23 -6q-24 0 -41 23q-9 15 -9 31q0 26 21 40l57 40q29 20 61 20h11q23 0 38 -14t15 -34v-254q0 -20 -14.5 -34t-33.5 -14h-34q-19 0 -33.5 14t-14.5 34zM590 611l-437 -585q-14 -19 -39 -19q-17 0 -33 11q-23 15 -23 41q0 14 9 26l439 589
q14 18 37 18q19 0 34 -11q23 -18 23 -42q0 -15 -10 -28zM689 65v-20q0 -19 -13 -32t-32 -13h-236q-19 0 -32 13t-13 32v22q0 26 32 45l53.5 30.5t42.5 27t33.5 28t10.5 23.5q0 23 -26 23q-12 0 -33 -21q-18 -18 -37 -18q-11 0 -23 6l-22 12q-21 11 -21 34q0 14 10 30
q43 67 141 67q72 0 111 -30.5t39 -83.5q0 -28 -14 -51t-40 -38.5t-44 -23.5t-45 -17h113q19 0 32 -13t13 -32z" />
    <glyph glyph-name="threequarters" unicode="&#xbe;" horiz-adv-x="784"
d="M672 611l-437 -585q-14 -19 -39 -19q-17 0 -33 11q-23 15 -23 41q0 14 9 26l439 589q14 18 37 18q19 0 34 -11q23 -18 23 -42q0 -15 -10 -28zM708 61v-16q0 -19 -13 -32t-32 -13h-30q-19 0 -32 13t-13 32v16h-146q-19 0 -32 11.5t-13 31.5q0 9 1 16t7 18l8.5 15.5
t14.5 24.5l89 142q23 36 55 36q23 0 35.5 -14t12.5 -34q0 -14 -8 -27l-75 -120h51v19q0 19 13 32t32 13h30q19 0 32 -13t13 -32v-19q21 0 35 -13t14 -32v-10q0 -19 -14 -32t-35 -13zM193 707q62 0 102 -24.5t40 -65.5q0 -66 -80 -81q44 -3 67.5 -25.5t23.5 -56.5
q0 -50 -47.5 -80.5t-113.5 -30.5q-88 0 -134 41q-17 14 -17 39q0 19 12 33q17 18 38 18q19 0 39 -14q18 -12 39 -12q44 0 44 18q0 15 -45 15q-11 0 -19 7.5t-8 18.5v40q0 10 7.5 17t17.5 7q36 0 36 18q0 13 -29 13q-21 0 -41 -10q-18 -9 -34 -9q-23 0 -39 23q-7 10 -7 23
q0 25 24 42q51 36 124 36z" />
    <glyph glyph-name="questiondown" unicode="&#xbf;" horiz-adv-x="478"
d="M241 224h57q16 0 25 -11.5t9 -29.5q0 -7 -1 -10q-5 -35 -22.5 -61.5t-38 -42l-40 -30.5t-33 -35t-13.5 -48q0 -24 19.5 -43t46.5 -19q44 0 84 28q19 13 36 13q18 0 32 -13l29 -27q16 -13 16 -35q0 -18 -13 -32q-35 -40 -87 -62t-105 -22q-100 0 -159.5 51.5t-59.5 127.5
q0 45 13.5 77.5t34.5 53.5t43 38.5t44 43t33 57.5q6 19 17 25t33 6zM357 360q0 -36 -28 -65t-74 -29q-40 0 -67 29t-27 65q0 41 26.5 71.5t67.5 30.5q46 0 74 -30t28 -72z" />
    <glyph glyph-name="Agrave" unicode="&#xc0;" horiz-adv-x="721"
d="M494 147h-277l-45 -114q-13 -33 -48 -33h-61q-18 0 -30.5 13t-12.5 30q0 9 3 17l252 607q15 33 49 33h73q34 0 49 -33l252 -607q3 -8 3 -17q0 -17 -12.5 -30t-30.5 -13h-71q-35 0 -48 33zM356 495l-79 -198h157zM274 913l148 -74q27 -14 27 -45q0 -12 -4 -21
q-16 -33 -51 -33q-11 0 -16 2l-157 50q-14 4 -22.5 15.5t-8.5 25.5q0 7 4 17l18 41q11 27 42 27q11 0 20 -5z" />
    <glyph glyph-name="Aacute" unicode="&#xc1;" horiz-adv-x="721"
d="M494 147h-277l-45 -114q-13 -33 -48 -33h-61q-18 0 -30.5 13t-12.5 30q0 9 3 17l252 607q15 33 49 33h73q34 0 49 -33l252 -607q3 -8 3 -17q0 -17 -12.5 -30t-30.5 -13h-71q-35 0 -48 33zM356 495l-79 -198h157zM298 839l148 74q9 5 20 5q31 0 42 -27l18 -41q4 -10 4 -17
q0 -14 -8.5 -25.5t-22.5 -15.5l-157 -50q-9 -3 -18 -3q-35 0 -49 30q-5 13 -5 23q0 32 28 47z" />
    <glyph glyph-name="Acircumflex" unicode="&#xc2;" horiz-adv-x="721"
d="M494 147h-277l-45 -114q-13 -33 -48 -33h-61q-18 0 -30.5 13t-12.5 30q0 9 3 17l252 607q15 33 49 33h73q34 0 49 -33l252 -607q3 -8 3 -17q0 -17 -12.5 -30t-30.5 -13h-71q-35 0 -48 33zM356 495l-79 -198h157zM357 789l-85 -44q-12 -6 -23 -6q-31 0 -46 26q-8 13 -8 27
q0 26 22 40l109 73q15 9 31 9q18 0 31 -9l114 -71q21 -14 21 -39q0 -15 -9 -29q-18 -27 -47 -27q-13 0 -25 6z" />
    <glyph glyph-name="Atilde" unicode="&#xc3;" horiz-adv-x="721"
d="M494 147h-277l-45 -114q-13 -33 -48 -33h-61q-18 0 -30.5 13t-12.5 30q0 9 3 17l252 607q15 33 49 33h73q34 0 49 -33l252 -607q3 -8 3 -17q0 -17 -12.5 -30t-30.5 -13h-71q-35 0 -48 33zM356 495l-79 -198h157zM560 839q0 -21 -15 -37q-58 -59 -118 -59q-23 0 -67.5 22
t-72.5 22q-19 0 -42 -15q-23 -14 -38 -14q-20 0 -36 19q-13 14 -13 31q0 22 21 41q60 54 110 54q34 0 75.5 -21.5t60.5 -21.5q7 0 13 1t11.5 3.5t8.5 4.5l9 6t8 5q18 12 33 12q20 0 40 -21q12 -14 12 -32z" />
    <glyph glyph-name="Adieresis" unicode="&#xc4;" horiz-adv-x="721"
d="M494 147h-277l-45 -114q-13 -33 -48 -33h-61q-18 0 -30.5 13t-12.5 30q0 9 3 17l252 607q15 33 49 33h73q34 0 49 -33l252 -607q3 -8 3 -17q0 -17 -12.5 -30t-30.5 -13h-71q-35 0 -48 33zM356 495l-79 -198h157zM150 837q0 36 28 57t70 21q37 0 64 -21.5t27 -56.5
q0 -39 -27 -61.5t-64 -22.5q-42 0 -70 22t-28 62zM381 837q0 36 28.5 57t69.5 21q37 0 64 -21.5t27 -56.5q0 -39 -26.5 -61.5t-64.5 -22.5q-42 0 -70 22t-28 62z" />
    <glyph glyph-name="Aring" unicode="&#xc5;" horiz-adv-x="721"
d="M124 0h-61q-18 0 -30.5 13t-12.5 30q0 9 3 17l265 638q-85 29 -85 111q0 59 43.5 88.5t111.5 29.5q71 0 115.5 -29.5t44.5 -88.5q0 -81 -86 -110l266 -639q3 -8 3 -17q0 -17 -12.5 -30t-30.5 -13h-71q-35 0 -48 33l-45 114h-277l-45 -114q-13 -33 -48 -33zM356 495
l-79 -198h157zM313 809q0 -41 47 -41q48 0 48 41q0 38 -48 38q-47 0 -47 -38z" />
    <glyph glyph-name="AE" unicode="&#xc6;" horiz-adv-x="946"
d="M840 0h-333q-19 0 -32.5 13.5t-13.5 32.5v101h-215l-81 -118q-19 -29 -55 -29h-69q-18 0 -30 12.5t-12 29.5q0 11 8 24l435 605q21 29 56 29h332q19 0 32.5 -13.5t13.5 -32.5v-58q0 -19 -13.5 -32.5t-32.5 -13.5h-209v-123h179q19 0 32.5 -13.5t13.5 -32.5v-58
q0 -19 -13.5 -32.5t-32.5 -13.5h-179v-127h219q19 0 32.5 -13.5t13.5 -32.5v-58q0 -19 -13.5 -32.5t-32.5 -13.5zM461 457l-111 -160h111v160z" />
    <glyph glyph-name="Ccedilla" unicode="&#xc7;" horiz-adv-x="653"
d="M506 544q-46 18 -100 18q-85 0 -140.5 -56t-55.5 -156q0 -93 59 -152.5t153 -59.5q56 0 109 27q14 7 29 7q27 0 41 -24l24 -38q7 -12 7 -25q0 -26 -22 -42q-76 -53 -199 -55v-14q116 -9 116 -90q0 -42 -38.5 -68t-106.5 -26q-77 0 -139 38q-19 12 -19 36q0 12 7 23
q12 18 32 18q11 0 25 -7q32 -18 57 -18q22 0 22 13q0 8 -6 13q-17 11 -21 18.5t-4 27.5v42q-135 20 -215.5 116t-80.5 240q0 158 96 260t270 102q92 0 170 -39q24 -11 24 -39q0 -10 -5 -22l-22 -46q-12 -27 -43 -27q-11 0 -24 5z" />
    <glyph glyph-name="Egrave" unicode="&#xc8;" horiz-adv-x="575"
d="M515 104v-58q0 -19 -13.5 -32.5t-32.5 -13.5h-333q-19 0 -32.5 13.5t-13.5 32.5v608q0 19 13.5 32.5t32.5 13.5h323q19 0 32.5 -13.5t13.5 -32.5v-58q0 -19 -13.5 -32.5t-32.5 -13.5h-209v-123h179q19 0 32.5 -13.5t13.5 -32.5v-58q0 -19 -13.5 -32.5t-32.5 -13.5h-179
v-127h219q19 0 32.5 -13.5t13.5 -32.5zM216 913l148 -74q27 -14 27 -45q0 -12 -4 -21q-16 -33 -51 -33q-11 0 -16 2l-157 50q-14 4 -22.5 15.5t-8.5 25.5q0 7 4 17l18 41q11 27 42 27q11 0 20 -5z" />
    <glyph glyph-name="Eacute" unicode="&#xc9;" horiz-adv-x="575"
d="M515 104v-58q0 -19 -13.5 -32.5t-32.5 -13.5h-333q-19 0 -32.5 13.5t-13.5 32.5v608q0 19 13.5 32.5t32.5 13.5h323q19 0 32.5 -13.5t13.5 -32.5v-58q0 -19 -13.5 -32.5t-32.5 -13.5h-209v-123h179q19 0 32.5 -13.5t13.5 -32.5v-58q0 -19 -13.5 -32.5t-32.5 -13.5h-179
v-127h219q19 0 32.5 -13.5t13.5 -32.5zM250 839l148 74q9 5 20 5q31 0 42 -27l18 -41q4 -10 4 -17q0 -14 -8.5 -25.5t-22.5 -15.5l-157 -50q-9 -3 -18 -3q-35 0 -49 30q-5 13 -5 23q0 32 28 47z" />
    <glyph glyph-name="Ecircumflex" unicode="&#xca;" horiz-adv-x="575"
d="M515 104v-58q0 -19 -13.5 -32.5t-32.5 -13.5h-333q-19 0 -32.5 13.5t-13.5 32.5v608q0 19 13.5 32.5t32.5 13.5h323q19 0 32.5 -13.5t13.5 -32.5v-58q0 -19 -13.5 -32.5t-32.5 -13.5h-209v-123h179q19 0 32.5 -13.5t13.5 -32.5v-58q0 -19 -13.5 -32.5t-32.5 -13.5h-179
v-127h219q19 0 32.5 -13.5t13.5 -32.5zM295 789l-85 -44q-12 -6 -23 -6q-31 0 -46 26q-8 13 -8 27q0 26 22 40l109 73q15 9 31 9q17 0 31 -9l114 -71q21 -14 21 -39q0 -15 -9 -29q-18 -27 -47 -27q-13 0 -25 6z" />
    <glyph glyph-name="Edieresis" unicode="&#xcb;" horiz-adv-x="575"
d="M515 104v-58q0 -19 -13.5 -32.5t-32.5 -13.5h-333q-19 0 -32.5 13.5t-13.5 32.5v608q0 19 13.5 32.5t32.5 13.5h323q19 0 32.5 -13.5t13.5 -32.5v-58q0 -19 -13.5 -32.5t-32.5 -13.5h-209v-123h179q19 0 32.5 -13.5t13.5 -32.5v-58q0 -19 -13.5 -32.5t-32.5 -13.5h-179
v-127h219q19 0 32.5 -13.5t13.5 -32.5zM92 837q0 36 28 57t70 21q37 0 64 -21.5t27 -56.5q0 -39 -27 -61.5t-64 -22.5q-42 0 -70 22t-28 62zM323 837q0 36 28.5 57t69.5 21q37 0 64 -21.5t27 -56.5q0 -39 -26.5 -61.5t-64.5 -22.5q-42 0 -70 22t-28 62z" />
    <glyph glyph-name="Igrave" unicode="&#xcc;" horiz-adv-x="360"
d="M260 654v-608q0 -19 -13.5 -32.5t-32.5 -13.5h-68q-19 0 -32.5 13.5t-13.5 32.5v608q0 19 13.5 32.5t32.5 13.5h68q19 0 32.5 -13.5t13.5 -32.5zM86 913l148 -74q27 -14 27 -45q0 -12 -4 -21q-16 -33 -51 -33q-11 0 -16 2l-157 50q-14 4 -22.5 15.5t-8.5 25.5q0 7 4 17
l18 41q11 27 42 27q11 0 20 -5z" />
    <glyph glyph-name="Iacute" unicode="&#xcd;" horiz-adv-x="360"
d="M260 654v-608q0 -19 -13.5 -32.5t-32.5 -13.5h-68q-19 0 -32.5 13.5t-13.5 32.5v608q0 19 13.5 32.5t32.5 13.5h68q19 0 32.5 -13.5t13.5 -32.5zM130 839l148 74q9 5 20 5q31 0 42 -27l18 -41q4 -10 4 -17q0 -14 -8.5 -25.5t-22.5 -15.5l-157 -50q-9 -3 -18 -3
q-35 0 -49 30q-5 13 -5 23q0 32 28 47z" />
    <glyph glyph-name="Icircumflex" unicode="&#xce;" horiz-adv-x="360"
d="M260 654v-608q0 -19 -13.5 -32.5t-32.5 -13.5h-68q-19 0 -32.5 13.5t-13.5 32.5v608q0 19 13.5 32.5t32.5 13.5h68q19 0 32.5 -13.5t13.5 -32.5zM177 789l-85 -44q-12 -6 -23 -6q-31 0 -46 26q-8 13 -8 27q0 26 22 40l109 73q15 9 31 9q17 0 31 -9l114 -71q21 -14 21 -39
q0 -15 -9 -29q-18 -27 -47 -27q-13 0 -25 6z" />
    <glyph glyph-name="Idieresis" unicode="&#xcf;" horiz-adv-x="360"
d="M260 654v-608q0 -19 -13.5 -32.5t-32.5 -13.5h-68q-19 0 -32.5 13.5t-13.5 32.5v608q0 19 13.5 32.5t32.5 13.5h68q19 0 32.5 -13.5t13.5 -32.5zM-30 837q0 36 28 57t70 21q37 0 64 -21.5t27 -56.5q0 -39 -27 -61.5t-64 -22.5q-42 0 -70 22t-28 62zM201 837q0 36 28.5 57
t69.5 21q37 0 64 -21.5t27 -56.5q0 -39 -26.5 -61.5t-64.5 -22.5q-42 0 -70 22t-28 62z" />
    <glyph glyph-name="Eth" unicode="&#xd0;" horiz-adv-x="744"
d="M303 -2q-27 0 -167 2q-19 0 -32.5 14t-13.5 33v231h-34q-19 0 -32.5 13.5t-13.5 32.5v48q0 19 13.5 32.5t32.5 13.5h34v235q0 19 13.5 33t32.5 14q20 0 60.5 1t69.5 1.5t45 0.5q198 0 295.5 -98t97.5 -249q0 -155 -104.5 -256.5t-296.5 -101.5zM250 278v-128q21 -2 58 -2
q105 0 165.5 54.5t60.5 153.5q0 94 -62 145.5t-163 51.5q-39 0 -59 -3v-132h118q19 0 32.5 -13.5t13.5 -32.5v-48q0 -19 -13.5 -32.5t-32.5 -13.5h-118z" />
    <glyph glyph-name="Ntilde" unicode="&#xd1;" horiz-adv-x="790"
d="M596 700h58q19 0 32.5 -13.5t13.5 -32.5v-608q0 -19 -13.5 -32.5t-32.5 -13.5h-47q-36 0 -57 28l-310 392v-374q0 -19 -13.5 -32.5t-32.5 -13.5h-58q-19 0 -32.5 13.5t-13.5 32.5v608q0 19 13.5 32.5t32.5 13.5h47q36 0 57 -28l310 -394v376q0 19 13.5 32.5t32.5 13.5z
M603 839q0 -21 -15 -37q-58 -59 -118 -59q-23 0 -67.5 22t-72.5 22q-19 0 -42 -15q-23 -14 -38 -14q-20 0 -36 19q-13 14 -13 31q0 22 21 41q60 54 110 54q34 0 75.5 -21.5t60.5 -21.5q7 0 13 1t11.5 3.5t8.5 4.5l9 6t8 5q18 12 33 12q21 0 40 -21q12 -14 12 -32z" />
    <glyph glyph-name="Ograve" unicode="&#xd2;" horiz-adv-x="824"
d="M40 350q0 155 103.5 258.5t268.5 103.5q163 0 267.5 -99t104.5 -263q0 -158 -105.5 -260t-266.5 -102q-163 0 -267.5 99t-104.5 263zM210 350q0 -90 59 -151t143 -61q96 0 149 59.5t53 152.5q0 94 -58 153t-144 59q-88 0 -145 -58.5t-57 -153.5zM336 913l148 -74
q27 -14 27 -45q0 -12 -4 -21q-16 -33 -51 -33q-11 0 -16 2l-157 50q-14 4 -22.5 15.5t-8.5 25.5q0 7 4 17l18 41q11 27 42 27q11 0 20 -5z" />
    <glyph glyph-name="Oacute" unicode="&#xd3;" horiz-adv-x="824"
d="M40 350q0 155 103.5 258.5t268.5 103.5q163 0 267.5 -99t104.5 -263q0 -158 -105.5 -260t-266.5 -102q-163 0 -267.5 99t-104.5 263zM210 350q0 -90 59 -151t143 -61q96 0 149 59.5t53 152.5q0 94 -58 153t-144 59q-88 0 -145 -58.5t-57 -153.5zM370 839l148 74q9 5 20 5
q31 0 42 -27l18 -41q4 -10 4 -17q0 -14 -8.5 -25.5t-22.5 -15.5l-157 -50q-9 -3 -18 -3q-35 0 -49 30q-5 13 -5 23q0 32 28 47z" />
    <glyph glyph-name="Ocircumflex" unicode="&#xd4;" horiz-adv-x="824"
d="M40 350q0 155 103.5 258.5t268.5 103.5q163 0 267.5 -99t104.5 -263q0 -158 -105.5 -260t-266.5 -102q-163 0 -267.5 99t-104.5 263zM210 350q0 -90 59 -151t143 -61q96 0 149 59.5t53 152.5q0 94 -58 153t-144 59q-88 0 -145 -58.5t-57 -153.5zM412 789l-85 -44
q-12 -6 -23 -6q-31 0 -46 26q-8 13 -8 27q0 26 22 40l109 73q15 9 31 9q18 0 31 -9l114 -71q21 -14 21 -39q0 -15 -9 -29q-18 -27 -47 -27q-13 0 -25 6z" />
    <glyph glyph-name="Otilde" unicode="&#xd5;" horiz-adv-x="824"
d="M40 350q0 155 103.5 258.5t268.5 103.5q163 0 267.5 -99t104.5 -263q0 -158 -105.5 -260t-266.5 -102q-163 0 -267.5 99t-104.5 263zM210 350q0 -90 59 -151t143 -61q96 0 149 59.5t53 152.5q0 94 -58 153t-144 59q-88 0 -145 -58.5t-57 -153.5zM605 839q0 -21 -15 -37
q-58 -59 -118 -59q-23 0 -67.5 22t-72.5 22q-19 0 -42 -15q-23 -14 -38 -14q-20 0 -36 19q-13 14 -13 31q0 22 21 41q60 54 110 54q34 0 75.5 -21.5t60.5 -21.5q7 0 13 1t11.5 3.5t8.5 4.5l9 6t8 5q18 12 33 12q21 0 40 -21q12 -14 12 -32z" />
    <glyph glyph-name="Odieresis" unicode="&#xd6;" horiz-adv-x="824"
d="M40 350q0 155 103.5 258.5t268.5 103.5q163 0 267.5 -99t104.5 -263q0 -158 -105.5 -260t-266.5 -102q-163 0 -267.5 99t-104.5 263zM210 350q0 -90 59 -151t143 -61q96 0 149 59.5t53 152.5q0 94 -58 153t-144 59q-88 0 -145 -58.5t-57 -153.5zM197 837q0 36 28 57
t70 21q37 0 64 -21.5t27 -56.5q0 -39 -27 -61.5t-64 -22.5q-42 0 -70 22t-28 62zM428 837q0 36 28.5 57t69.5 21q37 0 64 -21.5t27 -56.5q0 -39 -26.5 -61.5t-64.5 -22.5q-42 0 -70 22t-28 62z" />
    <glyph glyph-name="multiply" unicode="&#xd7;" horiz-adv-x="580"
d="M134 180l-24 24q-14 14 -14 34t14 34l88 88l-87 87q-14 16 -14 34q0 20 14 34l24 24q14 14 34 14q21 0 34 -14l87 -87l87 87q14 14 34 14q21 0 34 -14l24 -24q14 -13 14 -34q0 -20 -14 -34l-87 -87l88 -88q14 -13 14 -34q0 -20 -14 -34l-24 -24q-14 -14 -34 -14
q-18 0 -34 14l-88 88l-88 -88q-14 -14 -34 -14q-18 0 -34 14z" />
    <glyph glyph-name="Oslash" unicode="&#xd8;" horiz-adv-x="824"
d="M106 54l-10 10q-15 15 -15 37q0 24 17 41q-58 89 -58 208q0 155 103.5 258.5t268.5 103.5q119 0 211 -56q17 15 37 15q22 0 35 -15l21 -21q12 -12 12 -30q0 -19 -13 -32q69 -91 69 -223q0 -158 -105.5 -260t-266.5 -102q-133 0 -228 66q-16 -16 -39 -16q-24 0 -39 16z
M591 453l-288 -282q49 -33 109 -33q96 0 149 59.5t53 152.5q0 57 -23 103zM225 267l280 273q-44 22 -93 22q-88 0 -145 -58.5t-57 -153.5q0 -46 15 -83z" />
    <glyph glyph-name="Ugrave" unicode="&#xd9;" horiz-adv-x="751"
d="M511 321v333q0 19 13.5 32.5t32.5 13.5h68q19 0 32.5 -13.5t13.5 -32.5v-365q0 -151 -81.5 -226t-204.5 -75q-139 0 -222 79t-83 229v358q0 19 13.5 32.5t32.5 13.5h68q19 0 32.5 -13.5t13.5 -32.5v-324q0 -192 145 -192q69 0 97.5 46.5t28.5 136.5zM286 913l148 -74
q27 -14 27 -45q0 -12 -4 -21q-16 -33 -51 -33q-11 0 -16 2l-157 50q-14 4 -22.5 15.5t-8.5 25.5q0 7 4 17l18 41q11 27 42 27q11 0 20 -5z" />
    <glyph glyph-name="Uacute" unicode="&#xda;" horiz-adv-x="751"
d="M511 321v333q0 19 13.5 32.5t32.5 13.5h68q19 0 32.5 -13.5t13.5 -32.5v-365q0 -151 -81.5 -226t-204.5 -75q-139 0 -222 79t-83 229v358q0 19 13.5 32.5t32.5 13.5h68q19 0 32.5 -13.5t13.5 -32.5v-324q0 -192 145 -192q69 0 97.5 46.5t28.5 136.5zM330 839l148 74
q9 5 20 5q31 0 42 -27l18 -41q4 -10 4 -17q0 -14 -8.5 -25.5t-22.5 -15.5l-157 -50q-9 -3 -18 -3q-35 0 -49 30q-5 13 -5 23q0 32 28 47z" />
    <glyph glyph-name="Ucircumflex" unicode="&#xdb;" horiz-adv-x="751"
d="M511 321v333q0 19 13.5 32.5t32.5 13.5h68q19 0 32.5 -13.5t13.5 -32.5v-365q0 -151 -81.5 -226t-204.5 -75q-139 0 -222 79t-83 229v358q0 19 13.5 32.5t32.5 13.5h68q19 0 32.5 -13.5t13.5 -32.5v-324q0 -192 145 -192q69 0 97.5 46.5t28.5 136.5zM371 789l-85 -44
q-12 -6 -23 -6q-31 0 -46 26q-8 13 -8 27q0 26 22 40l109 73q15 9 31 9q17 0 31 -9l114 -71q21 -14 21 -39q0 -15 -9 -29q-18 -27 -47 -27q-13 0 -25 6z" />
    <glyph glyph-name="Udieresis" unicode="&#xdc;" horiz-adv-x="751"
d="M511 321v333q0 19 13.5 32.5t32.5 13.5h68q19 0 32.5 -13.5t13.5 -32.5v-365q0 -151 -81.5 -226t-204.5 -75q-139 0 -222 79t-83 229v358q0 19 13.5 32.5t32.5 13.5h68q19 0 32.5 -13.5t13.5 -32.5v-324q0 -192 145 -192q69 0 97.5 46.5t28.5 136.5zM157 837q0 36 28 57
t70 21q37 0 64 -21.5t27 -56.5q0 -39 -27 -61.5t-64 -22.5q-42 0 -70 22t-28 62zM388 837q0 36 28.5 57t69.5 21q37 0 64 -21.5t27 -56.5q0 -39 -26.5 -61.5t-64.5 -22.5q-42 0 -70 22t-28 62z" />
    <glyph glyph-name="Yacute" unicode="&#xdd;" horiz-adv-x="648"
d="M197 669l133 -234l131 234q16 31 52 31h50q21 0 35.5 -15t14.5 -35q0 -14 -7 -25l-203 -340v-239q0 -19 -13.5 -32.5t-32.5 -13.5h-68q-19 0 -32.5 13.5t-13.5 32.5v239l-201 340q-7 11 -7 25q0 20 14.5 35t35.5 15h60q36 0 52 -31zM277 839l148 74q9 5 20 5q31 0 42 -27
l18 -41q4 -10 4 -17q0 -14 -8.5 -25.5t-22.5 -15.5l-157 -50q-9 -3 -18 -3q-35 0 -49 30q-5 13 -5 23q0 32 28 47z" />
    <glyph glyph-name="Thorn" unicode="&#xde;" horiz-adv-x="627"
d="M304 602q149 0 216 -65.5t67 -166.5q0 -98 -71 -166.5t-188 -68.5q-53 0 -78 3v-92q0 -19 -13.5 -32.5t-32.5 -13.5h-68q-19 0 -32.5 13.5t-13.5 32.5v608q0 19 13.5 32.5t32.5 13.5h68q19 0 32.5 -13.5t13.5 -32.5v-54q4 0 26 1t28 1zM250 448v-158q38 -5 73 -5
q38 0 66 20t28 66q0 81 -111 81q-28 0 -56 -4z" />
    <glyph glyph-name="germandbls" unicode="&#xdf;" horiz-adv-x="556"
d="M233 72l20 42q10 22 29 22q5 0 12.5 -2t8.5 -2q17 -4 30 -4h8q15 0 25 9.5t10 29.5q0 23 -22.5 45t-49 38.5t-49 46.5t-22.5 67q0 41 17.5 74t34.5 56t17 40q0 16 -13.5 27t-35.5 11q-29 0 -41 -21.5t-12 -68.5v-444q0 -16 -11 -27t-27 -11h-74q-16 0 -27 11t-11 27v455
q0 219 225 219q80 0 133.5 -43.5t53.5 -105.5q0 -34 -11 -59.5t-23.5 -37.5t-23.5 -31t-11 -41q0 -23 14.5 -41.5t35.5 -33t42.5 -32.5t36 -50t14.5 -75q0 -71 -45.5 -122.5t-118.5 -51.5q-67 0 -125 37q-18 13 -18 32q0 5 4 15z" />
    <glyph glyph-name="agrave" unicode="&#xe0;" horiz-adv-x="465"
d="M30 136q0 73 45.5 111t116.5 38q56 0 88 -25v9q0 68 -64 68q-36 0 -74 -11q-10 -2 -14 -2q-30 0 -39 26l-13 33q-3 7 -3 15q0 25 24 36q65 28 136 28q100 0 143.5 -48t43.5 -143v-233q0 -16 -11 -27t-27 -11h-54q-16 0 -27 11.5t-11 28.5q-34 -46 -118 -46
q-63 0 -102.5 37.5t-39.5 104.5zM280 142v28q-21 15 -57 15q-19 0 -31 -9t-12 -25q0 -15 12 -23.5t31 -8.5q40 0 57 23zM257 691l49 -80q8 -14 8 -29q0 -28 -25 -47q-17 -12 -37 -12q-25 0 -44 19l-61 66q-13 15 -13 33q0 24 19 38l35 25q11 10 29 10q28 0 40 -23z" />
    <glyph glyph-name="aacute" unicode="&#xe1;" horiz-adv-x="465"
d="M30 136q0 73 45.5 111t116.5 38q56 0 88 -25v9q0 68 -64 68q-36 0 -74 -11q-10 -2 -14 -2q-30 0 -39 26l-13 33q-3 7 -3 15q0 25 24 36q65 28 136 28q100 0 143.5 -48t43.5 -143v-233q0 -16 -11 -27t-27 -11h-54q-16 0 -27 11.5t-11 28.5q-34 -46 -118 -46
q-63 0 -102.5 37.5t-39.5 104.5zM280 142v28q-21 15 -57 15q-19 0 -31 -9t-12 -25q0 -15 12 -23.5t31 -8.5q40 0 57 23zM171 611l49 82q14 23 40 23q18 0 29 -10l33 -25q19 -15 19 -39q0 -18 -12 -32l-61 -68q-17 -19 -43 -19q-19 0 -36 12q-26 18 -26 48q0 14 8 28z" />
    <glyph glyph-name="acircumflex" unicode="&#xe2;" horiz-adv-x="465"
d="M30 136q0 73 45.5 111t116.5 38q56 0 88 -25v9q0 68 -64 68q-36 0 -74 -11q-10 -2 -14 -2q-30 0 -39 26l-13 33q-3 7 -3 15q0 25 24 36q65 28 136 28q100 0 143.5 -48t43.5 -143v-233q0 -16 -11 -27t-27 -11h-54q-16 0 -27 11.5t-11 28.5q-34 -46 -118 -46
q-63 0 -102.5 37.5t-39.5 104.5zM280 142v28q-21 15 -57 15q-19 0 -31 -9t-12 -25q0 -15 12 -23.5t31 -8.5q40 0 57 23zM231 563l-56 -44q-15 -12 -34 -12q-28 0 -43 21q-12 15 -12 34q0 27 22 44l80 65q19 15 44 15q26 0 45 -16l79 -64q20 -16 20 -44q0 -21 -12 -36
q-16 -21 -43 -21q-21 0 -35 13z" />
    <glyph glyph-name="atilde" unicode="&#xe3;" horiz-adv-x="465"
d="M30 136q0 73 45.5 111t116.5 38q56 0 88 -25v9q0 68 -64 68q-36 0 -74 -11q-10 -2 -14 -2q-30 0 -39 26l-13 33q-3 7 -3 15q0 25 24 36q65 28 136 28q100 0 143.5 -48t43.5 -143v-233q0 -16 -11 -27t-27 -11h-54q-16 0 -27 11.5t-11 28.5q-34 -46 -118 -46
q-63 0 -102.5 37.5t-39.5 104.5zM280 142v28q-21 15 -57 15q-19 0 -31 -9t-12 -25q0 -15 12 -23.5t31 -8.5q40 0 57 23zM413 611q0 -25 -19 -44q-32 -30 -54.5 -41t-49.5 -11q-22 0 -63.5 20.5t-64.5 20.5q-11 0 -32 -14q-19 -13 -36 -13q-21 0 -34 16q-11 13 -11 28
q0 23 20 43q28 28 49.5 38t49.5 10q24 0 65.5 -18.5t61.5 -18.5q9 0 36 17q19 12 35 12q21 0 39 -21q8 -9 8 -24z" />
    <glyph glyph-name="adieresis" unicode="&#xe4;" horiz-adv-x="465"
d="M30 136q0 73 45.5 111t116.5 38q56 0 88 -25v9q0 68 -64 68q-36 0 -74 -11q-10 -2 -14 -2q-30 0 -39 26l-13 33q-3 7 -3 15q0 25 24 36q65 28 136 28q100 0 143.5 -48t43.5 -143v-233q0 -16 -11 -27t-27 -11h-54q-16 0 -27 11.5t-11 28.5q-34 -46 -118 -46
q-63 0 -102.5 37.5t-39.5 104.5zM280 142v28q-21 15 -57 15q-19 0 -31 -9t-12 -25q0 -15 12 -23.5t31 -8.5q40 0 57 23zM149 503q-35 0 -58.5 23t-23.5 63q0 37 23.5 59t58.5 22q30 0 53 -22t23 -59q0 -40 -22.5 -63t-53.5 -23zM342 503q-35 0 -58.5 23t-23.5 63q0 37 24 59
t58 22q31 0 53.5 -22t22.5 -59q0 -40 -22.5 -63t-53.5 -23z" />
    <glyph glyph-name="aring" unicode="&#xe5;" horiz-adv-x="465"
d="M30 136q0 73 45.5 111t116.5 38q56 0 88 -25v9q0 68 -64 68q-36 0 -74 -11q-10 -2 -14 -2q-30 0 -39 26l-13 33q-3 7 -3 15q0 25 24 36q65 28 136 28q100 0 143.5 -48t43.5 -143v-233q0 -16 -11 -27t-27 -11h-54q-16 0 -27 11.5t-11 28.5q-34 -46 -118 -46
q-63 0 -102.5 37.5t-39.5 104.5zM280 142v28q-21 15 -57 15q-19 0 -31 -9t-12 -25q0 -15 12 -23.5t31 -8.5q40 0 57 23zM244 484q-59 0 -98 37t-39 90q0 54 39 91.5t98 37.5q60 0 99.5 -37.5t39.5 -91.5q0 -53 -39.5 -90t-99.5 -37zM246 660q-20 0 -32 -13.5t-12 -33.5
q0 -21 12 -35t32 -14q19 0 30.5 14t11.5 35q0 20 -11.5 33.5t-30.5 13.5z" />
    <glyph glyph-name="ae" unicode="&#xe6;" horiz-adv-x="742"
d="M420 275h152q-3 26 -21.5 44t-54.5 18h-2q-51 0 -75 -42q0 -3 0.5 -9.5t0.5 -10.5zM278 139l2 31q-21 15 -57 15q-20 0 -31.5 -10t-11.5 -24q0 -12 10.5 -22t32.5 -10q28 0 55 20zM420 161q10 -21 38 -34.5t66 -13.5q46 0 81 13q11 4 22 4q25 0 35 -21l16 -32q4 -8 4 -18
q0 -22 -18 -33q-68 -38 -156 -38q-102 0 -166 50q-68 -48 -144 -48q-83 0 -125.5 39.5t-42.5 114.5q0 64 44.5 102.5t117.5 38.5q23 0 50 -8t38 -17q1 4 1 12q0 30 -17 48t-40 18q-40 0 -82 -12q-10 -2 -14 -2q-30 0 -39 26l-13 33q-3 7 -3 15q0 25 24 36q65 28 136 28
q88 0 132 -38q60 38 139 38q90 0 154 -59.5t64 -152.5q0 -27 -3 -45q-2 -11 -12.5 -20.5t-21.5 -9.5h-265v-14z" />
    <glyph glyph-name="ccedilla" unicode="&#xe7;" horiz-adv-x="487"
d="M356 304q-36 18 -69 18q-38 0 -67.5 -26t-29.5 -71q0 -43 30.5 -70t68.5 -27q35 0 70 22q13 9 28 9q19 0 31 -16l31 -41q8 -11 8 -24q0 -20 -16 -32q-62 -50 -137 -57v-15q106 -9 106 -90q0 -43 -38.5 -68.5t-112.5 -25.5q-61 0 -112 32q-19 12 -19 35q0 12 7 23
q12 18 32 18q15 0 27 -7q26 -11 44 -11q22 0 22 13q0 7 -18 28q-13 16 -13 44v27q-92 14 -145.5 76.5t-53.5 156.5q0 100 66.5 168.5t171.5 68.5q92 0 157 -42q22 -14 22 -35q0 -10 -6 -19l-29 -48q-12 -20 -34 -20q-12 0 -22 6z" />
    <glyph glyph-name="egrave" unicode="&#xe8;" horiz-adv-x="512"
d="M455 175h-270q20 -62 105 -62q46 0 81 13q11 4 22 4q25 0 35 -21l16 -32q4 -8 4 -18q0 -22 -18 -33q-68 -38 -156 -38q-111 0 -177.5 65t-66.5 172q0 101 67.5 169t176.5 68q90 0 154 -59.5t64 -152.5q0 -27 -3 -45q-1 -11 -12 -20.5t-22 -9.5zM342 275q0 25 -19.5 43.5
t-53.5 18.5q-67 0 -89 -62h162zM302 691l49 -80q8 -14 8 -29q0 -28 -25 -47q-16 -12 -37 -12q-25 0 -44 19l-61 66q-13 15 -13 33q0 24 19 38l35 25q11 10 29 10q28 0 40 -23z" />
    <glyph glyph-name="eacute" unicode="&#xe9;" horiz-adv-x="512"
d="M455 175h-270q20 -62 105 -62q46 0 81 13q11 4 22 4q25 0 35 -21l16 -32q4 -8 4 -18q0 -22 -18 -33q-68 -38 -156 -38q-111 0 -177.5 65t-66.5 172q0 101 67.5 169t176.5 68q90 0 154 -59.5t64 -152.5q0 -27 -3 -45q-1 -11 -12 -20.5t-22 -9.5zM342 275q0 25 -19.5 43.5
t-53.5 18.5q-67 0 -89 -62h162zM216 611l49 82q14 23 40 23q18 0 29 -10l33 -25q19 -15 19 -39q0 -18 -12 -32l-61 -68q-17 -19 -43 -19q-20 0 -36 12q-26 18 -26 48q0 14 8 28z" />
    <glyph glyph-name="ecircumflex" unicode="&#xea;" horiz-adv-x="512"
d="M455 175h-270q20 -62 105 -62q46 0 81 13q11 4 22 4q25 0 35 -21l16 -32q4 -8 4 -18q0 -22 -18 -33q-68 -38 -156 -38q-111 0 -177.5 65t-66.5 172q0 101 67.5 169t176.5 68q90 0 154 -59.5t64 -152.5q0 -27 -3 -45q-1 -11 -12 -20.5t-22 -9.5zM342 275q0 25 -19.5 43.5
t-53.5 18.5q-67 0 -89 -62h162zM266 563l-56 -44q-15 -12 -34 -12q-28 0 -43 21q-12 15 -12 34q0 27 22 44l80 65q19 15 44 15q26 0 45 -16l79 -64q20 -16 20 -44q0 -21 -12 -36q-17 -21 -43 -21q-21 0 -35 13z" />
    <glyph glyph-name="edieresis" unicode="&#xeb;" horiz-adv-x="512"
d="M455 175h-270q20 -62 105 -62q46 0 81 13q11 4 22 4q25 0 35 -21l16 -32q4 -8 4 -18q0 -22 -18 -33q-68 -38 -156 -38q-111 0 -177.5 65t-66.5 172q0 101 67.5 169t176.5 68q90 0 154 -59.5t64 -152.5q0 -27 -3 -45q-1 -11 -12 -20.5t-22 -9.5zM342 275q0 25 -19.5 43.5
t-53.5 18.5q-67 0 -89 -62h162zM177 503q-35 0 -58.5 23t-23.5 63q0 37 23.5 59t58.5 22q30 0 53 -22t23 -59q0 -40 -22.5 -63t-53.5 -23zM370 503q-35 0 -58.5 23t-23.5 63q0 37 24 59t58 22q31 0 53.5 -22t22.5 -59q0 -40 -22.5 -63t-53.5 -23z" />
    <glyph glyph-name="igrave" unicode="&#xec;" horiz-adv-x="286"
d="M218 412v-374q0 -16 -11 -27t-27 -11h-74q-16 0 -27 11t-11 27v374q0 16 11 27t27 11h74q16 0 27 -11t11 -27zM132 691l49 -80q8 -14 8 -29q0 -28 -25 -47q-16 -12 -37 -12q-25 0 -44 19l-61 66q-13 15 -13 33q0 24 19 38l35 25q11 10 29 10q28 0 40 -23z" />
    <glyph glyph-name="iacute" unicode="&#xed;" horiz-adv-x="286"
d="M218 412v-374q0 -16 -11 -27t-27 -11h-74q-16 0 -27 11t-11 27v374q0 16 11 27t27 11h74q16 0 27 -11t11 -27zM76 611l49 82q14 23 40 23q18 0 29 -10l33 -25q19 -15 19 -39q0 -18 -12 -32l-61 -68q-17 -19 -43 -19q-20 0 -36 12q-26 18 -26 48q0 14 8 28z" />
    <glyph glyph-name="icircumflex" unicode="&#xee;" horiz-adv-x="286"
d="M218 412v-374q0 -16 -11 -27t-27 -11h-74q-16 0 -27 11t-11 27v374q0 16 11 27t27 11h74q16 0 27 -11t11 -27zM143 563l-56 -44q-15 -12 -34 -12q-28 0 -43 21q-12 15 -12 34q0 27 22 44l80 65q20 15 44 15q26 0 45 -16l79 -64q20 -16 20 -44q0 -21 -12 -36
q-16 -21 -43 -21q-21 0 -35 13z" />
    <glyph glyph-name="idieresis" unicode="&#xef;" horiz-adv-x="286"
d="M218 412v-374q0 -16 -11 -27t-27 -11h-74q-16 0 -27 11t-11 27v374q0 16 11 27t27 11h74q16 0 27 -11t11 -27zM50 503q-35 0 -58.5 23t-23.5 63q0 37 23.5 59t58.5 22q30 0 53 -22t23 -59q0 -40 -22.5 -63t-53.5 -23zM243 503q-35 0 -58.5 23t-23.5 63q0 37 24 59t58 22
q31 0 53.5 -22t22.5 -59q0 -40 -22.5 -63t-53.5 -23z" />
    <glyph glyph-name="eth" unicode="&#xf0;" horiz-adv-x="560"
d="M30 225q0 103 68.5 170t181.5 67q28 0 54 -12q-12 29 -32 60l-84 -26q-8 -2 -11 -2q-12 0 -22.5 8t-14.5 20l-20 60q-2 8 -2 11q0 12 8 22.5t20 14.5l29 9l-6 6t-6 5q-13 12 -13 30q0 14 9 26l23 31q14 16 33 16q13 0 23 -7q77 -53 86 -62l63 20q8 2 11 2q12 0 22.5 -8
t14.5 -20l19 -60q2 -8 2 -11q0 -28 -28 -38l-10 -3q82 -141 82 -287q0 -132 -67 -205.5t-183 -73.5q-113 0 -181.5 67t-68.5 170zM190 225q0 -42 25.5 -69.5t64.5 -27.5q41 0 66 32t25 88q0 16 -1 25q-22 49 -90 49q-38 0 -64 -26.5t-26 -70.5z" />
    <glyph glyph-name="ntilde" unicode="&#xf1;" horiz-adv-x="544"
d="M205 287v-249q0 -16 -11 -27t-27 -11h-74q-16 0 -27 11t-11 27v374q0 16 11 27t27 11h78q14 0 24 -10t10 -24q46 42 111 42q183 0 183 -190v-230q0 -16 -11 -27t-27 -11h-74q-16 0 -27 11t-11 27v204q0 38 -20 57t-54 19q-39 0 -70 -31zM456 611q0 -25 -19 -44
q-32 -30 -54.5 -41t-49.5 -11q-22 0 -63.5 20.5t-64.5 20.5q-11 0 -32 -14q-19 -13 -36 -13q-21 0 -34 16q-11 13 -11 28q0 23 20 43q28 28 49.5 38t49.5 10q24 0 65.5 -18.5t61.5 -18.5q9 0 36 17q20 12 35 12q21 0 39 -21q8 -9 8 -24z" />
    <glyph glyph-name="ograve" unicode="&#xf2;" horiz-adv-x="560"
d="M30 225q0 103 68.5 170t181.5 67t181.5 -67t68.5 -170t-68.5 -170t-181.5 -67t-181.5 67t-68.5 170zM190 225q0 -42 25.5 -69.5t64.5 -27.5t64.5 26t25.5 71q0 43 -26 70t-64 27t-64 -26.5t-26 -70.5zM289 691l49 -80q8 -14 8 -29q0 -28 -25 -47q-17 -12 -37 -12
q-25 0 -44 19l-61 66q-13 15 -13 33q0 24 19 38l35 25q11 10 29 10q28 0 40 -23z" />
    <glyph glyph-name="oacute" unicode="&#xf3;" horiz-adv-x="560"
d="M30 225q0 103 68.5 170t181.5 67t181.5 -67t68.5 -170t-68.5 -170t-181.5 -67t-181.5 67t-68.5 170zM190 225q0 -42 25.5 -69.5t64.5 -27.5t64.5 26t25.5 71q0 43 -26 70t-64 27t-64 -26.5t-26 -70.5zM223 611l49 82q14 23 40 23q18 0 29 -10l33 -25q19 -15 19 -39
q0 -18 -12 -32l-61 -68q-17 -19 -43 -19q-19 0 -36 12q-26 18 -26 48q0 14 8 28z" />
    <glyph glyph-name="ocircumflex" unicode="&#xf4;" horiz-adv-x="560"
d="M30 225q0 103 68.5 170t181.5 67t181.5 -67t68.5 -170t-68.5 -170t-181.5 -67t-181.5 67t-68.5 170zM190 225q0 -42 25.5 -69.5t64.5 -27.5t64.5 26t25.5 71q0 43 -26 70t-64 27t-64 -26.5t-26 -70.5zM282 563l-56 -44q-15 -12 -34 -12q-28 0 -43 21q-12 15 -12 34
q0 27 22 44l80 65q19 15 44 15q26 0 45 -16l79 -64q20 -16 20 -44q0 -21 -12 -36q-17 -21 -43 -21q-21 0 -35 13z" />
    <glyph glyph-name="otilde" unicode="&#xf5;" horiz-adv-x="560"
d="M30 225q0 103 68.5 170t181.5 67t181.5 -67t68.5 -170t-68.5 -170t-181.5 -67t-181.5 67t-68.5 170zM190 225q0 -42 25.5 -69.5t64.5 -27.5t64.5 26t25.5 71q0 43 -26 70t-64 27t-64 -26.5t-26 -70.5zM464 611q0 -25 -19 -44q-32 -30 -54.5 -41t-49.5 -11
q-22 0 -63.5 20.5t-64.5 20.5q-11 0 -32 -14q-19 -13 -36 -13q-21 0 -34 16q-11 13 -11 28q0 23 20 43q28 28 49.5 38t49.5 10q24 0 65.5 -18.5t61.5 -18.5q9 0 36 17q20 12 35 12q21 0 39 -21q8 -9 8 -24z" />
    <glyph glyph-name="odieresis" unicode="&#xf6;" horiz-adv-x="560"
d="M30 225q0 103 68.5 170t181.5 67t181.5 -67t68.5 -170t-68.5 -170t-181.5 -67t-181.5 67t-68.5 170zM190 225q0 -42 25.5 -69.5t64.5 -27.5t64.5 26t25.5 71q0 43 -26 70t-64 27t-64 -26.5t-26 -70.5zM195 503q-35 0 -58.5 23t-23.5 63q0 37 23.5 59t58.5 22q30 0 53 -22
t23 -59q0 -40 -22.5 -63t-53.5 -23zM388 503q-35 0 -58.5 23t-23.5 63q0 37 24 59t58 22q31 0 53.5 -22t22.5 -59q0 -40 -22.5 -63t-53.5 -23z" />
    <glyph glyph-name="divide" unicode="&#xf7;"
d="M213 550q0 33 23.5 58t63.5 25q38 0 61.5 -25.5t23.5 -57.5q0 -36 -23 -62.5t-62 -26.5q-41 0 -64 26.5t-23 62.5zM213 172q0 32 23.5 57.5t63.5 25.5q37 0 61 -26t24 -57q0 -36 -23 -62.5t-62 -26.5q-41 0 -64 26t-23 63zM537 377v-34q0 -19 -14.5 -33.5t-33.5 -14.5
h-378q-19 0 -33.5 14.5t-14.5 33.5v34q0 19 14.5 33.5t33.5 14.5h378q19 0 33.5 -14.5t14.5 -33.5z" />
    <glyph glyph-name="oslash" unicode="&#xf8;" horiz-adv-x="580"
d="M550 225q0 -102 -73 -169.5t-187 -67.5q-94 0 -159 45q-13 -11 -28 -11q-21 0 -35 16q-9 12 -9 25q0 16 12 28q-41 56 -41 134q0 102 73 169.5t187 67.5q87 0 154 -43q12 11 29 11q22 0 35 -16q9 -10 9 -24q0 -16 -12 -26q45 -61 45 -139zM385 258l-138 -123q17 -7 43 -7
q46 0 73 26t27 71q0 16 -5 33zM193 198l134 118q-17 6 -37 6q-44 0 -72 -26t-28 -71q0 -13 3 -27z" />
    <glyph glyph-name="ugrave" unicode="&#xf9;" horiz-adv-x="530"
d="M325 169v243q0 16 11 27t27 11h74q16 0 27 -11t11 -27v-374q0 -16 -11 -27t-27 -11h-74q-16 0 -27 12t-11 30q-48 -54 -129 -54q-62 0 -106.5 46t-44.5 133v245q0 16 11 27t27 11h74q16 0 27 -11t11 -27v-213q0 -30 14 -50.5t44 -20.5q39 0 72 41zM269 691l49 -80
q8 -14 8 -29q0 -28 -25 -47q-16 -12 -37 -12q-25 0 -44 19l-61 66q-13 15 -13 33q0 24 19 38l35 25q11 10 29 10q28 0 40 -23z" />
    <glyph glyph-name="uacute" unicode="&#xfa;" horiz-adv-x="530"
d="M325 169v243q0 16 11 27t27 11h74q16 0 27 -11t11 -27v-374q0 -16 -11 -27t-27 -11h-74q-16 0 -27 12t-11 30q-48 -54 -129 -54q-62 0 -106.5 46t-44.5 133v245q0 16 11 27t27 11h74q16 0 27 -11t11 -27v-213q0 -30 14 -50.5t44 -20.5q39 0 72 41zM213 611l49 82
q14 23 40 23q18 0 29 -10l33 -25q19 -15 19 -39q0 -18 -12 -32l-61 -68q-17 -19 -43 -19q-19 0 -36 12q-26 18 -26 48q0 14 8 28z" />
    <glyph glyph-name="ucircumflex" unicode="&#xfb;" horiz-adv-x="530"
d="M325 169v243q0 16 11 27t27 11h74q16 0 27 -11t11 -27v-374q0 -16 -11 -27t-27 -11h-74q-16 0 -27 12t-11 30q-48 -54 -129 -54q-62 0 -106.5 46t-44.5 133v245q0 16 11 27t27 11h74q16 0 27 -11t11 -27v-213q0 -30 14 -50.5t44 -20.5q39 0 72 41zM265 563l-56 -44
q-15 -12 -34 -12q-28 0 -43 21q-12 15 -12 34q0 27 22 44l80 65q19 15 44 15q26 0 45 -16l79 -64q20 -16 20 -44q0 -21 -12 -36q-16 -21 -43 -21q-21 0 -35 13z" />
    <glyph glyph-name="udieresis" unicode="&#xfc;" horiz-adv-x="530"
d="M325 169v243q0 16 11 27t27 11h74q16 0 27 -11t11 -27v-374q0 -16 -11 -27t-27 -11h-74q-16 0 -27 12t-11 30q-48 -54 -129 -54q-62 0 -106.5 46t-44.5 133v245q0 16 11 27t27 11h74q16 0 27 -11t11 -27v-213q0 -30 14 -50.5t44 -20.5q39 0 72 41zM168 503
q-35 0 -58.5 23t-23.5 63q0 37 23.5 59t58.5 22q30 0 53 -22t23 -59q0 -40 -22.5 -63t-53.5 -23zM361 503q-35 0 -58.5 23t-23.5 63q0 37 24 59t58 22q31 0 53.5 -22t22.5 -59q0 -40 -22.5 -63t-53.5 -23z" />
    <glyph glyph-name="yacute" unicode="&#xfd;" horiz-adv-x="515"
d="M256 244q6 -16 17 -62q4 40 11 63l51 176q9 29 38 29h71q20 0 34 -14.5t14 -33.5q0 -8 -3 -17l-150 -385q-48 -118 -86.5 -159t-95.5 -41q-48 0 -95 30q-16 11 -16 31q0 11 6 22l22 39q8 13 14 18.5t19 5.5q5 0 19 -4t24 -4q23 0 39 38l10 24l-172 386q-4 8 -4 19
q0 18 13 31.5t32 13.5h81q29 0 41 -29zM194 611l49 82q14 23 40 23q18 0 29 -10l33 -25q19 -15 19 -39q0 -18 -12 -32l-61 -68q-17 -19 -43 -19q-20 0 -36 12q-26 18 -26 48q0 14 8 28z" />
    <glyph glyph-name="thorn" unicode="&#xfe;" horiz-adv-x="561"
d="M205 2v-164q0 -16 -11 -27t-27 -11h-74q-16 0 -27 11t-11 27v824q0 16 11 27t27 11h74q16 0 27 -11t11 -27v-238q51 38 125 38q90 0 145.5 -64.5t55.5 -165.5q0 -105 -67 -174.5t-175 -69.5q-51 0 -84 14zM205 282v-137q29 -17 70 -17q47 0 71.5 28.5t24.5 72.5
q0 41 -23.5 67t-64.5 26q-42 0 -78 -40z" />
    <glyph glyph-name="ydieresis" unicode="&#xff;" horiz-adv-x="515"
d="M256 244q6 -16 17 -62q4 40 11 63l51 176q9 29 38 29h71q20 0 34 -14.5t14 -33.5q0 -8 -3 -17l-150 -385q-48 -118 -86.5 -159t-95.5 -41q-48 0 -95 30q-16 11 -16 31q0 11 6 22l22 39q8 13 14 18.5t19 5.5q5 0 19 -4t24 -4q23 0 39 38l10 24l-172 386q-4 8 -4 19
q0 18 13 31.5t32 13.5h81q29 0 41 -29zM172 503q-35 0 -58.5 23t-23.5 63q0 37 23.5 59t58.5 22q30 0 53 -22t23 -59q0 -40 -22.5 -63t-53.5 -23zM365 503q-35 0 -58.5 23t-23.5 63q0 37 24 59t58 22q31 0 53.5 -22t22.5 -59q0 -40 -22.5 -63t-53.5 -23z" />
    <glyph glyph-name="Amacron" unicode="&#x100;" horiz-adv-x="721"
d="M494 147h-277l-45 -114q-13 -33 -48 -33h-61q-18 0 -30.5 13t-12.5 30q0 9 3 17l252 607q15 33 49 33h73q34 0 49 -33l252 -607q3 -8 3 -17q0 -17 -12.5 -30t-30.5 -13h-71q-35 0 -48 33zM356 495l-79 -198h157zM517 822v-24q0 -20 -14.5 -34t-33.5 -14h-218
q-19 0 -33.5 14t-14.5 34v24q0 20 14.5 34t33.5 14h218q19 0 33.5 -14t14.5 -34z" />
    <glyph glyph-name="amacron" unicode="&#x101;" horiz-adv-x="465"
d="M30 136q0 73 45.5 111t116.5 38q56 0 88 -25v9q0 68 -64 68q-36 0 -74 -11q-10 -2 -14 -2q-30 0 -39 26l-13 33q-3 7 -3 15q0 25 24 36q65 28 136 28q100 0 143.5 -48t43.5 -143v-233q0 -16 -11 -27t-27 -11h-54q-16 0 -27 11.5t-11 28.5q-34 -46 -118 -46
q-63 0 -102.5 37.5t-39.5 104.5zM280 142v28q-21 15 -57 15q-19 0 -31 -9t-12 -25q0 -15 12 -23.5t31 -8.5q40 0 57 23zM385 592v-24q0 -20 -14.5 -34t-33.5 -14h-198q-19 0 -33.5 14t-14.5 34v24q0 20 14.5 34t33.5 14h198q19 0 33.5 -14t14.5 -34z" />
    <glyph glyph-name="Abreve" unicode="&#x102;" horiz-adv-x="721"
d="M494 147h-277l-45 -114q-13 -33 -48 -33h-61q-18 0 -30.5 13t-12.5 30q0 9 3 17l252 607q15 33 49 33h73q34 0 49 -33l252 -607q3 -8 3 -17q0 -17 -12.5 -30t-30.5 -13h-71q-35 0 -48 33zM356 495l-79 -198h157zM258 890q46 -30 108 -30t108 30q20 14 38 14q19 0 38 -17
q16 -15 16 -38q0 -18 -11 -31q-77 -88 -189 -88t-189 88q-11 13 -11 31q0 23 16 38q19 17 38 17q18 0 38 -14z" />
    <glyph glyph-name="abreve" unicode="&#x103;" horiz-adv-x="465"
d="M30 136q0 73 45.5 111t116.5 38q56 0 88 -25v9q0 68 -64 68q-36 0 -74 -11q-10 -2 -14 -2q-30 0 -39 26l-13 33q-3 7 -3 15q0 25 24 36q65 28 136 28q100 0 143.5 -48t43.5 -143v-233q0 -16 -11 -27t-27 -11h-54q-16 0 -27 11.5t-11 28.5q-34 -46 -118 -46
q-63 0 -102.5 37.5t-39.5 104.5zM280 142v28q-21 15 -57 15q-19 0 -31 -9t-12 -25q0 -15 12 -23.5t31 -8.5q40 0 57 23zM159 651q31 -21 71 -21t71 21q22 15 41 15q20 0 36 -16q14 -14 14 -34q0 -19 -13 -34q-67 -73 -149 -73t-149 73q-13 15 -13 34q0 20 14 34q16 16 36 16
q19 0 41 -15z" />
    <glyph glyph-name="Aogonek" unicode="&#x104;" horiz-adv-x="721"
d="M494 147h-277l-45 -114q-13 -33 -48 -33h-61q-18 0 -30.5 13t-12.5 30q0 9 3 17l252 607q15 33 49 33h73q34 0 49 -33l252 -607q3 -8 3 -17q0 -17 -12.5 -30t-30.5 -13h-20q-30 -2 -50 -19.5t-20 -34.5q0 -26 30 -26q9 0 21.5 2.5t20.5 2.5q31 0 44 -28q7 -15 7 -28
q0 -28 -31 -47q-41 -22 -97 -22q-63 0 -104 24t-41 71q0 44 37.5 74t97.5 44q-9 8 -14 20zM356 495l-79 -198h157z" />
    <glyph glyph-name="aogonek" unicode="&#x105;" horiz-adv-x="465"
d="M30 136q0 73 45.5 111t116.5 38q56 0 88 -25v9q0 68 -64 68q-36 0 -74 -11q-10 -2 -14 -2q-30 0 -39 26l-13 33q-3 7 -3 15q0 25 24 36q65 28 136 28q100 0 143.5 -48t43.5 -143v-233q0 -16 -11 -27t-27 -11h-16q-15 -2 -24 -19.5t-9 -34.5q0 -26 30 -26q24 0 34.5 -1
t22 -9t17.5 -24q4 -9 4 -22q0 -34 -32 -49q-34 -15 -81 -15q-63 0 -104 24t-41 71q0 41 35 70.5t85 44.5q-13 11 -13 30q-34 -46 -118 -46q-63 0 -102.5 37.5t-39.5 104.5zM280 142v28q-21 15 -57 15q-19 0 -31 -9t-12 -25q0 -15 12 -23.5t31 -8.5q40 0 57 23z" />
    <glyph glyph-name="Cacute" unicode="&#x106;" horiz-adv-x="653"
d="M506 544q-46 18 -100 18q-85 0 -140.5 -56t-55.5 -156q0 -93 59 -152.5t153 -59.5q56 0 109 27q14 7 29 7q27 0 41 -24l24 -38q7 -12 7 -25q0 -26 -22 -42q-80 -55 -203 -55q-163 0 -265 99.5t-102 262.5q0 158 96 260t270 102q92 0 170 -39q24 -11 24 -39q0 -10 -5 -22
l-22 -46q-12 -27 -43 -27q-11 0 -24 5zM330 839l148 74q9 5 20 5q31 0 42 -27l18 -41q4 -10 4 -17q0 -14 -8.5 -25.5t-22.5 -15.5l-157 -50q-9 -3 -18 -3q-35 0 -49 30q-5 13 -5 23q0 32 28 47z" />
    <glyph glyph-name="cacute" unicode="&#x107;" horiz-adv-x="487"
d="M356 304q-36 18 -69 18q-38 0 -67.5 -26t-29.5 -71q0 -43 30.5 -70t68.5 -27q35 0 70 22q13 9 28 9q19 0 31 -16l31 -41q8 -11 8 -24q0 -20 -16 -32q-71 -58 -161 -58q-114 0 -182 65t-68 172q0 100 66.5 168.5t171.5 68.5q92 0 157 -42q22 -14 22 -35q0 -10 -6 -19
l-29 -48q-12 -20 -34 -20q-12 0 -22 6zM206 611l49 82q14 23 40 23q18 0 29 -10l33 -25q19 -15 19 -39q0 -18 -12 -32l-61 -68q-17 -19 -43 -19q-20 0 -36 12q-26 18 -26 48q0 14 8 28z" />
    <glyph glyph-name="Ccircumflex" unicode="&#x108;" horiz-adv-x="653"
d="M506 544q-46 18 -100 18q-85 0 -140.5 -56t-55.5 -156q0 -93 59 -152.5t153 -59.5q56 0 109 27q14 7 29 7q27 0 41 -24l24 -38q7 -12 7 -25q0 -26 -22 -42q-80 -55 -203 -55q-163 0 -265 99.5t-102 262.5q0 158 96 260t270 102q92 0 170 -39q24 -11 24 -39q0 -10 -5 -22
l-22 -46q-12 -27 -43 -27q-11 0 -24 5zM382 789l-85 -44q-12 -6 -23 -6q-31 0 -46 26q-8 13 -8 27q0 26 22 40l109 73q15 9 31 9q18 0 31 -9l114 -71q21 -14 21 -39q0 -15 -9 -29q-18 -27 -47 -27q-13 0 -25 6z" />
    <glyph glyph-name="ccircumflex" unicode="&#x109;" horiz-adv-x="487"
d="M356 304q-36 18 -69 18q-38 0 -67.5 -26t-29.5 -71q0 -43 30.5 -70t68.5 -27q35 0 70 22q13 9 28 9q19 0 31 -16l31 -41q8 -11 8 -24q0 -20 -16 -32q-71 -58 -161 -58q-114 0 -182 65t-68 172q0 100 66.5 168.5t171.5 68.5q92 0 157 -42q22 -14 22 -35q0 -10 -6 -19
l-29 -48q-12 -20 -34 -20q-12 0 -22 6zM276 563l-56 -44q-15 -12 -34 -12q-28 0 -43 21q-12 15 -12 34q0 27 22 44l80 65q19 15 44 15q26 0 45 -16l79 -64q20 -16 20 -44q0 -21 -12 -36q-16 -21 -43 -21q-21 0 -35 13z" />
    <glyph glyph-name="Cdotaccent" unicode="&#x10a;" horiz-adv-x="653"
d="M506 544q-46 18 -100 18q-85 0 -140.5 -56t-55.5 -156q0 -93 59 -152.5t153 -59.5q56 0 109 27q14 7 29 7q27 0 41 -24l24 -38q7 -12 7 -25q0 -26 -22 -42q-80 -55 -203 -55q-163 0 -265 99.5t-102 262.5q0 158 96 260t270 102q92 0 170 -39q24 -11 24 -39q0 -10 -5 -22
l-22 -46q-12 -27 -43 -27q-11 0 -24 5zM284 845q0 41 29.5 65.5t71.5 24.5q39 0 67.5 -25t28.5 -65q0 -44 -28.5 -70t-67.5 -26q-43 0 -72 25.5t-29 70.5z" />
    <glyph glyph-name="cdotaccent" unicode="&#x10b;" horiz-adv-x="487"
d="M356 304q-36 18 -69 18q-38 0 -67.5 -26t-29.5 -71q0 -43 30.5 -70t68.5 -27q35 0 70 22q13 9 28 9q19 0 31 -16l31 -41q8 -11 8 -24q0 -20 -16 -32q-71 -58 -161 -58q-114 0 -182 65t-68 172q0 100 66.5 168.5t171.5 68.5q92 0 157 -42q22 -14 22 -35q0 -10 -6 -19
l-29 -48q-12 -20 -34 -20q-12 0 -22 6zM180 605q0 39 26.5 62t64.5 23q34 0 59.5 -23.5t25.5 -61.5q0 -42 -25.5 -66.5t-59.5 -24.5q-39 0 -65 24t-26 67z" />
    <glyph glyph-name="Ccaron" unicode="&#x10c;" horiz-adv-x="653"
d="M506 544q-46 18 -100 18q-85 0 -140.5 -56t-55.5 -156q0 -93 59 -152.5t153 -59.5q56 0 109 27q14 7 29 7q27 0 41 -24l24 -38q7 -12 7 -25q0 -26 -22 -42q-80 -55 -203 -55q-163 0 -265 99.5t-102 262.5q0 158 96 260t270 102q92 0 170 -39q24 -11 24 -39q0 -10 -5 -22
l-22 -46q-12 -27 -43 -27q-11 0 -24 5zM387 859l85 51q14 7 26 7q28 0 43 -23q7 -11 7 -27q0 -27 -22 -42l-98 -65q-18 -12 -42 -12t-43 12l-100 63q-22 14 -22 41q0 16 9 29q16 24 46 24q15 0 26 -7z" />
    <glyph glyph-name="ccaron" unicode="&#x10d;" horiz-adv-x="487"
d="M356 304q-36 18 -69 18q-38 0 -67.5 -26t-29.5 -71q0 -43 30.5 -70t68.5 -27q35 0 70 22q13 9 28 9q19 0 31 -16l31 -41q8 -11 8 -24q0 -20 -16 -32q-71 -58 -161 -58q-114 0 -182 65t-68 172q0 100 66.5 168.5t171.5 68.5q92 0 157 -42q22 -14 22 -35q0 -10 -6 -19
l-29 -48q-12 -20 -34 -20q-12 0 -22 6zM264 631l56 44q15 12 35 12q26 0 43 -20q11 -16 11 -34q0 -29 -22 -45l-80 -65q-19 -15 -44 -15q-26 0 -45 16l-79 64q-20 16 -20 44q0 21 12 36q17 21 43 21q21 0 35 -13z" />
    <glyph glyph-name="Dcaron" unicode="&#x10e;" horiz-adv-x="744"
d="M136 700q20 0 60.5 1t69.5 1.5t45 0.5q198 0 295.5 -98t97.5 -249q0 -155 -104.5 -256.5t-296.5 -101.5q-27 0 -167 2q-19 0 -32.5 14t-13.5 33v606q0 19 13.5 33t32.5 14zM250 550v-400q21 -2 58 -2q105 0 165.5 54.5t60.5 153.5q0 94 -62 145.5t-163 51.5q-39 0 -59 -3
zM337 859l85 51q14 7 26 7q28 0 43 -23q7 -11 7 -27q0 -27 -22 -42l-98 -65q-18 -12 -42 -12t-43 12l-100 63q-22 14 -22 41q0 16 9 29q16 24 46 24q15 0 26 -7z" />
    <glyph glyph-name="dcaron" unicode="&#x10f;" horiz-adv-x="557"
d="M502 662v-624q0 -16 -11 -27t-27 -11h-76q-15 0 -25.5 10.5t-10.5 26.5q-47 -45 -114 -45q-95 0 -151.5 62t-56.5 165q0 107 69 175t179 68q44 0 74 -14v214q0 16 11 27t27 11h74q16 0 27 -11t11 -27zM352 165v138q-33 19 -67 19q-39 0 -67 -25.5t-28 -72.5
q0 -43 24 -67.5t55 -24.5q47 0 83 33zM594 487q-20 0 -34 11q-20 16 -20 40q0 19 10 38q17 36 17 76q0 48 48 48h61q14 0 22.5 -10t8.5 -21q0 -105 -75 -169q-15 -13 -38 -13z" />
    <glyph glyph-name="Dcroat" unicode="&#x110;" horiz-adv-x="744"
d="M303 -2q-27 0 -167 2q-19 0 -32.5 14t-13.5 33v231h-34q-19 0 -32.5 13.5t-13.5 32.5v48q0 19 13.5 32.5t32.5 13.5h34v235q0 19 13.5 33t32.5 14q20 0 60.5 1t69.5 1.5t45 0.5q198 0 295.5 -98t97.5 -249q0 -155 -104.5 -256.5t-296.5 -101.5zM250 278v-128q21 -2 58 -2
q105 0 165.5 54.5t60.5 153.5q0 94 -62 145.5t-163 51.5q-39 0 -59 -3v-132h118q19 0 32.5 -13.5t13.5 -32.5v-48q0 -19 -13.5 -32.5t-32.5 -13.5h-118z" />
    <glyph glyph-name="dcroat" unicode="&#x111;" horiz-adv-x="557"
d="M30 219q0 107 69 175t179 68q44 0 74 -14v59h-66q-16 0 -27 11t-11 27v44q0 16 11 27t27 11h66v35q0 16 11 27t27 11h74q16 0 27 -11t11 -27v-35h27q16 0 27 -11t11 -27v-44q0 -16 -11 -27t-27 -11h-27v-469q0 -16 -11 -27t-27 -11h-76q-15 0 -25.5 10.5t-10.5 26.5
q-47 -45 -114 -45q-95 0 -151.5 62t-56.5 165zM352 165v138q-33 19 -67 19q-39 0 -67 -25.5t-28 -72.5q0 -43 24 -67.5t55 -24.5q47 0 83 33z" />
    <glyph glyph-name="Emacron" unicode="&#x112;" horiz-adv-x="575"
d="M515 104v-58q0 -19 -13.5 -32.5t-32.5 -13.5h-333q-19 0 -32.5 13.5t-13.5 32.5v608q0 19 13.5 32.5t32.5 13.5h323q19 0 32.5 -13.5t13.5 -32.5v-58q0 -19 -13.5 -32.5t-32.5 -13.5h-209v-123h179q19 0 32.5 -13.5t13.5 -32.5v-58q0 -19 -13.5 -32.5t-32.5 -13.5h-179
v-127h219q19 0 32.5 -13.5t13.5 -32.5zM454 822v-24q0 -20 -14 -34t-34 -14h-218q-20 0 -34 14t-14 34v24q0 20 14 34t34 14h218q20 0 34 -14t14 -34z" />
    <glyph glyph-name="emacron" unicode="&#x113;" horiz-adv-x="512"
d="M455 175h-270q20 -62 105 -62q46 0 81 13q11 4 22 4q25 0 35 -21l16 -32q4 -8 4 -18q0 -22 -18 -33q-68 -38 -156 -38q-111 0 -177.5 65t-66.5 172q0 101 67.5 169t176.5 68q90 0 154 -59.5t64 -152.5q0 -27 -3 -45q-1 -11 -12 -20.5t-22 -9.5zM342 275q0 25 -19.5 43.5
t-53.5 18.5q-67 0 -89 -62h162zM411 592v-24q0 -20 -14.5 -34t-33.5 -14h-198q-19 0 -33.5 14t-14.5 34v24q0 20 14.5 34t33.5 14h198q19 0 33.5 -14t14.5 -34z" />
    <glyph glyph-name="Edotaccent" unicode="&#x116;" horiz-adv-x="575"
d="M515 104v-58q0 -19 -13.5 -32.5t-32.5 -13.5h-333q-19 0 -32.5 13.5t-13.5 32.5v608q0 19 13.5 32.5t32.5 13.5h323q19 0 32.5 -13.5t13.5 -32.5v-58q0 -19 -13.5 -32.5t-32.5 -13.5h-209v-123h179q19 0 32.5 -13.5t13.5 -32.5v-58q0 -19 -13.5 -32.5t-32.5 -13.5h-179
v-127h219q19 0 32.5 -13.5t13.5 -32.5zM204 845q0 41 29.5 65.5t71.5 24.5q39 0 67.5 -25t28.5 -65q0 -44 -28.5 -70t-67.5 -26q-43 0 -72 25.5t-29 70.5z" />
    <glyph glyph-name="edotaccent" unicode="&#x117;" horiz-adv-x="512"
d="M455 175h-270q20 -62 105 -62q46 0 81 13q11 4 22 4q25 0 35 -21l16 -32q4 -8 4 -18q0 -22 -18 -33q-68 -38 -156 -38q-111 0 -177.5 65t-66.5 172q0 101 67.5 169t176.5 68q90 0 154 -59.5t64 -152.5q0 -27 -3 -45q-1 -11 -12 -20.5t-22 -9.5zM342 275q0 25 -19.5 43.5
t-53.5 18.5q-67 0 -89 -62h162zM180 605q0 39 26.5 62t64.5 23q34 0 59.5 -23.5t25.5 -61.5q0 -42 -25.5 -66.5t-59.5 -24.5q-39 0 -65 24t-26 67z" />
    <glyph glyph-name="Eogonek" unicode="&#x118;" horiz-adv-x="575"
d="M515 104v-58q0 -19 -13.5 -32.5t-32.5 -13.5h-12q-33 0 -55 -18t-22 -36q0 -26 30 -26q9 0 21.5 2.5t20.5 2.5q31 0 44 -28q7 -15 7 -28q0 -28 -31 -47q-41 -22 -97 -22q-63 0 -104 24t-41 71q0 70 92 105h-186q-19 0 -32.5 13.5t-13.5 32.5v608q0 19 13.5 32.5
t32.5 13.5h323q19 0 32.5 -13.5t13.5 -32.5v-58q0 -19 -13.5 -32.5t-32.5 -13.5h-209v-123h179q19 0 32.5 -13.5t13.5 -32.5v-58q0 -19 -13.5 -32.5t-32.5 -13.5h-179v-127h219q19 0 32.5 -13.5t13.5 -32.5z" />
    <glyph glyph-name="eogonek" unicode="&#x119;" horiz-adv-x="512"
d="M455 175h-270q20 -62 105 -62q46 0 81 13q11 4 22 4q25 0 35 -21l16 -32q4 -8 4 -18q0 -22 -18 -33q-57 -32 -119 -37q-33 -17 -33 -43t30 -26q24 0 34.5 -1t22 -9t17.5 -24q4 -9 4 -22q0 -34 -32 -49q-34 -15 -81 -15q-63 0 -104 24t-41 71q0 66 81 100q-83 18 -131 79
t-48 151q0 101 67.5 169t176.5 68q90 0 154 -59.5t64 -152.5q0 -27 -3 -45q-1 -11 -12 -20.5t-22 -9.5zM342 275q0 25 -19.5 43.5t-53.5 18.5q-67 0 -89 -62h162z" />
    <glyph glyph-name="Ecaron" unicode="&#x11a;" horiz-adv-x="575"
d="M515 104v-58q0 -19 -13.5 -32.5t-32.5 -13.5h-333q-19 0 -32.5 13.5t-13.5 32.5v608q0 19 13.5 32.5t32.5 13.5h323q19 0 32.5 -13.5t13.5 -32.5v-58q0 -19 -13.5 -32.5t-32.5 -13.5h-209v-123h179q19 0 32.5 -13.5t13.5 -32.5v-58q0 -19 -13.5 -32.5t-32.5 -13.5h-179
v-127h219q19 0 32.5 -13.5t13.5 -32.5zM307 859l85 51q14 7 26 7q28 0 43 -23q7 -11 7 -27q0 -27 -22 -42l-98 -65q-18 -12 -42 -12t-43 12l-100 63q-22 14 -22 41q0 16 9 29q16 24 46 24q15 0 26 -7z" />
    <glyph glyph-name="ecaron" unicode="&#x11b;" horiz-adv-x="512"
d="M455 175h-270q20 -62 105 -62q46 0 81 13q11 4 22 4q25 0 35 -21l16 -32q4 -8 4 -18q0 -22 -18 -33q-68 -38 -156 -38q-111 0 -177.5 65t-66.5 172q0 101 67.5 169t176.5 68q90 0 154 -59.5t64 -152.5q0 -27 -3 -45q-1 -11 -12 -20.5t-22 -9.5zM342 275q0 25 -19.5 43.5
t-53.5 18.5q-67 0 -89 -62h162zM274 631l56 44q15 12 35 12q26 0 43 -20q11 -16 11 -34q0 -29 -22 -45l-80 -65q-19 -15 -44 -15q-26 0 -45 16l-79 64q-20 16 -20 44q0 21 12 36q16 21 43 21q21 0 35 -13z" />
    <glyph glyph-name="Gcircumflex" unicode="&#x11c;" horiz-adv-x="727"
d="M210 350q0 -97 56.5 -154.5t150.5 -57.5q30 0 63.5 11.5t46.5 23.5v76h-103q-19 0 -32.5 13.5t-13.5 32.5v58q0 19 13.5 32.5t32.5 13.5h207q19 0 32.5 -13.5t13.5 -32.5v-236q0 -34 -27 -53q-47 -35 -111.5 -55.5t-123.5 -20.5q-177 0 -276 98t-99 264q0 155 97 258.5
t258 103.5q116 0 191 -41q28 -16 28 -43q0 -12 -6 -22l-27 -48q-15 -26 -42 -26q-12 0 -24 6q-50 24 -101 24q-91 0 -147.5 -54t-56.5 -158zM382 789l-85 -44q-12 -6 -23 -6q-31 0 -46 26q-8 13 -8 27q0 26 22 40l109 73q15 9 31 9q18 0 31 -9l114 -71q21 -14 21 -39
q0 -15 -9 -29q-18 -27 -47 -27q-13 0 -25 6z" />
    <glyph glyph-name="gcircumflex" unicode="&#x11d;" horiz-adv-x="510"
d="M253 109q0 -8 3 -17q98 -3 160 -41t62 -109q0 -74 -67 -112t-172 -38q-106 0 -172.5 37t-66.5 113q0 56 40 92t109 50q-6 12 -6 25q0 15 7 26q-52 21 -81.5 62.5t-29.5 91.5q0 71 54.5 122t144.5 51q66 0 115 -30l102 21q1 0 4 0.5t4 0.5q14 0 24.5 -9t13.5 -22l8 -40
q0 -1 0.5 -4t0.5 -4q0 -14 -9 -24.5t-22 -13.5l-47 -10q5 -22 5 -38q0 -67 -50.5 -115.5t-132.5 -53.5q-1 -4 -1 -11zM140 -58q0 -30 99 -30t99 30q0 31 -99 31t-99 -31zM179 289q0 -22 15.5 -35.5t43.5 -13.5q26 0 42.5 13t16.5 36t-15 38t-44 15q-27 0 -43 -15.5
t-16 -37.5zM244 563l-56 -44q-15 -12 -34 -12q-28 0 -43 21q-12 15 -12 34q0 27 22 44l80 65q19 15 44 15q26 0 45 -16l79 -64q20 -16 20 -44q0 -21 -12 -36q-17 -21 -43 -21q-21 0 -35 13z" />
    <glyph glyph-name="Gbreve" unicode="&#x11e;" horiz-adv-x="727"
d="M210 350q0 -97 56.5 -154.5t150.5 -57.5q30 0 63.5 11.5t46.5 23.5v76h-103q-19 0 -32.5 13.5t-13.5 32.5v58q0 19 13.5 32.5t32.5 13.5h207q19 0 32.5 -13.5t13.5 -32.5v-236q0 -34 -27 -53q-47 -35 -111.5 -55.5t-123.5 -20.5q-177 0 -276 98t-99 264q0 155 97 258.5
t258 103.5q116 0 191 -41q28 -16 28 -43q0 -12 -6 -22l-27 -48q-15 -26 -42 -26q-12 0 -24 6q-50 24 -101 24q-91 0 -147.5 -54t-56.5 -158zM302 890q46 -30 108 -30t108 30q20 14 38 14q19 0 38 -17q16 -15 16 -38q0 -18 -11 -31q-77 -88 -189 -88t-189 88q-11 13 -11 31
q0 23 16 38q19 17 38 17q18 0 38 -14z" />
    <glyph glyph-name="gbreve" unicode="&#x11f;" horiz-adv-x="510"
d="M253 109q0 -8 3 -17q98 -3 160 -41t62 -109q0 -74 -67 -112t-172 -38q-106 0 -172.5 37t-66.5 113q0 56 40 92t109 50q-6 12 -6 25q0 15 7 26q-52 21 -81.5 62.5t-29.5 91.5q0 71 54.5 122t144.5 51q66 0 115 -30l102 21q1 0 4 0.5t4 0.5q14 0 24.5 -9t13.5 -22l8 -40
q0 -1 0.5 -4t0.5 -4q0 -14 -9 -24.5t-22 -13.5l-47 -10q5 -22 5 -38q0 -67 -50.5 -115.5t-132.5 -53.5q-1 -4 -1 -11zM140 -58q0 -30 99 -30t99 30q0 31 -99 31t-99 -31zM179 289q0 -22 15.5 -35.5t43.5 -13.5q26 0 42.5 13t16.5 36t-15 38t-44 15q-27 0 -43 -15.5
t-16 -37.5zM172 651q32 -21 71 -21t71 21q22 15 41 15q20 0 36 -16q14 -14 14 -34q0 -19 -13 -34q-67 -73 -149 -73t-149 73q-13 15 -13 34q0 20 14 34q16 16 36 16q19 0 41 -15z" />
    <glyph glyph-name="Gdotaccent" unicode="&#x120;" horiz-adv-x="727"
d="M210 350q0 -97 56.5 -154.5t150.5 -57.5q30 0 63.5 11.5t46.5 23.5v76h-103q-19 0 -32.5 13.5t-13.5 32.5v58q0 19 13.5 32.5t32.5 13.5h207q19 0 32.5 -13.5t13.5 -32.5v-236q0 -34 -27 -53q-47 -35 -111.5 -55.5t-123.5 -20.5q-177 0 -276 98t-99 264q0 155 97 258.5
t258 103.5q116 0 191 -41q28 -16 28 -43q0 -12 -6 -22l-27 -48q-15 -26 -42 -26q-12 0 -24 6q-50 24 -101 24q-91 0 -147.5 -54t-56.5 -158zM274 845q0 41 29.5 65.5t71.5 24.5q39 0 67.5 -25t28.5 -65q0 -44 -28.5 -70t-67.5 -26q-43 0 -72 25.5t-29 70.5z" />
    <glyph glyph-name="gdotaccent" unicode="&#x121;" horiz-adv-x="510"
d="M253 109q0 -8 3 -17q98 -3 160 -41t62 -109q0 -74 -67 -112t-172 -38q-106 0 -172.5 37t-66.5 113q0 56 40 92t109 50q-6 12 -6 25q0 15 7 26q-52 21 -81.5 62.5t-29.5 91.5q0 71 54.5 122t144.5 51q66 0 115 -30l102 21q1 0 4 0.5t4 0.5q14 0 24.5 -9t13.5 -22l8 -40
q0 -1 0.5 -4t0.5 -4q0 -14 -9 -24.5t-22 -13.5l-47 -10q5 -22 5 -38q0 -67 -50.5 -115.5t-132.5 -53.5q-1 -4 -1 -11zM140 -58q0 -30 99 -30t99 30q0 31 -99 31t-99 -31zM179 289q0 -22 15.5 -35.5t43.5 -13.5q26 0 42.5 13t16.5 36t-15 38t-44 15q-27 0 -43 -15.5
t-16 -37.5zM150 605q0 39 26.5 62t64.5 23q34 0 59.5 -23.5t25.5 -61.5q0 -42 -25.5 -66.5t-59.5 -24.5q-39 0 -65 24t-26 67z" />
    <glyph glyph-name="Gcommaaccent" unicode="&#x122;" horiz-adv-x="727"
d="M210 350q0 -97 56.5 -154.5t150.5 -57.5q30 0 63.5 11.5t46.5 23.5v76h-103q-19 0 -32.5 13.5t-13.5 32.5v58q0 19 13.5 32.5t32.5 13.5h207q19 0 32.5 -13.5t13.5 -32.5v-236q0 -34 -27 -53q-47 -35 -111.5 -55.5t-123.5 -20.5q-177 0 -276 98t-99 264q0 155 97 258.5
t258 103.5q116 0 191 -41q28 -16 28 -43q0 -12 -6 -22l-27 -48q-15 -26 -42 -26q-12 0 -24 6q-50 24 -101 24q-91 0 -147.5 -54t-56.5 -158zM352 -204q-25 0 -36 15q-10 13 -10 26q0 17 19 38q13 14 13 40q0 22 6 30.5t24 12.5l82 16h5q13 0 23 -10.5t10 -32.5
q0 -46 -33.5 -81t-80.5 -51q-9 -3 -22 -3z" />
    <glyph glyph-name="gcommaaccent" unicode="&#x123;" horiz-adv-x="510"
d="M253 109q0 -8 3 -17q98 -3 160 -41t62 -109q0 -74 -67 -112t-172 -38q-106 0 -172.5 37t-66.5 113q0 56 40 92t109 50q-6 12 -6 25q0 15 7 26q-52 21 -81.5 62.5t-29.5 91.5q0 71 54.5 122t144.5 51q66 0 115 -30l102 21q1 0 4 0.5t4 0.5q14 0 24.5 -9t13.5 -22l8 -40
q0 -1 0.5 -4t0.5 -4q0 -14 -9 -24.5t-22 -13.5l-47 -10q5 -22 5 -38q0 -67 -50.5 -115.5t-132.5 -53.5q-1 -4 -1 -11zM140 -58q0 -30 99 -30t99 30q0 31 -99 31t-99 -31zM179 289q0 -22 15.5 -35.5t43.5 -13.5q26 0 42.5 13t16.5 36t-15 38t-44 15q-27 0 -43 -15.5
t-16 -37.5zM290 701q25 0 36 -15q10 -13 10 -26q0 -17 -19 -38q-13 -14 -13 -40q0 -22 -6 -30.5t-24 -12.5l-82 -16h-5q-13 0 -23 10.5t-10 32.5q0 46 33.5 81t80.5 51q9 3 22 3z" />
    <glyph glyph-name="Hcircumflex" unicode="&#x124;" horiz-adv-x="755"
d="M665 654v-608q0 -19 -13.5 -32.5t-32.5 -13.5h-68q-19 0 -32.5 13.5t-13.5 32.5v236h-255v-236q0 -19 -13.5 -32.5t-32.5 -13.5h-68q-19 0 -32.5 13.5t-13.5 32.5v608q0 19 13.5 32.5t32.5 13.5h68q19 0 32.5 -13.5t13.5 -32.5v-222h255v222q0 19 13.5 32.5t32.5 13.5h68
q19 0 32.5 -13.5t13.5 -32.5zM377 789l-85 -44q-12 -6 -23 -6q-31 0 -46 26q-8 13 -8 27q0 26 22 40l109 73q15 9 31 9q17 0 31 -9l114 -71q21 -14 21 -39q0 -15 -9 -29q-18 -27 -47 -27q-13 0 -25 6z" />
    <glyph glyph-name="hcircumflex" unicode="&#x125;" horiz-adv-x="544"
d="M205 289v-251q0 -16 -11 -27t-27 -11h-74q-16 0 -27 11t-11 27v624q0 16 11 27t27 11h74q16 0 27 -11t11 -27v-243q44 39 111 39q84 0 133.5 -47t49.5 -147v-226q0 -16 -11 -27t-27 -11h-74q-16 0 -27 11t-11 27v207q0 33 -20 53t-52 20q-43 0 -72 -29zM147 789l-85 -44
q-12 -6 -23 -6q-31 0 -46 26q-8 13 -8 27q0 26 22 40l109 73q15 9 31 9q17 0 31 -9l114 -71q21 -14 21 -39q0 -15 -9 -29q-18 -27 -47 -27q-13 0 -25 6z" />
    <glyph glyph-name="Hbar" unicode="&#x126;" horiz-adv-x="765"
d="M209 0h-68q-19 0 -32.5 13.5t-13.5 32.5v451h-29q-19 0 -32.5 13.5t-13.5 32.5v48q0 19 13.5 32.5t32.5 13.5h29v17q0 19 13.5 32.5t32.5 13.5h68q19 0 32.5 -13.5t13.5 -32.5v-17h255v17q0 19 13.5 32.5t32.5 13.5h68q19 0 32.5 -13.5t13.5 -32.5v-17h29
q19 0 32.5 -13.5t13.5 -32.5v-48q0 -19 -13.5 -32.5t-32.5 -13.5h-29v-451q0 -19 -13.5 -32.5t-32.5 -13.5h-68q-19 0 -32.5 13.5t-13.5 32.5v236h-255v-236q0 -19 -13.5 -32.5t-32.5 -13.5zM510 432v65h-255v-65h255z" />
    <glyph glyph-name="hbar" unicode="&#x127;" horiz-adv-x="594"
d="M217 0h-74q-16 0 -27 11t-11 27v452h-57q-16 0 -27 11t-11 27v64q0 16 11 27t27 11h57v32q0 16 11 27t27 11h74q16 0 27 -11t11 -27v-32h96q16 0 27 -11t11 -27v-64q0 -16 -11 -27t-27 -11h-96v-71q44 39 111 39q84 0 133.5 -47t49.5 -147v-226q0 -16 -11 -27t-27 -11
h-74q-16 0 -27 11t-11 27v207q0 33 -20 53t-52 20q-43 0 -72 -29v-251q0 -16 -11 -27t-27 -11z" />
    <glyph glyph-name="Imacron" unicode="&#x12a;" horiz-adv-x="360"
d="M260 654v-608q0 -19 -13.5 -32.5t-32.5 -13.5h-68q-19 0 -32.5 13.5t-13.5 32.5v608q0 19 13.5 32.5t32.5 13.5h68q19 0 32.5 -13.5t13.5 -32.5zM342 822v-24q0 -20 -14 -34t-34 -14h-218q-20 0 -34 14t-14 34v24q0 20 14 34t34 14h218q20 0 34 -14t14 -34z" />
    <glyph glyph-name="imacron" unicode="&#x12b;" horiz-adv-x="286"
d="M218 412v-374q0 -16 -11 -27t-27 -11h-74q-16 0 -27 11t-11 27v374q0 16 11 27t27 11h74q16 0 27 -11t11 -27zM290 592v-24q0 -20 -14 -34t-34 -14h-198q-20 0 -34 14t-14 34v24q0 20 14 34t34 14h198q20 0 34 -14t14 -34z" />
    <glyph glyph-name="Iogonek" unicode="&#x12e;" horiz-adv-x="360"
d="M260 654v-608q0 -19 -13.5 -32.5t-32.5 -13.5h-11q-33 0 -55 -18t-22 -36q0 -26 30 -26q9 0 21.5 2.5t20.5 2.5q31 0 44 -28q7 -15 7 -28q0 -28 -31 -47q-41 -22 -97 -22q-63 0 -104 24t-41 71q0 45 38 75t99 43q-13 15 -13 33v608q0 19 13.5 32.5t32.5 13.5h68
q19 0 32.5 -13.5t13.5 -32.5z" />
    <glyph glyph-name="iogonek" unicode="&#x12f;" horiz-adv-x="286"
d="M218 412v-374q0 -16 -11 -27t-27 -11h-17q-30 -2 -50 -19.5t-20 -34.5q0 -26 30 -26q24 0 34.5 -1t22 -9t17.5 -24q4 -9 4 -22q0 -34 -32 -49q-34 -15 -81 -15q-63 0 -104 24t-41 71q0 44 37.5 73.5t97.5 43.5q-10 10 -10 26v374q0 16 11 27t27 11h74q16 0 27 -11t11 -27
zM55 605q0 39 26.5 62t64.5 23q34 0 59.5 -23.5t25.5 -61.5q0 -42 -25.5 -66.5t-59.5 -24.5q-39 0 -65 24t-26 67z" />
    <glyph glyph-name="Idotaccent" unicode="&#x130;" horiz-adv-x="360"
d="M260 654v-608q0 -19 -13.5 -32.5t-32.5 -13.5h-68q-19 0 -32.5 13.5t-13.5 32.5v608q0 19 13.5 32.5t32.5 13.5h68q19 0 32.5 -13.5t13.5 -32.5zM82 845q0 41 29.5 65.5t71.5 24.5q39 0 67.5 -25t28.5 -65q0 -44 -28.5 -70t-67.5 -26q-43 0 -72 25.5t-29 70.5z" />
    <glyph glyph-name="dotlessi" unicode="&#x131;" horiz-adv-x="286"
d="M218 412v-374q0 -16 -11 -27t-27 -11h-74q-16 0 -27 11t-11 27v374q0 16 11 27t27 11h74q16 0 27 -11t11 -27z" />
    <glyph glyph-name="Jcircumflex" unicode="&#x134;" horiz-adv-x="407"
d="M157 200v454q0 19 13.5 32.5t32.5 13.5h68q19 0 32.5 -13.5t13.5 -32.5v-483q0 -89 -48 -136t-137 -47q-59 0 -109 25q-26 13 -26 38q0 11 6 24l18 41q13 28 39 28q11 0 23 -3q11 -3 22 -3h5q22 0 34.5 16t12.5 46zM235 789l-85 -44q-12 -6 -23 -6q-31 0 -46 26
q-8 13 -8 27q0 26 22 40l109 73q15 9 31 9q18 0 31 -9l114 -71q21 -14 21 -39q0 -15 -9 -29q-18 -27 -47 -27q-13 0 -25 6z" />
    <glyph glyph-name="jcircumflex" unicode="&#x135;" horiz-adv-x="284"
d="M79 -19v431q0 16 11 27t27 11h74q16 0 27 -11t11 -27v-445q0 -175 -141 -175q-49 0 -93 16q-25 8 -25 35q0 3 2 13l17 53q8 25 32 25q8 0 12 -1q10 -2 18 -2q28 0 28 50zM154 563l-56 -44q-15 -12 -34 -12q-28 0 -43 21q-12 15 -12 34q0 27 22 44l80 65q20 15 44 15
q26 0 45 -16l79 -64q20 -16 20 -44q0 -21 -12 -36q-17 -21 -43 -21q-21 0 -35 13z" />
    <glyph glyph-name="Kcommaaccent" unicode="&#x136;" horiz-adv-x="688"
d="M250 333v-287q0 -19 -13.5 -32.5t-32.5 -13.5h-68q-19 0 -32.5 13.5t-13.5 32.5v608q0 19 13.5 32.5t32.5 13.5h68q19 0 32.5 -13.5t13.5 -32.5v-259l208 277q21 28 56 28h66q19 0 31.5 -13t12.5 -30q0 -15 -10 -28l-206 -252l229 -304q10 -13 10 -28q0 -18 -13 -31.5
t-33 -13.5h-77q-35 0 -56 29zM292 -204q-25 0 -36 15q-10 13 -10 26q0 17 19 38q13 14 13 40q0 22 6 30.5t24 12.5l82 16h5q13 0 23 -10.5t10 -32.5q0 -46 -33.5 -81t-80.5 -51q-9 -3 -22 -3z" />
    <glyph glyph-name="kcommaaccent" unicode="&#x137;" horiz-adv-x="534"
d="M205 215v-177q0 -16 -11 -27t-27 -11h-74q-16 0 -27 11t-11 27v624q0 16 11 27t27 11h74q16 0 27 -11t11 -27v-407l107 169q16 26 46 26h81q17 0 28.5 -12t11.5 -27q0 -12 -8 -23l-101 -141l124 -184q7 -10 7 -23q0 -16 -11.5 -28t-29.5 -12h-85q-31 0 -47 26zM199 -204
q-25 0 -36 15q-10 13 -10 26q0 17 19 38q13 14 13 40q0 22 6 30.5t24 12.5l82 16h5q13 0 23 -10.5t10 -32.5q0 -46 -33.5 -81t-80.5 -51q-9 -3 -22 -3z" />
    <glyph glyph-name="Lacute" unicode="&#x139;" horiz-adv-x="545"
d="M535 104v-58q0 -19 -13.5 -32.5t-32.5 -13.5h-353q-19 0 -32.5 13.5t-13.5 32.5v608q0 19 13.5 32.5t32.5 13.5h68q19 0 32.5 -13.5t13.5 -32.5v-504h239q19 0 32.5 -13.5t13.5 -32.5zM220 839l148 74q9 5 20 5q31 0 42 -27l18 -41q4 -10 4 -17q0 -14 -8.5 -25.5
t-22.5 -15.5l-157 -50q-9 -3 -18 -3q-35 0 -49 30q-5 13 -5 23q0 32 28 47z" />
    <glyph glyph-name="lacute" unicode="&#x13a;" horiz-adv-x="309"
d="M55 129v533q0 16 11 27t27 11h74q16 0 27 -11t11 -27v-476q0 -32 5.5 -45t22.5 -13q2 0 11 0.5t16 0.5q23 0 31 -24l14 -44q2 -6 2 -15q0 -26 -27 -36q-56 -22 -107 -22q-118 0 -118 141zM115 839l148 74q9 5 20 5q31 0 42 -27l18 -41q4 -10 4 -17q0 -14 -8.5 -25.5
t-22.5 -15.5l-157 -50q-9 -3 -18 -3q-35 0 -49 30q-5 13 -5 23q0 32 28 47z" />
    <glyph glyph-name="Lcommaaccent" unicode="&#x13b;" horiz-adv-x="545"
d="M535 104v-58q0 -19 -13.5 -32.5t-32.5 -13.5h-353q-19 0 -32.5 13.5t-13.5 32.5v608q0 19 13.5 32.5t32.5 13.5h68q19 0 32.5 -13.5t13.5 -32.5v-504h239q19 0 32.5 -13.5t13.5 -32.5zM252 -204q-25 0 -36 15q-10 13 -10 26q0 17 19 38q13 14 13 40q0 22 6 30.5t24 12.5
l82 16h5q13 0 23 -10.5t10 -32.5q0 -46 -33.5 -81t-80.5 -51q-9 -3 -22 -3z" />
    <glyph glyph-name="lcommaaccent" unicode="&#x13c;" horiz-adv-x="309"
d="M55 129v533q0 16 11 27t27 11h74q16 0 27 -11t11 -27v-476q0 -32 5.5 -45t22.5 -13q2 0 11 0.5t16 0.5q23 0 31 -24l14 -44q2 -6 2 -15q0 -26 -27 -36q-56 -22 -107 -22q-118 0 -118 141zM127 -204q-25 0 -36 15q-10 13 -10 26q0 17 19 38q13 14 13 40q0 22 6 30.5
t24 12.5l82 16h5q13 0 23 -10.5t10 -32.5q0 -46 -33.5 -81t-80.5 -51q-9 -3 -22 -3z" />
    <glyph glyph-name="Lcaron" unicode="&#x13d;" horiz-adv-x="545"
d="M535 104v-58q0 -19 -13.5 -32.5t-32.5 -13.5h-353q-19 0 -32.5 13.5t-13.5 32.5v608q0 19 13.5 32.5t32.5 13.5h68q19 0 32.5 -13.5t13.5 -32.5v-504h239q19 0 32.5 -13.5t13.5 -32.5zM394 487q-20 0 -34 11q-20 16 -20 40q0 19 10 38q17 36 17 76q0 48 48 48h61
q14 0 22.5 -10t8.5 -21q0 -105 -75 -169q-15 -13 -38 -13z" />
    <glyph glyph-name="lcaron" unicode="&#x13e;" horiz-adv-x="309"
d="M55 129v533q0 16 11 27t27 11h74q16 0 27 -11t11 -27v-476q0 -32 5.5 -45t22.5 -13q2 0 11 0.5t16 0.5q23 0 31 -24l14 -44q2 -6 2 -15q0 -26 -27 -36q-56 -22 -107 -22q-118 0 -118 141zM304 487q-20 0 -34 11q-20 16 -20 40q0 19 10 38q17 36 17 76q0 48 48 48h61
q14 0 22.5 -10t8.5 -21q0 -105 -75 -169q-15 -13 -38 -13z" />
    <glyph glyph-name="Ldot" unicode="&#x13f;" horiz-adv-x="545"
d="M535 104v-58q0 -19 -13.5 -32.5t-32.5 -13.5h-353q-19 0 -32.5 13.5t-13.5 32.5v608q0 19 13.5 32.5t32.5 13.5h68q19 0 32.5 -13.5t13.5 -32.5v-504h239q19 0 32.5 -13.5t13.5 -32.5zM344 376q0 36 28 65t74 29q40 0 67 -29t27 -65q0 -41 -26.5 -71.5t-67.5 -30.5
q-46 0 -74 30t-28 72z" />
    <glyph glyph-name="ldot" unicode="&#x140;" horiz-adv-x="377"
d="M55 129v533q0 16 11 27t27 11h74q16 0 27 -11t11 -27v-476q0 -32 5.5 -45t22.5 -13q2 0 11 0.5t16 0.5q23 0 31 -24l14 -44q2 -6 2 -15q0 -26 -27 -36q-56 -22 -107 -22q-118 0 -118 141zM231 350q0 39 26.5 62t64.5 23q34 0 59.5 -23.5t25.5 -61.5q0 -42 -25.5 -66.5
t-59.5 -24.5q-39 0 -65 24t-26 67z" />
    <glyph glyph-name="Lslash" unicode="&#x141;" horiz-adv-x="547"
d="M499 0h-353q-19 0 -32.5 13.5t-13.5 32.5v181l-13 -7q-8 -4 -20 -4q-30 0 -42 26l-19 39q-4 8 -4 20q0 30 26 42l72 35v276q0 19 13.5 32.5t32.5 13.5h68q19 0 32.5 -13.5t13.5 -32.5v-205l85 37q8 4 19 4q31 0 42 -27l19 -42q4 -8 4 -19q0 -31 -27 -42l-142 -65v-145
h239q19 0 32.5 -13.5t13.5 -32.5v-58q0 -19 -13.5 -32.5t-32.5 -13.5z" />
    <glyph glyph-name="lslash" unicode="&#x142;" horiz-adv-x="339"
d="M76 129v81l-10 -4q-10 -4 -16 -4q-24 0 -35 23l-25 58q-4 10 -4 16q0 23 23 35l67 30v298q0 16 11 27t27 11h74q16 0 27 -11t11 -27v-232l26 11q8 3 15 3q25 0 35 -23l25 -58q3 -7 3 -15q0 -25 -23 -35l-81 -36v-91q0 -32 5.5 -45t22.5 -13q2 0 11 0.5t16 0.5
q23 0 31 -24l14 -44q2 -6 2 -15q0 -26 -27 -36q-56 -22 -107 -22q-118 0 -118 141z" />
    <glyph glyph-name="Nacute" unicode="&#x143;" horiz-adv-x="790"
d="M596 700h58q19 0 32.5 -13.5t13.5 -32.5v-608q0 -19 -13.5 -32.5t-32.5 -13.5h-47q-36 0 -57 28l-310 392v-374q0 -19 -13.5 -32.5t-32.5 -13.5h-58q-19 0 -32.5 13.5t-13.5 32.5v608q0 19 13.5 32.5t32.5 13.5h47q36 0 57 -28l310 -394v376q0 19 13.5 32.5t32.5 13.5z
M350 839l148 74q9 5 20 5q31 0 42 -27l18 -41q4 -10 4 -17q0 -14 -8.5 -25.5t-22.5 -15.5l-157 -50q-9 -3 -18 -3q-35 0 -49 30q-5 13 -5 23q0 32 28 47z" />
    <glyph glyph-name="nacute" unicode="&#x144;" horiz-adv-x="544"
d="M205 287v-249q0 -16 -11 -27t-27 -11h-74q-16 0 -27 11t-11 27v374q0 16 11 27t27 11h78q14 0 24 -10t10 -24q46 42 111 42q183 0 183 -190v-230q0 -16 -11 -27t-27 -11h-74q-16 0 -27 11t-11 27v204q0 38 -20 57t-54 19q-39 0 -70 -31zM225 611l49 82q14 23 40 23
q18 0 29 -10l33 -25q19 -15 19 -39q0 -18 -12 -32l-61 -68q-17 -19 -43 -19q-19 0 -36 12q-26 18 -26 48q0 14 8 28z" />
    <glyph glyph-name="Ncommaaccent" unicode="&#x145;" horiz-adv-x="790"
d="M596 700h58q19 0 32.5 -13.5t13.5 -32.5v-608q0 -19 -13.5 -32.5t-32.5 -13.5h-47q-36 0 -57 28l-310 392v-374q0 -19 -13.5 -32.5t-32.5 -13.5h-58q-19 0 -32.5 13.5t-13.5 32.5v608q0 19 13.5 32.5t32.5 13.5h47q36 0 57 -28l310 -394v376q0 19 13.5 32.5t32.5 13.5z
M342 -204q-25 0 -36 15q-10 13 -10 26q0 17 19 38q13 14 13 40q0 22 6 30.5t24 12.5l82 16h5q13 0 23 -10.5t10 -32.5q0 -46 -33.5 -81t-80.5 -51q-9 -3 -22 -3z" />
    <glyph glyph-name="ncommaaccent" unicode="&#x146;" horiz-adv-x="544"
d="M205 287v-249q0 -16 -11 -27t-27 -11h-74q-16 0 -27 11t-11 27v374q0 16 11 27t27 11h78q14 0 24 -10t10 -24q46 42 111 42q183 0 183 -190v-230q0 -16 -11 -27t-27 -11h-74q-16 0 -27 11t-11 27v204q0 38 -20 57t-54 19q-39 0 -70 -31zM213 -204q-25 0 -36 15
q-10 13 -10 26q0 17 19 38q13 14 13 40q0 22 6 30.5t24 12.5l82 16h5q13 0 23 -10.5t10 -32.5q0 -46 -33.5 -81t-80.5 -51q-9 -3 -22 -3z" />
    <glyph glyph-name="Ncaron" unicode="&#x147;" horiz-adv-x="790"
d="M596 700h58q19 0 32.5 -13.5t13.5 -32.5v-608q0 -19 -13.5 -32.5t-32.5 -13.5h-47q-36 0 -57 28l-310 392v-374q0 -19 -13.5 -32.5t-32.5 -13.5h-58q-19 0 -32.5 13.5t-13.5 32.5v608q0 19 13.5 32.5t32.5 13.5h47q36 0 57 -28l310 -394v376q0 19 13.5 32.5t32.5 13.5z
M399 859l85 51q14 7 26 7q28 0 43 -23q7 -11 7 -27q0 -27 -22 -42l-98 -65q-18 -12 -42 -12t-43 12l-100 63q-22 14 -22 41q0 16 9 29q16 24 46 24q15 0 26 -7z" />
    <glyph glyph-name="ncaron" unicode="&#x148;" horiz-adv-x="544"
d="M205 287v-249q0 -16 -11 -27t-27 -11h-74q-16 0 -27 11t-11 27v374q0 16 11 27t27 11h78q14 0 24 -10t10 -24q46 42 111 42q183 0 183 -190v-230q0 -16 -11 -27t-27 -11h-74q-16 0 -27 11t-11 27v204q0 38 -20 57t-54 19q-39 0 -70 -31zM272 631l56 44q15 12 35 12
q26 0 43 -20q11 -16 11 -34q0 -29 -22 -45l-80 -65q-20 -15 -44 -15q-26 0 -45 16l-79 64q-20 16 -20 44q0 21 12 36q17 21 43 21q21 0 35 -13z" />
    <glyph glyph-name="Omacron" unicode="&#x14c;" horiz-adv-x="824"
d="M40 350q0 155 103.5 258.5t268.5 103.5q163 0 267.5 -99t104.5 -263q0 -158 -105.5 -260t-266.5 -102q-163 0 -267.5 99t-104.5 263zM210 350q0 -90 59 -151t143 -61q96 0 149 59.5t53 152.5q0 94 -58 153t-144 59q-88 0 -145 -58.5t-57 -153.5zM579 822v-24
q0 -20 -14.5 -34t-33.5 -14h-218q-19 0 -33.5 14t-14.5 34v24q0 20 14.5 34t33.5 14h218q19 0 33.5 -14t14.5 -34z" />
    <glyph glyph-name="omacron" unicode="&#x14d;" horiz-adv-x="560"
d="M30 225q0 103 68.5 170t181.5 67t181.5 -67t68.5 -170t-68.5 -170t-181.5 -67t-181.5 67t-68.5 170zM190 225q0 -42 25.5 -69.5t64.5 -27.5t64.5 26t25.5 71q0 43 -26 70t-64 27t-64 -26.5t-26 -70.5zM437 592v-24q0 -20 -14.5 -34t-33.5 -14h-198q-19 0 -33.5 14
t-14.5 34v24q0 20 14.5 34t33.5 14h198q19 0 33.5 -14t14.5 -34z" />
    <glyph glyph-name="Ohungarumlaut" unicode="&#x150;" horiz-adv-x="824"
d="M40 350q0 155 103.5 258.5t268.5 103.5q163 0 267.5 -99t104.5 -263q0 -158 -105.5 -260t-266.5 -102q-163 0 -267.5 99t-104.5 263zM210 350q0 -90 59 -151t143 -61q96 0 149 59.5t53 152.5q0 94 -58 153t-144 59q-88 0 -145 -58.5t-57 -153.5zM462 820l95 86
q13 12 33 12q18 0 31 -12l42 -36q10 -9 10 -23q0 -18 -16 -27l-128 -71q-18 -9 -32 -9q-24 0 -38 17q-11 13 -11 30q0 19 14 33zM268 822l53 77q14 22 41 22q10 0 22 -5l52 -27q16 -7 16 -25q0 -13 -10 -22l-101 -86q-12 -11 -32 -11q-19 0 -35 13q-15 15 -15 35q0 15 9 29z
" />
    <glyph glyph-name="ohungarumlaut" unicode="&#x151;" horiz-adv-x="560"
d="M30 225q0 103 68.5 170t181.5 67t181.5 -67t68.5 -170t-68.5 -170t-181.5 -67t-181.5 67t-68.5 170zM190 225q0 -42 25.5 -69.5t64.5 -27.5t64.5 26t25.5 71q0 43 -26 70t-64 27t-64 -26.5t-26 -70.5zM316 610l54 72q16 22 43 22q18 0 32 -11l25 -18q18 -13 18 -38
q0 -20 -14 -33l-62 -63q-23 -21 -50 -21q-20 0 -35 12q-21 16 -21 45q0 19 10 33zM140 613l45 80q12 24 42 24q15 0 28 -9l20 -16q22 -16 22 -44q0 -18 -10 -32l-52 -69q-17 -21 -45 -21q-21 0 -35 10q-23 17 -23 46q0 15 8 31z" />
    <glyph glyph-name="OE" unicode="&#x152;" horiz-adv-x="1034"
d="M974 104v-58q0 -19 -13.5 -32.5t-32.5 -13.5h-366q-13 0 -13 14q-68 -26 -142 -26q-163 0 -265 99.5t-102 262.5q0 158 96 260t270 102q76 0 143 -27q0 6 4.5 10.5t10.5 4.5h354q19 0 32.5 -13.5t13.5 -32.5v-58q0 -19 -13.5 -32.5t-32.5 -13.5h-209v-123h179
q19 0 32.5 -13.5t13.5 -32.5v-58q0 -19 -13.5 -32.5t-32.5 -13.5h-179v-127h219q19 0 32.5 -13.5t13.5 -32.5zM549 172v347q-71 43 -143 43q-85 0 -140.5 -56t-55.5 -156q0 -93 59 -152.5t153 -59.5q66 0 127 34z" />
    <glyph glyph-name="oe" unicode="&#x153;" horiz-adv-x="828"
d="M346 225q0 37 9 70q-31 27 -75 27q-38 0 -64 -26.5t-26 -70.5q0 -42 25.5 -69.5t64.5 -27.5q46 0 74 28q-8 28 -8 69zM658 275q0 25 -19.5 43.5t-53.5 18.5q-67 0 -89 -62h162zM746 26q-68 -38 -156 -38q-92 0 -154 45q-64 -45 -156 -45q-113 0 -181.5 67t-68.5 170
t68.5 170t181.5 67q94 0 158 -47q65 47 152 47q90 0 154 -59.5t64 -152.5q0 -27 -3 -45q-2 -11 -12.5 -20.5t-21.5 -9.5h-270q20 -62 105 -62q46 0 81 13q11 4 22 4q25 0 35 -21l16 -32q4 -8 4 -18q0 -22 -18 -33z" />
    <glyph glyph-name="Racute" unicode="&#x154;" horiz-adv-x="669"
d="M459 29l-150 216h-59v-199q0 -19 -13.5 -32.5t-32.5 -13.5h-68q-19 0 -32.5 13.5t-13.5 32.5v608q0 19 13.5 32.5t32.5 13.5q136 2 192 2q136 0 197.5 -60t61.5 -164q0 -143 -118 -202l154 -208q9 -12 9 -25q0 -17 -12.5 -30t-31.5 -13h-74q-36 0 -55 29zM250 395h58
q109 0 109 81q0 76 -97 76q-4 0 -70 -2v-155zM250 839l148 74q9 5 20 5q31 0 42 -27l18 -41q4 -10 4 -17q0 -14 -8.5 -25.5t-22.5 -15.5l-157 -50q-9 -3 -18 -3q-35 0 -49 30q-5 13 -5 23q0 32 28 47z" />
    <glyph glyph-name="racute" unicode="&#x155;" horiz-adv-x="369"
d="M205 286v-248q0 -16 -11 -27t-27 -11h-74q-16 0 -27 11t-11 27v374q0 16 11 27t27 11h77q14 0 24.5 -10.5t10.5 -24.5q31 43 88 43q31 0 54 -7q25 -8 25 -32q0 -11 -4 -20l-29 -63q-11 -24 -40 -24q-5 0 -15 2q-16 4 -28 4q-33 0 -51 -32zM134 611l49 82q14 23 40 23
q18 0 29 -10l33 -25q19 -15 19 -39q0 -18 -12 -32l-61 -68q-17 -19 -43 -19q-20 0 -36 12q-26 18 -26 48q0 14 8 28z" />
    <glyph glyph-name="Rcommaaccent" unicode="&#x156;" horiz-adv-x="669"
d="M459 29l-150 216h-59v-199q0 -19 -13.5 -32.5t-32.5 -13.5h-68q-19 0 -32.5 13.5t-13.5 32.5v608q0 19 13.5 32.5t32.5 13.5q136 2 192 2q136 0 197.5 -60t61.5 -164q0 -143 -118 -202l154 -208q9 -12 9 -25q0 -17 -12.5 -30t-31.5 -13h-74q-36 0 -55 29zM250 395h58
q109 0 109 81q0 76 -97 76q-4 0 -70 -2v-155zM282 -204q-25 0 -36 15q-10 13 -10 26q0 17 19 38q13 14 13 40q0 22 6 30.5t24 12.5l82 16h5q13 0 23 -10.5t10 -32.5q0 -46 -33.5 -81t-80.5 -51q-9 -3 -22 -3z" />
    <glyph glyph-name="rcommaaccent" unicode="&#x157;" horiz-adv-x="369"
d="M205 286v-248q0 -16 -11 -27t-27 -11h-74q-16 0 -27 11t-11 27v374q0 16 11 27t27 11h77q14 0 24.5 -10.5t10.5 -24.5q31 43 88 43q31 0 54 -7q25 -8 25 -32q0 -11 -4 -20l-29 -63q-11 -24 -40 -24q-5 0 -15 2q-16 4 -28 4q-33 0 -51 -32zM123 -204q-25 0 -36 15
q-10 13 -10 26q0 17 19 38q13 14 13 40q0 22 6 30.5t24 12.5l82 16h5q13 0 23 -10.5t10 -32.5q0 -46 -33.5 -81t-80.5 -51q-9 -3 -22 -3z" />
    <glyph glyph-name="Rcaron" unicode="&#x158;" horiz-adv-x="669"
d="M459 29l-150 216h-59v-199q0 -19 -13.5 -32.5t-32.5 -13.5h-68q-19 0 -32.5 13.5t-13.5 32.5v608q0 19 13.5 32.5t32.5 13.5q136 2 192 2q136 0 197.5 -60t61.5 -164q0 -143 -118 -202l154 -208q9 -12 9 -25q0 -17 -12.5 -30t-31.5 -13h-74q-36 0 -55 29zM250 395h58
q109 0 109 81q0 76 -97 76q-4 0 -70 -2v-155zM317 859l85 51q14 7 26 7q28 0 43 -23q7 -11 7 -27q0 -27 -22 -42l-98 -65q-18 -12 -42 -12t-43 12l-100 63q-22 14 -22 41q0 16 9 29q17 24 46 24q15 0 26 -7z" />
    <glyph glyph-name="rcaron" unicode="&#x159;" horiz-adv-x="369"
d="M205 286v-248q0 -16 -11 -27t-27 -11h-74q-16 0 -27 11t-11 27v374q0 16 11 27t27 11h77q14 0 24.5 -10.5t10.5 -24.5q31 43 88 43q31 0 54 -7q25 -8 25 -32q0 -11 -4 -20l-29 -63q-11 -24 -40 -24q-5 0 -15 2q-16 4 -28 4q-33 0 -51 -32zM202 631l56 44q15 12 35 12
q26 0 43 -20q11 -16 11 -34q0 -29 -22 -45l-80 -65q-19 -15 -44 -15q-26 0 -45 16l-79 64q-20 16 -20 44q0 21 12 36q17 21 43 21q21 0 35 -13z" />
    <glyph glyph-name="Sacute" unicode="&#x15a;" horiz-adv-x="557"
d="M53 132l29 42q14 21 37 21q17 0 31 -10q71 -47 126 -47q31 0 48.5 14.5t17.5 39.5q0 28 -30 50.5t-73 42.5t-86 45t-73 71t-30 109q0 84 62 143t164 59q101 0 173 -46q19 -12 19 -39q0 -13 -6 -24l-26 -44q-15 -24 -40 -24q-13 0 -27 8q-38 19 -79 19q-33 0 -51.5 -14
t-18.5 -38q0 -27 21.5 -48t54 -34.5t70.5 -33.5t70.5 -42.5t54 -63t21.5 -94.5q0 -90 -68.5 -148t-171.5 -58q-109 0 -212 80q-15 12 -15 35q0 18 8 29zM241 839l148 74q9 5 20 5q31 0 42 -27l18 -41q4 -10 4 -17q0 -14 -8.5 -25.5t-22.5 -15.5l-157 -50q-9 -3 -18 -3
q-35 0 -49 30q-5 13 -5 23q0 32 28 47z" />
    <glyph glyph-name="sacute" unicode="&#x15b;" horiz-adv-x="459"
d="M41 103l27 37q10 15 28 15q16 0 33 -10q57 -32 113 -32q34 0 34 20q0 13 -24.5 21.5t-59.5 17t-70 22t-59.5 44.5t-24.5 77q0 70 50 108.5t126 38.5q84 0 156 -37q21 -11 21 -36q0 -9 -4 -16l-20 -38q-13 -23 -37 -23q-5 0 -17 4q-48 21 -90 21q-16 0 -25.5 -6t-9.5 -14
q0 -12 24.5 -20.5t59.5 -16.5t70 -21.5t59.5 -43.5t24.5 -75q0 -69 -52.5 -110.5t-141.5 -41.5q-114 0 -184 59q-15 12 -15 31q0 14 8 25zM158 611l49 82q14 23 40 23q18 0 29 -10l33 -25q19 -15 19 -39q0 -18 -12 -32l-61 -68q-17 -19 -43 -19q-20 0 -36 12q-26 18 -26 48
q0 14 8 28z" />
    <glyph glyph-name="Scircumflex" unicode="&#x15c;" horiz-adv-x="557"
d="M53 132l29 42q14 21 37 21q17 0 31 -10q71 -47 126 -47q31 0 48.5 14.5t17.5 39.5q0 28 -30 50.5t-73 42.5t-86 45t-73 71t-30 109q0 84 62 143t164 59q101 0 173 -46q19 -12 19 -39q0 -13 -6 -24l-26 -44q-15 -24 -40 -24q-13 0 -27 8q-38 19 -79 19q-33 0 -51.5 -14
t-18.5 -38q0 -27 21.5 -48t54 -34.5t70.5 -33.5t70.5 -42.5t54 -63t21.5 -94.5q0 -90 -68.5 -148t-171.5 -58q-109 0 -212 80q-15 12 -15 35q0 18 8 29zM270 789l-85 -44q-12 -6 -23 -6q-31 0 -46 26q-8 13 -8 27q0 26 22 40l109 73q15 9 31 9q18 0 31 -9l114 -71
q21 -14 21 -39q0 -15 -9 -29q-18 -27 -47 -27q-13 0 -25 6z" />
    <glyph glyph-name="scircumflex" unicode="&#x15d;" horiz-adv-x="459"
d="M41 103l27 37q10 15 28 15q16 0 33 -10q57 -32 113 -32q34 0 34 20q0 13 -24.5 21.5t-59.5 17t-70 22t-59.5 44.5t-24.5 77q0 70 50 108.5t126 38.5q84 0 156 -37q21 -11 21 -36q0 -9 -4 -16l-20 -38q-13 -23 -37 -23q-5 0 -17 4q-48 21 -90 21q-16 0 -25.5 -6t-9.5 -14
q0 -12 24.5 -20.5t59.5 -16.5t70 -21.5t59.5 -43.5t24.5 -75q0 -69 -52.5 -110.5t-141.5 -41.5q-114 0 -184 59q-15 12 -15 31q0 14 8 25zM226 563l-56 -44q-15 -12 -34 -12q-28 0 -43 21q-12 15 -12 34q0 27 22 44l80 65q19 15 44 15q26 0 45 -16l79 -64q20 -16 20 -44
q0 -21 -12 -36q-17 -21 -43 -21q-21 0 -35 13z" />
    <glyph glyph-name="Scedilla" unicode="&#x15e;" horiz-adv-x="557"
d="M53 132l29 42q14 21 37 21q17 0 31 -10q71 -47 126 -47q31 0 48.5 14.5t17.5 39.5q0 28 -30 50.5t-73 42.5t-86 45t-73 71t-30 109q0 84 62 143t164 59q101 0 173 -46q19 -12 19 -39q0 -13 -6 -24l-26 -44q-15 -24 -40 -24q-13 0 -27 8q-38 19 -79 19q-33 0 -51.5 -14
t-18.5 -38q0 -27 21.5 -48t54 -34.5t70.5 -33.5t70.5 -42.5t54 -63t21.5 -94.5q0 -84 -59 -140t-150 -64v-16q116 -9 116 -90q0 -42 -38.5 -68t-106.5 -26q-77 0 -139 38q-19 12 -19 36q0 12 7 23q12 18 32 18q11 0 25 -7q32 -18 57 -18q22 0 22 13q0 8 -6 13
q-17 11 -21 18.5t-4 27.5v40q-86 12 -168 76q-15 12 -15 35q0 18 8 29z" />
    <glyph glyph-name="scedilla" unicode="&#x15f;" horiz-adv-x="459"
d="M41 103l27 37q10 15 28 15q16 0 33 -10q57 -32 113 -32q34 0 34 20q0 13 -24.5 21.5t-59.5 17t-70 22t-59.5 44.5t-24.5 77q0 70 50 108.5t126 38.5q84 0 156 -37q21 -11 21 -36q0 -9 -4 -16l-20 -38q-13 -23 -37 -23q-5 0 -17 4q-48 21 -90 21q-16 0 -25.5 -6t-9.5 -14
q0 -12 24.5 -20.5t59.5 -16.5t70 -21.5t59.5 -43.5t24.5 -75q0 -62 -44 -102.5t-120 -47.5v-16q106 -9 106 -90q0 -43 -38.5 -68.5t-112.5 -25.5q-61 0 -112 32q-19 12 -19 35q0 12 7 23q12 18 32 18q15 0 27 -7q26 -11 44 -11q22 0 22 13q0 7 -18 28q-13 16 -13 44v26
q-84 9 -139 56q-15 12 -15 31q0 14 8 25z" />
    <glyph glyph-name="Scaron" unicode="&#x160;" horiz-adv-x="557"
d="M53 132l29 42q14 21 37 21q17 0 31 -10q71 -47 126 -47q31 0 48.5 14.5t17.5 39.5q0 28 -30 50.5t-73 42.5t-86 45t-73 71t-30 109q0 84 62 143t164 59q101 0 173 -46q19 -12 19 -39q0 -13 -6 -24l-26 -44q-15 -24 -40 -24q-13 0 -27 8q-38 19 -79 19q-33 0 -51.5 -14
t-18.5 -38q0 -27 21.5 -48t54 -34.5t70.5 -33.5t70.5 -42.5t54 -63t21.5 -94.5q0 -90 -68.5 -148t-171.5 -58q-109 0 -212 80q-15 12 -15 35q0 18 8 29zM278 859l85 51q14 7 26 7q28 0 43 -23q7 -11 7 -27q0 -27 -22 -42l-98 -65q-18 -12 -42 -12t-43 12l-100 63
q-22 14 -22 41q0 16 9 29q17 24 46 24q15 0 26 -7z" />
    <glyph glyph-name="scaron" unicode="&#x161;" horiz-adv-x="459"
d="M41 103l27 37q10 15 28 15q16 0 33 -10q57 -32 113 -32q34 0 34 20q0 13 -24.5 21.5t-59.5 17t-70 22t-59.5 44.5t-24.5 77q0 70 50 108.5t126 38.5q84 0 156 -37q21 -11 21 -36q0 -9 -4 -16l-20 -38q-13 -23 -37 -23q-5 0 -17 4q-48 21 -90 21q-16 0 -25.5 -6t-9.5 -14
q0 -12 24.5 -20.5t59.5 -16.5t70 -21.5t59.5 -43.5t24.5 -75q0 -69 -52.5 -110.5t-141.5 -41.5q-114 0 -184 59q-15 12 -15 31q0 14 8 25zM226 631l56 44q15 12 35 12q26 0 43 -20q11 -16 11 -34q0 -29 -22 -45l-80 -65q-19 -15 -44 -15q-26 0 -45 16l-79 64q-20 16 -20 44
q0 21 12 36q17 21 43 21q21 0 35 -13z" />
    <glyph glyph-name="Tcedilla" unicode="&#x162;"
d="M380 46q0 -18 -13 -31.5t-30 -14.5v-26q116 -9 116 -90q0 -42 -38.5 -68t-106.5 -26q-77 0 -139 38q-19 12 -19 36q0 12 7 23q12 18 32 18q11 0 25 -7q32 -18 57 -18q22 0 22 13q0 8 -6 13q-17 11 -21 18.5t-4 27.5v48q-17 2 -29.5 15t-12.5 31v504h-164
q-19 0 -32.5 13.5t-13.5 32.5v58q0 19 13.5 32.5t32.5 13.5h488q19 0 32.5 -13.5t13.5 -32.5v-58q0 -19 -13.5 -32.5t-32.5 -13.5h-164v-504z" />
    <glyph glyph-name="tcedilla" unicode="&#x163;" horiz-adv-x="363"
d="M313 117l21 -41q4 -8 4 -18q0 -23 -21 -35q-47 -26 -93 -33v-16q106 -9 106 -90q0 -43 -38.5 -68.5t-112.5 -25.5q-61 0 -112 32q-19 12 -19 35q0 12 7 23q12 18 32 18q15 0 27 -7q26 -11 44 -11q22 0 22 13q0 7 -18 28q-13 16 -13 44v26q-104 21 -104 180v366
q0 16 11 27t27 11h74q16 0 27 -11t11 -27v-87h87q16 0 27 -11t11 -27v-64q0 -16 -11 -27t-27 -11h-87v-132q0 -50 33 -50q16 0 34 7q9 4 19 4q22 0 32 -22z" />
    <glyph glyph-name="Tcaron" unicode="&#x164;"
d="M334 0h-68q-19 0 -32.5 13.5t-13.5 32.5v504h-164q-19 0 -32.5 13.5t-13.5 32.5v58q0 19 13.5 32.5t32.5 13.5h488q19 0 32.5 -13.5t13.5 -32.5v-58q0 -19 -13.5 -32.5t-32.5 -13.5h-164v-504q0 -19 -13.5 -32.5t-32.5 -13.5zM296 859l85 51q14 7 26 7q28 0 43 -23
q7 -11 7 -27q0 -27 -22 -42l-98 -65q-18 -12 -42 -12q-23 0 -43 12l-100 63q-22 14 -22 41q0 16 9 29q17 24 46 24q15 0 26 -7z" />
    <glyph glyph-name="tcaron" unicode="&#x165;" horiz-adv-x="363"
d="M313 117l21 -41q4 -8 4 -18q0 -23 -21 -35q-61 -35 -132 -35q-74 0 -107 46.5t-33 136.5v366q0 16 11 27t27 11h74q16 0 27 -11t11 -27v-87h87q16 0 27 -11t11 -27v-64q0 -16 -11 -27t-27 -11h-87v-132q0 -50 33 -50q16 0 34 7q9 4 19 4q22 0 32 -22zM294 487
q-20 0 -34 11q-20 16 -20 40q0 19 10 38q17 36 17 76q0 48 48 48h61q14 0 22.5 -10t8.5 -21q0 -105 -75 -169q-15 -13 -38 -13z" />
    <glyph glyph-name="Umacron" unicode="&#x16a;" horiz-adv-x="751"
d="M511 321v333q0 19 13.5 32.5t32.5 13.5h68q19 0 32.5 -13.5t13.5 -32.5v-365q0 -151 -81.5 -226t-204.5 -75q-139 0 -222 79t-83 229v358q0 19 13.5 32.5t32.5 13.5h68q19 0 32.5 -13.5t13.5 -32.5v-324q0 -192 145 -192q69 0 97.5 46.5t28.5 136.5zM542 822v-24
q0 -20 -14 -34t-34 -14h-218q-20 0 -34 14t-14 34v24q0 20 14 34t34 14h218q20 0 34 -14t14 -34z" />
    <glyph glyph-name="umacron" unicode="&#x16b;" horiz-adv-x="530"
d="M325 169v243q0 16 11 27t27 11h74q16 0 27 -11t11 -27v-374q0 -16 -11 -27t-27 -11h-74q-16 0 -27 12t-11 30q-48 -54 -129 -54q-62 0 -106.5 46t-44.5 133v245q0 16 11 27t27 11h74q16 0 27 -11t11 -27v-213q0 -30 14 -50.5t44 -20.5q39 0 72 41zM407 592v-24
q0 -20 -14.5 -34t-33.5 -14h-198q-19 0 -33.5 14t-14.5 34v24q0 20 14.5 34t33.5 14h198q19 0 33.5 -14t14.5 -34z" />
    <glyph glyph-name="Ubreve" unicode="&#x16c;" horiz-adv-x="751"
d="M511 321v333q0 19 13.5 32.5t32.5 13.5h68q19 0 32.5 -13.5t13.5 -32.5v-365q0 -151 -81.5 -226t-204.5 -75q-139 0 -222 79t-83 229v358q0 19 13.5 32.5t32.5 13.5h68q19 0 32.5 -13.5t13.5 -32.5v-324q0 -192 145 -192q69 0 97.5 46.5t28.5 136.5zM269 890
q46 -30 108 -30t108 30q20 14 38 14q19 0 38 -17q16 -15 16 -38q0 -18 -11 -31q-77 -88 -189 -88t-189 88q-11 13 -11 31q0 23 16 38q19 17 38 17q18 0 38 -14z" />
    <glyph glyph-name="ubreve" unicode="&#x16d;" horiz-adv-x="530"
d="M325 169v243q0 16 11 27t27 11h74q16 0 27 -11t11 -27v-374q0 -16 -11 -27t-27 -11h-74q-16 0 -27 12t-11 30q-48 -54 -129 -54q-62 0 -106.5 46t-44.5 133v245q0 16 11 27t27 11h74q16 0 27 -11t11 -27v-213q0 -30 14 -50.5t44 -20.5q39 0 72 41zM193 651q32 -21 71 -21
q40 0 71 21q22 15 41 15q20 0 36 -16q14 -14 14 -34q0 -19 -13 -34q-67 -73 -149 -73t-149 73q-13 15 -13 34q0 20 14 34q16 16 36 16q19 0 41 -15z" />
    <glyph glyph-name="Uring" unicode="&#x16e;" horiz-adv-x="751"
d="M511 321v333q0 19 13.5 32.5t32.5 13.5h68q19 0 32.5 -13.5t13.5 -32.5v-365q0 -151 -81.5 -226t-204.5 -75q-139 0 -222 79t-83 229v358q0 19 13.5 32.5t32.5 13.5h68q19 0 32.5 -13.5t13.5 -32.5v-324q0 -192 145 -192q69 0 97.5 46.5t28.5 136.5zM220 809
q0 59 43.5 88.5t111.5 29.5q71 0 115.5 -29.5t44.5 -88.5q0 -58 -45 -89.5t-115 -31.5q-67 0 -111 31.5t-44 89.5zM330 809q0 -41 47 -41q48 0 48 41q0 38 -48 38q-47 0 -47 -38z" />
    <glyph glyph-name="uring" unicode="&#x16f;" horiz-adv-x="530"
d="M325 169v243q0 16 11 27t27 11h74q16 0 27 -11t11 -27v-374q0 -16 -11 -27t-27 -11h-74q-16 0 -27 12t-11 30q-48 -54 -129 -54q-62 0 -106.5 46t-44.5 133v245q0 16 11 27t27 11h74q16 0 27 -11t11 -27v-213q0 -30 14 -50.5t44 -20.5q39 0 72 41zM260 484q-59 0 -98 37
t-39 90q0 54 39 91.5t98 37.5q60 0 99.5 -37.5t39.5 -91.5q0 -53 -39.5 -90t-99.5 -37zM262 660q-20 0 -32 -13.5t-12 -33.5q0 -21 12 -35t32 -14q19 0 30.5 14t11.5 35q0 20 -11.5 33.5t-30.5 13.5z" />
    <glyph glyph-name="Uhungarumlaut" unicode="&#x170;" horiz-adv-x="751"
d="M511 321v333q0 19 13.5 32.5t32.5 13.5h68q19 0 32.5 -13.5t13.5 -32.5v-365q0 -151 -81.5 -226t-204.5 -75q-139 0 -222 79t-83 229v358q0 19 13.5 32.5t32.5 13.5h68q19 0 32.5 -13.5t13.5 -32.5v-324q0 -192 145 -192q69 0 97.5 46.5t28.5 136.5zM412 820l95 86
q13 12 33 12q18 0 31 -12l42 -36q10 -9 10 -23q0 -18 -16 -27l-128 -71q-18 -9 -32 -9q-24 0 -38 17q-11 13 -11 30q0 19 14 33zM218 822l53 77q14 22 41 22q10 0 22 -5l52 -27q16 -7 16 -25q0 -13 -10 -22l-101 -86q-12 -11 -32 -11q-19 0 -35 13q-15 15 -15 35q0 15 9 29z
" />
    <glyph glyph-name="uhungarumlaut" unicode="&#x171;" horiz-adv-x="530"
d="M325 169v243q0 16 11 27t27 11h74q16 0 27 -11t11 -27v-374q0 -16 -11 -27t-27 -11h-74q-16 0 -27 12t-11 30q-48 -54 -129 -54q-62 0 -106.5 46t-44.5 133v245q0 16 11 27t27 11h74q16 0 27 -11t11 -27v-213q0 -30 14 -50.5t44 -20.5q39 0 72 41zM296 610l54 72
q16 22 43 22q18 0 32 -11l25 -18q18 -13 18 -38q0 -20 -14 -33l-62 -63q-23 -21 -50 -21q-20 0 -35 12q-21 16 -21 45q0 19 10 33zM120 613l45 80q12 24 42 24q15 0 28 -9l20 -16q22 -16 22 -44q0 -18 -10 -32l-52 -69q-17 -21 -45 -21q-21 0 -35 10q-23 17 -23 46
q0 15 8 31z" />
    <glyph glyph-name="Uogonek" unicode="&#x172;" horiz-adv-x="751"
d="M511 321v333q0 19 13.5 32.5t32.5 13.5h68q19 0 32.5 -13.5t13.5 -32.5v-365q0 -143 -73 -217.5t-187 -82.5q-32 -18 -32 -43q0 -26 30 -26q9 0 21.5 2.5t20.5 2.5q31 0 44 -28q7 -15 7 -28q0 -28 -31 -47q-41 -22 -97 -22q-63 0 -104 24t-41 71q0 64 80 100
q-107 19 -168 96t-61 205v358q0 19 13.5 32.5t32.5 13.5h68q19 0 32.5 -13.5t13.5 -32.5v-324q0 -192 145 -192q69 0 97.5 46.5t28.5 136.5z" />
    <glyph glyph-name="uogonek" unicode="&#x173;" horiz-adv-x="530"
d="M325 169v243q0 16 11 27t27 11h74q16 0 27 -11t11 -27v-374q0 -16 -11 -27t-27 -11h-12q-16 0 -26.5 -18t-10.5 -36q0 -26 30 -26q24 0 34.5 -1t22 -9t17.5 -24q4 -9 4 -22q0 -34 -32 -49q-34 -15 -81 -15q-63 0 -104 24t-41 71q0 38 30 66t75 44q-18 11 -18 37
q-48 -54 -129 -54q-62 0 -106.5 46t-44.5 133v245q0 16 11 27t27 11h74q16 0 27 -11t11 -27v-213q0 -30 14 -50.5t44 -20.5q39 0 72 41z" />
    <glyph glyph-name="Ydieresis" unicode="&#x178;" horiz-adv-x="648"
d="M197 669l133 -234l131 234q16 31 52 31h50q21 0 35.5 -15t14.5 -35q0 -14 -7 -25l-203 -340v-239q0 -19 -13.5 -32.5t-32.5 -13.5h-68q-19 0 -32.5 13.5t-13.5 32.5v239l-201 340q-7 11 -7 25q0 20 14.5 35t35.5 15h60q36 0 52 -31zM114 837q0 36 28 57t70 21
q37 0 64 -21.5t27 -56.5q0 -39 -27 -61.5t-64 -22.5q-42 0 -70 22t-28 62zM345 837q0 36 28.5 57t69.5 21q37 0 64 -21.5t27 -56.5q0 -39 -26.5 -61.5t-64.5 -22.5q-42 0 -70 22t-28 62z" />
    <glyph glyph-name="Zacute" unicode="&#x179;" horiz-adv-x="650"
d="M40 46v31q0 27 28 63l313 410h-275q-19 0 -32.5 13.5t-13.5 32.5v58q0 19 13.5 32.5t32.5 13.5h448q19 0 32.5 -13.5t13.5 -32.5v-31q0 -27 -27 -63l-314 -410h305q19 0 32.5 -13.5t13.5 -32.5v-58q0 -19 -13.5 -32.5t-32.5 -13.5h-478q-19 0 -32.5 13.5t-13.5 32.5z
M280 839l148 74q9 5 20 5q31 0 42 -27l18 -41q4 -10 4 -17q0 -14 -8.5 -25.5t-22.5 -15.5l-157 -50q-9 -3 -18 -3q-35 0 -49 30q-5 13 -5 23q0 32 28 47z" />
    <glyph glyph-name="zacute" unicode="&#x17a;" horiz-adv-x="495"
d="M40 38v50q0 22 16 38l190 184h-153q-16 0 -27 11t-11 27v64q0 16 11 27t27 11h324q16 0 27 -11t11 -27v-50q0 -22 -16 -38l-191 -184h164q16 0 27 -11t11 -27v-64q0 -16 -11 -27t-27 -11h-334q-16 0 -27 11t-11 27zM190 611l49 82q14 23 40 23q18 0 29 -10l33 -25
q19 -15 19 -39q0 -18 -12 -32l-61 -68q-17 -19 -43 -19q-20 0 -36 12q-26 18 -26 48q0 14 8 28z" />
    <glyph glyph-name="Zdotaccent" unicode="&#x17b;" horiz-adv-x="650"
d="M40 46v31q0 27 28 63l313 410h-275q-19 0 -32.5 13.5t-13.5 32.5v58q0 19 13.5 32.5t32.5 13.5h448q19 0 32.5 -13.5t13.5 -32.5v-31q0 -27 -27 -63l-314 -410h305q19 0 32.5 -13.5t13.5 -32.5v-58q0 -19 -13.5 -32.5t-32.5 -13.5h-478q-19 0 -32.5 13.5t-13.5 32.5z
M234 845q0 41 29.5 65.5t71.5 24.5q39 0 67.5 -25t28.5 -65q0 -44 -28.5 -70t-67.5 -26q-43 0 -72 25.5t-29 70.5z" />
    <glyph glyph-name="zdotaccent" unicode="&#x17c;" horiz-adv-x="495"
d="M40 38v50q0 22 16 38l190 184h-153q-16 0 -27 11t-11 27v64q0 16 11 27t27 11h324q16 0 27 -11t11 -27v-50q0 -22 -16 -38l-191 -184h164q16 0 27 -11t11 -27v-64q0 -16 -11 -27t-27 -11h-334q-16 0 -27 11t-11 27zM156 605q0 39 26.5 62t64.5 23q34 0 59.5 -23.5
t25.5 -61.5q0 -42 -25.5 -66.5t-59.5 -24.5q-39 0 -65 24t-26 67z" />
    <glyph glyph-name="Zcaron" unicode="&#x17d;" horiz-adv-x="650"
d="M40 46v31q0 27 28 63l313 410h-275q-19 0 -32.5 13.5t-13.5 32.5v58q0 19 13.5 32.5t32.5 13.5h448q19 0 32.5 -13.5t13.5 -32.5v-31q0 -27 -27 -63l-314 -410h305q19 0 32.5 -13.5t13.5 -32.5v-58q0 -19 -13.5 -32.5t-32.5 -13.5h-478q-19 0 -32.5 13.5t-13.5 32.5z
M337 859l85 51q14 7 26 7q28 0 43 -23q7 -11 7 -27q0 -27 -22 -42l-98 -65q-18 -12 -42 -12t-43 12l-100 63q-22 14 -22 41q0 16 9 29q16 24 46 24q15 0 26 -7z" />
    <glyph glyph-name="zcaron" unicode="&#x17e;" horiz-adv-x="495"
d="M40 38v50q0 22 16 38l190 184h-153q-16 0 -27 11t-11 27v64q0 16 11 27t27 11h324q16 0 27 -11t11 -27v-50q0 -22 -16 -38l-191 -184h164q16 0 27 -11t11 -27v-64q0 -16 -11 -27t-27 -11h-334q-16 0 -27 11t-11 27zM258 631l56 44q15 12 35 12q26 0 43 -20q11 -16 11 -34
q0 -29 -22 -45l-80 -65q-20 -15 -44 -15q-26 0 -45 16l-79 64q-20 16 -20 44q0 21 12 36q17 21 43 21q21 0 35 -13z" />
    <glyph glyph-name="longs" unicode="&#x17f;" horiz-adv-x="268"
d="M205 514v-476q0 -16 -11 -27t-27 -11h-74q-16 0 -27 11t-11 27v485q0 92 43.5 140.5t120.5 48.5q60 0 112 -26q22 -11 22 -33q0 -11 -5 -21l-24 -46q-11 -21 -30 -21q-5 0 -15 2q-21 5 -33 5q-17 0 -29 -15t-12 -43z" />
    <glyph glyph-name="uni018F" unicode="&#x18f;" horiz-adv-x="776"
d="M155 652q98 60 231 60q154 0 253.5 -100t99.5 -262q0 -167 -98.5 -264.5t-262.5 -97.5q-151 0 -246 96.5t-95 267.5q0 22 1 34q1 18 15.5 32t33.5 14h478q-23 63 -80 96.5t-138 33.5q-58 0 -113 -27q-14 -7 -28 -7q-26 0 -41 24l-24 37q-7 10 -7 25q0 24 21 38zM208 282
q8 -60 52 -102t116 -42q157 0 195 144h-363z" />
    <glyph glyph-name="florin" unicode="&#x192;" horiz-adv-x="593"
d="M562 642l-24 -52q-11 -23 -32 -23q-7 0 -11 1q-20 4 -27 4q-34 0 -44 -58l-11 -64h51q16 0 27 -11t11 -27v-64q0 -16 -11 -27t-27 -11h-75l-59 -343q-17 -90 -50 -132.5t-104 -42.5q-63 0 -116 27q-21 11 -21 33q0 7 5 19l22 47q10 21 30 21q6 0 20.5 -3.5t22.5 -3.5
q15 0 26 14t15 35l57 329h-57q-16 0 -27 11t-11 27v64q0 16 11 27t27 11h81l13 73q19 100 56.5 144.5t110.5 44.5q53 0 102 -20q23 -11 23 -32q0 -10 -4 -18z" />
    <glyph glyph-name="uni01DD" unicode="&#x1dd;" horiz-adv-x="512"
d="M176 175q0 -25 19.5 -43.5t53.5 -18.5q67 0 89 62h-162zM88 424q68 38 156 38q110 0 174 -65t64 -172q0 -103 -61 -170t-172 -67q-97 0 -163 59t-66 153q0 27 3 45q1 11 12 20.5t22 9.5h276q-20 62 -105 62q-46 0 -81 -13q-11 -4 -22 -4q-25 0 -35 21l-16 32q-4 8 -4 18
q0 22 18 33z" />
    <glyph glyph-name="Scommaaccent" unicode="&#x218;" horiz-adv-x="557"
d="M53 132l29 42q14 21 37 21q17 0 31 -10q71 -47 126 -47q31 0 48.5 14.5t17.5 39.5q0 28 -30 50.5t-73 42.5t-86 45t-73 71t-30 109q0 84 62 143t164 59q101 0 173 -46q19 -12 19 -39q0 -13 -6 -24l-26 -44q-15 -24 -40 -24q-13 0 -27 8q-38 19 -79 19q-33 0 -51.5 -14
t-18.5 -38q0 -27 21.5 -48t54 -34.5t70.5 -33.5t70.5 -42.5t54 -63t21.5 -94.5q0 -90 -68.5 -148t-171.5 -58q-109 0 -212 80q-15 12 -15 35q0 18 8 29zM233 -204q-25 0 -36 15q-10 13 -10 26q0 17 19 38q13 14 13 40q0 22 6 30.5t24 12.5l82 16h5q13 0 23 -10.5t10 -32.5
q0 -46 -33.5 -81t-80.5 -51q-9 -3 -22 -3z" />
    <glyph glyph-name="scommaaccent" unicode="&#x219;" horiz-adv-x="459"
d="M41 103l27 37q10 15 28 15q16 0 33 -10q57 -32 113 -32q34 0 34 20q0 13 -24.5 21.5t-59.5 17t-70 22t-59.5 44.5t-24.5 77q0 70 50 108.5t126 38.5q84 0 156 -37q21 -11 21 -36q0 -9 -4 -16l-20 -38q-13 -23 -37 -23q-5 0 -17 4q-48 21 -90 21q-16 0 -25.5 -6t-9.5 -14
q0 -12 24.5 -20.5t59.5 -16.5t70 -21.5t59.5 -43.5t24.5 -75q0 -69 -52.5 -110.5t-141.5 -41.5q-114 0 -184 59q-15 12 -15 31q0 14 8 25zM177 -204q-25 0 -36 15q-10 13 -10 26q0 17 19 38q13 14 13 40q0 22 6 30.5t24 12.5l82 16h5q13 0 23 -10.5t10 -32.5
q0 -46 -33.5 -81t-80.5 -51q-9 -3 -22 -3z" />
    <glyph glyph-name="Tcommaaccent" unicode="&#x21a;"
d="M334 0h-68q-19 0 -32.5 13.5t-13.5 32.5v504h-164q-19 0 -32.5 13.5t-13.5 32.5v58q0 19 13.5 32.5t32.5 13.5h488q19 0 32.5 -13.5t13.5 -32.5v-58q0 -19 -13.5 -32.5t-32.5 -13.5h-164v-504q0 -19 -13.5 -32.5t-32.5 -13.5zM237 -204q-25 0 -36 15q-10 13 -10 26
q0 17 19 38q13 14 13 40q0 22 6 30.5t24 12.5l82 16h5q13 0 23 -10.5t10 -32.5q0 -46 -33.5 -81t-80.5 -51q-9 -3 -22 -3z" />
    <glyph glyph-name="tcommaaccent" unicode="&#x21b;" horiz-adv-x="363"
d="M313 117l21 -41q4 -8 4 -18q0 -23 -21 -35q-61 -35 -132 -35q-74 0 -107 46.5t-33 136.5v366q0 16 11 27t27 11h74q16 0 27 -11t11 -27v-87h87q16 0 27 -11t11 -27v-64q0 -16 -11 -27t-27 -11h-87v-132q0 -50 33 -50q16 0 34 7q9 4 19 4q22 0 32 -22zM112 -204
q-25 0 -36 15q-10 13 -10 26q0 17 19 38q13 14 13 40q0 22 6 30.5t24 12.5l82 16h5q13 0 23 -10.5t10 -32.5q0 -46 -33.5 -81t-80.5 -51q-9 -3 -22 -3z" />
    <glyph glyph-name="uni0237" unicode="&#x237;" horiz-adv-x="284"
d="M79 -19v431q0 16 11 27t27 11h74q16 0 27 -11t11 -27v-445q0 -175 -141 -175q-49 0 -93 16q-25 8 -25 35q0 3 2 13l17 53q8 25 32 25q8 0 12 -1q10 -2 18 -2q28 0 28 50z" />
    <glyph glyph-name="uni0259" unicode="&#x259;" horiz-adv-x="512"
d="M176 175q0 -25 19.5 -43.5t53.5 -18.5q67 0 89 62h-162zM88 424q68 38 156 38q110 0 174 -65t64 -172q0 -103 -61 -170t-172 -67q-97 0 -163 59t-66 153q0 27 3 45q1 11 12 20.5t22 9.5h276q-20 62 -105 62q-46 0 -81 -13q-11 -4 -22 -4q-25 0 -35 21l-16 32q-4 8 -4 18
q0 22 18 33z" />
    <glyph glyph-name="afii57929" unicode="&#x2bc;" horiz-adv-x="239"
d="M127 415q-17 0 -34 12q-19 15 -19 38q0 15 11 37q14 30 14 60q0 15 -5 33q-4 11 -4 21q0 20 24 34l52 30q10 6 21 6q13 0 24 -8.5t15 -18.5q13 -30 13 -64q0 -98 -74 -166q-16 -14 -38 -14z" />
    <glyph glyph-name="circumflex" unicode="&#x2c6;" horiz-adv-x="455"
d="M227 563l-56 -44q-15 -12 -34 -12q-28 0 -43 21q-12 15 -12 34q0 27 22 44l80 65q19 15 44 15q26 0 45 -16l79 -64q20 -16 20 -44q0 -21 -12 -36q-16 -21 -43 -21q-21 0 -35 13z" />
    <glyph glyph-name="caron" unicode="&#x2c7;" horiz-adv-x="455"
d="M228 631l56 44q15 12 35 12q26 0 43 -20q11 -16 11 -34q0 -29 -22 -45l-80 -65q-19 -15 -44 -15q-26 0 -45 16l-79 64q-20 16 -20 44q0 21 12 36q16 21 43 21q21 0 35 -13z" />
    <glyph glyph-name="breve" unicode="&#x2d8;" horiz-adv-x="452"
d="M160 651q32 -21 71 -21t71 21q22 15 41 15q20 0 36 -16q14 -14 14 -34q0 -19 -13 -34q-67 -73 -149 -73t-149 73q-13 15 -13 34q0 20 14 34q16 16 36 16q19 0 41 -15z" />
    <glyph glyph-name="dotaccent" unicode="&#x2d9;" horiz-adv-x="296"
d="M60 605q0 39 26.5 62t64.5 23q34 0 59.5 -23.5t25.5 -61.5q0 -42 -25.5 -66.5t-59.5 -24.5q-39 0 -65 24t-26 67z" />
    <glyph glyph-name="ring" unicode="&#x2da;" horiz-adv-x="396"
d="M197 484q-59 0 -98 37t-39 90q0 54 39 91.5t98 37.5q60 0 99.5 -37.5t39.5 -91.5q0 -53 -39.5 -90t-99.5 -37zM199 660q-20 0 -32 -13.5t-12 -33.5q0 -21 12 -35t32 -14q19 0 30.5 14t11.5 35q0 20 -11.5 33.5t-30.5 13.5z" />
    <glyph glyph-name="ogonek" unicode="&#x2db;" horiz-adv-x="385"
d="M299 0h-12q-33 0 -55 -18t-22 -36q0 -26 30 -26q24 0 34.5 -1t22 -9t17.5 -24q4 -9 4 -22q0 -34 -32 -49q-34 -15 -81 -15q-63 0 -104 24t-41 71q0 61 69 94t158 33h12v-22z" />
    <glyph glyph-name="tilde" unicode="&#x2dc;" horiz-adv-x="485"
d="M429 611q0 -25 -19 -44q-32 -30 -54.5 -41t-49.5 -11q-22 0 -63.5 20.5t-64.5 20.5q-11 0 -32 -14q-19 -13 -36 -13q-21 0 -34 16q-11 13 -11 28q0 23 20 43q28 28 49.5 38t49.5 10q24 0 65.5 -18.5t61.5 -18.5q9 0 36 17q19 12 35 12q21 0 39 -21q8 -9 8 -24z" />
    <glyph glyph-name="hungarumlaut" unicode="&#x2dd;" horiz-adv-x="519"
d="M262 610l54 72q16 22 43 22q18 0 32 -11l25 -18q18 -13 18 -38q0 -20 -14 -33l-62 -63q-23 -21 -50 -21q-20 0 -35 12q-21 16 -21 45q0 19 10 33zM86 613l45 80q12 24 42 24q15 0 28 -9l20 -16q22 -16 22 -44q0 -18 -10 -32l-52 -69q-16 -21 -45 -21q-21 0 -35 10
q-23 17 -23 46q0 15 8 31z" />
    <glyph glyph-name="gravecomb" unicode="&#x300;" horiz-adv-x="0"
d="M-283 691l49 -80q8 -14 8 -28q0 -30 -26 -48q-16 -12 -36 -12q-25 0 -44 19l-61 66q-13 15 -13 33q0 24 19 38l35 25q11 10 29 10q28 0 40 -23z" />
    <glyph glyph-name="acutecomb" unicode="&#x301;" horiz-adv-x="0"
d="M-316 611l49 82q14 23 40 23q18 0 29 -10l33 -25q19 -15 19 -39q0 -18 -12 -32l-61 -68q-17 -19 -43 -19q-20 0 -36 12q-26 18 -26 48q0 14 8 28z" />
    <glyph glyph-name="uni0394" unicode="&#x394;" horiz-adv-x="748"
d="M354 708h33q16 0 29.5 -9t19.5 -23l270 -616q4 -12 4 -17q0 -18 -12.5 -30.5t-30.5 -12.5h-586q-18 0 -30.5 12.5t-12.5 30.5q0 5 4 17l263 616q6 14 19.5 23t29.5 9zM367 440l-119 -290h246z" />
    <glyph glyph-name="uni0394" unicode="&#x2206;" horiz-adv-x="748"
d="M354 708h33q16 0 29.5 -9t19.5 -23l270 -616q4 -12 4 -17q0 -18 -12.5 -30.5t-30.5 -12.5h-586q-18 0 -30.5 12.5t-12.5 30.5q0 5 4 17l263 616q6 14 19.5 23t29.5 9zM367 440l-119 -290h246z" />
    <glyph glyph-name="uni03A9" unicode="&#x3a9;" horiz-adv-x="829"
d="M381 112v-66q0 -19 -13.5 -32.5t-32.5 -13.5h-249q-19 0 -32.5 13.5t-13.5 32.5v58q0 19 13.5 32.5t32.5 13.5h98q-44 14 -87.5 82.5t-43.5 157.5q0 148 103 235t259 87q159 0 260.5 -86.5t101.5 -235.5q0 -95 -43.5 -159.5t-88.5 -80.5h98q19 0 32.5 -13.5t13.5 -32.5
v-58q0 -19 -13.5 -32.5t-32.5 -13.5h-249q-19 0 -32.5 13.5t-13.5 32.5v68q0 18 10 30t33 24q55 28 85.5 82.5t30.5 112.5q0 80 -51 139.5t-141 59.5q-95 0 -143.5 -59t-48.5 -143q0 -50 30.5 -107.5t84.5 -85.5q24 -12 33.5 -24t9.5 -31z" />
    <glyph glyph-name="uni03A9" unicode="&#x2126;" horiz-adv-x="829"
d="M381 112v-66q0 -19 -13.5 -32.5t-32.5 -13.5h-249q-19 0 -32.5 13.5t-13.5 32.5v58q0 19 13.5 32.5t32.5 13.5h98q-44 14 -87.5 82.5t-43.5 157.5q0 148 103 235t259 87q159 0 260.5 -86.5t101.5 -235.5q0 -95 -43.5 -159.5t-88.5 -80.5h98q19 0 32.5 -13.5t13.5 -32.5
v-58q0 -19 -13.5 -32.5t-32.5 -13.5h-249q-19 0 -32.5 13.5t-13.5 32.5v68q0 18 10 30t33 24q55 28 85.5 82.5t30.5 112.5q0 80 -51 139.5t-141 59.5q-95 0 -143.5 -59t-48.5 -143q0 -50 30.5 -107.5t84.5 -85.5q24 -12 33.5 -24t9.5 -31z" />
    <glyph glyph-name="pi" unicode="&#x3c0;" horiz-adv-x="616"
d="M20 91q0 22 7.5 32t28.5 18q45 18 50 119l2 50h-35q-16 0 -27 11t-11 27v64q0 16 11 27t27 11h457q16 0 27 -11t11 -27v-64q0 -16 -11 -27t-27 -11h-27v-124q0 -59 31 -59q5 0 14 0.5t13 0.5q23 0 33 -24l14 -36q3 -8 3 -15q0 -23 -19 -34q-58 -31 -127 -31
q-112 0 -112 141v181h-96v-30q0 -156 -45.5 -219.5t-149.5 -71.5h-2q-15 0 -27.5 10.5t-12.5 26.5v65z" />
    <glyph glyph-name="afii10023" unicode="&#x401;" horiz-adv-x="575"
d="M515 104v-58q0 -19 -13.5 -32.5t-32.5 -13.5h-333q-19 0 -32.5 13.5t-13.5 32.5v608q0 19 13.5 32.5t32.5 13.5h323q19 0 32.5 -13.5t13.5 -32.5v-58q0 -19 -13.5 -32.5t-32.5 -13.5h-209v-123h179q19 0 32.5 -13.5t13.5 -32.5v-58q0 -19 -13.5 -32.5t-32.5 -13.5h-179
v-127h219q19 0 32.5 -13.5t13.5 -32.5zM100 837q0 36 28 57t70 21q37 0 64 -21.5t27 -56.5q0 -39 -27 -61.5t-64 -22.5q-42 0 -70 22t-28 62zM331 837q0 36 28.5 57t69.5 21q37 0 64 -21.5t27 -56.5q0 -39 -26.5 -61.5t-64.5 -22.5q-42 0 -70 22t-28 62z" />
    <glyph glyph-name="afii10051" unicode="&#x402;" horiz-adv-x="767"
d="M380 550v-157q53 30 135 30q212 0 212 -220q0 -105 -48.5 -160t-136.5 -55q-55 0 -103 26q-22 13 -22 37q0 10 4 18l21 48q13 28 38 28q9 0 18 -3q19 -4 27 -4q42 0 42 62q0 73 -82 73q-61 0 -105 -26v-201q0 -19 -13.5 -32.5t-32.5 -13.5h-68q-19 0 -32.5 13.5
t-13.5 32.5v504h-164q-19 0 -32.5 13.5t-13.5 32.5v58q0 19 13.5 32.5t32.5 13.5h488q19 0 32.5 -13.5t13.5 -32.5v-58q0 -19 -13.5 -32.5t-32.5 -13.5h-164z" />
    <glyph glyph-name="afii10052" unicode="&#x403;" horiz-adv-x="510"
d="M250 550v-504q0 -19 -13.5 -32.5t-32.5 -13.5h-68q-19 0 -32.5 13.5t-13.5 32.5v608q0 19 13.5 32.5t32.5 13.5h308q19 0 32.5 -13.5t13.5 -32.5v-58q0 -19 -13.5 -32.5t-32.5 -13.5h-194zM290 839l148 74q9 5 20 5q31 0 42 -27l18 -41q4 -10 4 -17q0 -14 -8.5 -25.5
t-22.5 -15.5l-157 -50q-9 -3 -18 -3q-35 0 -49 30q-5 13 -5 23q0 32 28 47z" />
    <glyph glyph-name="afii10053" unicode="&#x404;" horiz-adv-x="668"
d="M557 534q-13 0 -26 6q-48 22 -109 22q-80 0 -134.5 -33.5t-75.5 -96.5h231q19 0 32.5 -13.5t13.5 -32.5v-58q0 -19 -13.5 -32.5t-32.5 -13.5h-234q20 -73 80.5 -108.5t137.5 -35.5q64 0 120 29q13 6 26 6q27 0 41 -24l25 -44q6 -11 6 -24q0 -27 -24 -42q-82 -51 -207 -51
q-172 0 -273 97t-101 265q0 162 99.5 262t253.5 100q128 0 213 -50q21 -13 21 -39q0 -12 -6 -24l-22 -39q-14 -26 -42 -26z" />
    <glyph glyph-name="afii10054" unicode="&#x405;" horiz-adv-x="557"
d="M53 132l29 42q14 21 37 21q17 0 31 -10q71 -47 126 -47q31 0 48.5 14.5t17.5 39.5q0 28 -30 50.5t-73 42.5t-86 45t-73 71t-30 109q0 84 62 143t164 59q101 0 173 -46q19 -12 19 -39q0 -13 -6 -24l-26 -44q-15 -24 -40 -24q-13 0 -27 8q-38 19 -79 19q-33 0 -51.5 -14
t-18.5 -38q0 -27 21.5 -48t54 -34.5t70.5 -33.5t70.5 -42.5t54 -63t21.5 -94.5q0 -90 -68.5 -148t-171.5 -58q-109 0 -212 80q-15 12 -15 35q0 18 8 29z" />
    <glyph glyph-name="afii10055" unicode="&#x406;" horiz-adv-x="360"
d="M260 654v-608q0 -19 -13.5 -32.5t-32.5 -13.5h-68q-19 0 -32.5 13.5t-13.5 32.5v608q0 19 13.5 32.5t32.5 13.5h68q19 0 32.5 -13.5t13.5 -32.5z" />
    <glyph glyph-name="afii10056" unicode="&#x407;" horiz-adv-x="361"
d="M10 837q0 36 24 57t59 21q33 0 56.5 -21.5t23.5 -56.5q0 -39 -23.5 -61.5t-56.5 -22.5q-35 0 -59 22t-24 62zM188 837q0 36 24 57t60 21q32 0 55.5 -21.5t23.5 -56.5q0 -39 -23 -61.5t-56 -22.5q-36 0 -60 22t-24 62zM260 654v-608q0 -19 -13.5 -32.5t-32.5 -13.5h-68
q-19 0 -32.5 13.5t-13.5 32.5v608q0 19 13.5 32.5t32.5 13.5h68q19 0 32.5 -13.5t13.5 -32.5z" />
    <glyph glyph-name="afii10057" unicode="&#x408;" horiz-adv-x="407"
d="M157 200v454q0 19 13.5 32.5t32.5 13.5h68q19 0 32.5 -13.5t13.5 -32.5v-483q0 -89 -48 -136t-137 -47q-59 0 -109 25q-26 13 -26 38q0 11 6 24l18 41q13 28 39 28q11 0 23 -3q11 -3 22 -3h5q22 0 34.5 16t12.5 46z" />
    <glyph glyph-name="afii10058" unicode="&#x409;" horiz-adv-x="997"
d="M641 330v-178q34 -4 46 -4q100 0 100 97q0 45 -26.5 67.5t-72.5 22.5q-15 0 -47 -5zM167 560l7 94q2 20 16 33t33 13h372q19 0 32.5 -13.5t13.5 -32.5v-173q32 4 61 4q126 0 190.5 -63t64.5 -173q0 -116 -76 -183.5t-213 -67.5q-61 0 -141 2q-19 0 -32.5 14t-13.5 33v503
h-154l-15 -132q-19 -165 -51.5 -258t-78.5 -129t-118 -36q-20 0 -32.5 11.5t-12.5 29.5v60q0 23 8.5 35.5t33.5 23.5q42 18 65.5 99.5t40.5 305.5z" />
    <glyph glyph-name="afii10059" unicode="&#x40a;" horiz-adv-x="1012"
d="M250 304v-258q0 -19 -13.5 -32.5t-32.5 -13.5h-68q-19 0 -32.5 13.5t-13.5 32.5v608q0 19 13.5 32.5t32.5 13.5h68q19 0 32.5 -13.5t13.5 -32.5v-200h245v200q0 19 13.5 32.5t32.5 13.5h68q19 0 32.5 -13.5t13.5 -32.5v-193q33 4 62 4q125 0 190 -61.5t65 -164.5
q0 -108 -76.5 -174.5t-212.5 -66.5q-38 0 -142 2q-19 0 -32.5 14t-13.5 33v257h-245zM655 152q36 -4 47 -4q49 0 74.5 22.5t25.5 64.5q0 38 -27 59t-72 21q-15 0 -48 -5v-158z" />
    <glyph glyph-name="afii10060" unicode="&#x40b;" horiz-adv-x="768"
d="M334 0h-68q-19 0 -32.5 13.5t-13.5 32.5v504h-164q-19 0 -32.5 13.5t-13.5 32.5v58q0 19 13.5 32.5t32.5 13.5h488q19 0 32.5 -13.5t13.5 -32.5v-58q0 -19 -13.5 -32.5t-32.5 -13.5h-164v-157q53 30 133 30q40 0 76.5 -11.5t68.5 -36t51 -69.5t19 -106v-154
q0 -19 -13.5 -32.5t-32.5 -13.5h-68q-19 0 -32.5 13.5t-13.5 32.5v106q0 70 -26.5 95.5t-71.5 25.5q-47 0 -90 -27v-200q0 -19 -13.5 -32.5t-32.5 -13.5z" />
    <glyph glyph-name="afii10061" unicode="&#x40c;" horiz-adv-x="688"
d="M250 333v-287q0 -19 -13.5 -32.5t-32.5 -13.5h-68q-19 0 -32.5 13.5t-13.5 32.5v608q0 19 13.5 32.5t32.5 13.5h68q19 0 32.5 -13.5t13.5 -32.5v-259l208 277q21 28 56 28h66q19 0 31.5 -13t12.5 -30q0 -15 -10 -28l-206 -252l229 -304q10 -13 10 -28q0 -18 -13 -31.5
t-33 -13.5h-77q-35 0 -56 29zM350 839l148 74q9 5 20 5q31 0 42 -27l18 -41q4 -10 4 -17q0 -14 -8.5 -25.5t-22.5 -15.5l-157 -50q-9 -3 -18 -3q-35 0 -49 30q-5 13 -5 23q0 32 28 47z" />
    <glyph glyph-name="afii10062" unicode="&#x40e;" horiz-adv-x="694"
d="M205 669l179 -311l128 309q15 33 49 33h57q20 0 32.5 -12.5t12.5 -30.5q0 -9 -5 -21l-206 -470q-37 -83 -85.5 -124.5t-119.5 -41.5q-44 0 -82 17q-23 11 -23 37q0 10 4 21l19 49q12 31 42 31q6 0 18 -2q13 -3 26 -3q34 0 47 28l9 21l-259 431q-7 13 -7 27q0 18 12 30.5
t32 12.5h67q35 0 53 -31zM574 861q0 -65 -56 -103t-156 -38t-156 38t-56 103q0 69 74 69q76 0 76 -69q0 -18 14 -24.5t48 -6.5t48 6.5t14 24.5q0 69 76 69q74 0 74 -69z" />
    <glyph glyph-name="afii10145" unicode="&#x40f;" horiz-adv-x="735"
d="M396 -150h-58q-19 0 -32.5 13.5t-13.5 32.5v104h-156q-19 0 -32.5 13.5t-13.5 32.5v608q0 19 13.5 32.5t32.5 13.5h68q19 0 32.5 -13.5t13.5 -32.5v-504h235v504q0 19 13.5 32.5t32.5 13.5h68q19 0 32.5 -13.5t13.5 -32.5v-608q0 -19 -13.5 -32.5t-32.5 -13.5h-157v-104
q0 -19 -13.5 -32.5t-32.5 -13.5z" />
    <glyph glyph-name="afii10017" unicode="&#x410;" horiz-adv-x="721"
d="M494 147h-277l-45 -114q-13 -33 -48 -33h-61q-18 0 -30.5 13t-12.5 30q0 9 3 17l252 607q15 33 49 33h73q34 0 49 -33l252 -607q3 -8 3 -17q0 -17 -12.5 -30t-30.5 -13h-71q-35 0 -48 33zM356 495l-79 -198h157z" />
    <glyph glyph-name="afii10018" unicode="&#x411;" horiz-adv-x="617"
d="M250 439q29 6 80 6q102 0 164.5 -59t62.5 -157q0 -110 -71 -172t-201 -62q-73 0 -149 4q-19 1 -32.5 14.5t-13.5 33.5v607q0 19 13.5 32.5t32.5 13.5h330q19 0 32.5 -13.5t13.5 -32.5v-58q0 -19 -13.5 -32.5t-32.5 -13.5h-216v-111zM250 289v-139q43 -5 60 -5q87 0 87 72
q0 34 -19.5 56t-60.5 22q-31 0 -67 -6z" />
    <glyph glyph-name="afii10019" unicode="&#x412;" horiz-adv-x="617"
d="M537 530q0 -103 -80 -157q43 -17 71.5 -57.5t28.5 -103.5q0 -106 -73.5 -161t-192.5 -55q-86 0 -155 3q-18 1 -32 15.5t-14 32.5v605q0 19 13.5 33t32.5 15q94 4 166 4q119 0 177 -48t58 -126zM250 283v-131q22 -6 54 -6q93 0 93 74q0 63 -85 63h-62zM250 423h53
q74 0 74 68q0 30 -22.5 46.5t-54.5 16.5q-14 0 -50 -4v-127z" />
    <glyph glyph-name="afii10020" unicode="&#x413;" horiz-adv-x="510"
d="M250 550v-504q0 -19 -13.5 -32.5t-32.5 -13.5h-68q-19 0 -32.5 13.5t-13.5 32.5v608q0 19 13.5 32.5t32.5 13.5h308q19 0 32.5 -13.5t13.5 -32.5v-58q0 -19 -13.5 -32.5t-32.5 -13.5h-194z" />
    <glyph glyph-name="afii10021" unicode="&#x414;" horiz-adv-x="764"
d="M160 0v-74q0 -19 -13.5 -32.5t-32.5 -13.5h-58q-19 0 -32.5 13.5t-13.5 32.5v178q0 19 13.5 32.5t32.5 13.5h29q29 37 61.5 147.5t39.5 262.5l4 94q1 19 15 32.5t33 13.5h365q19 0 32.5 -13.5t13.5 -32.5v-504h49q19 0 32.5 -13.5t13.5 -32.5v-178q0 -19 -13.5 -32.5
t-32.5 -13.5h-58q-19 0 -32.5 13.5t-13.5 32.5v74h-434zM489 150v400h-142l-11 -118q-8 -86 -32 -171.5t-43 -110.5h228z" />
    <glyph glyph-name="afii10022" unicode="&#x415;" horiz-adv-x="575"
d="M515 104v-58q0 -19 -13.5 -32.5t-32.5 -13.5h-333q-19 0 -32.5 13.5t-13.5 32.5v608q0 19 13.5 32.5t32.5 13.5h323q19 0 32.5 -13.5t13.5 -32.5v-58q0 -19 -13.5 -32.5t-32.5 -13.5h-209v-123h179q19 0 32.5 -13.5t13.5 -32.5v-58q0 -19 -13.5 -32.5t-32.5 -13.5h-179
v-127h219q19 0 32.5 -13.5t13.5 -32.5z" />
    <glyph glyph-name="afii10024" unicode="&#x416;" horiz-adv-x="966"
d="M95 700h61q36 0 55 -29l192 -277v260q0 19 13.5 32.5t32.5 13.5h68q19 0 32.5 -13.5t13.5 -32.5v-260l192 277q19 29 55 29h61q20 0 32.5 -13t12.5 -31q0 -15 -9 -27l-191 -263l204 -294q8 -11 8 -26q0 -18 -13 -32t-33 -14h-61q-35 0 -55 29l-203 306v-289
q0 -19 -13.5 -32.5t-32.5 -13.5h-68q-19 0 -32.5 13.5t-13.5 32.5v289l-203 -306q-20 -29 -55 -29h-61q-20 0 -33 14t-13 32q0 15 8 26l204 293l-191 264q-9 12 -9 27q0 18 12.5 31t32.5 13z" />
    <glyph glyph-name="afii10025" unicode="&#x417;" horiz-adv-x="589"
d="M286 712q97 0 156.5 -51.5t59.5 -145.5q0 -90 -88 -150q115 -39 115 -169q0 -93 -76 -150.5t-175 -57.5q-128 0 -230 94q-15 14 -15 35q0 17 11 31l35 40q15 17 36 17q16 0 30 -11q70 -56 126 -56q39 0 68.5 17.5t29.5 56.5q0 32 -27 51.5t-82 19.5h-18q-19 0 -32.5 13.5
t-13.5 32.5v58q0 19 13.5 32.5t32.5 13.5h14q37 0 61.5 16.5t24.5 47.5q0 32 -21 48.5t-56 16.5q-45 0 -94 -36q-16 -11 -31 -11q-22 0 -37 18l-31 37q-10 11 -10 29q0 24 16 36q95 77 208 77z" />
    <glyph glyph-name="afii10026" unicode="&#x418;" horiz-adv-x="790"
d="M654 0h-68q-19 0 -32.5 13.5t-13.5 32.5v389l-290 -406q-19 -29 -52 -29h-62q-19 0 -32.5 13.5t-13.5 32.5v608q0 19 13.5 32.5t32.5 13.5h68q19 0 32.5 -13.5t13.5 -32.5v-389l290 406q19 29 52 29h62q19 0 32.5 -13.5t13.5 -32.5v-608q0 -19 -13.5 -32.5t-32.5 -13.5z
" />
    <glyph glyph-name="afii10027" unicode="&#x419;" horiz-adv-x="790"
d="M654 0h-68q-19 0 -32.5 13.5t-13.5 32.5v389l-290 -406q-19 -29 -52 -29h-62q-19 0 -32.5 13.5t-13.5 32.5v608q0 19 13.5 32.5t32.5 13.5h68q19 0 32.5 -13.5t13.5 -32.5v-389l290 406q19 29 52 29h62q19 0 32.5 -13.5t13.5 -32.5v-608q0 -19 -13.5 -32.5t-32.5 -13.5z
M624 861q0 -65 -56 -103t-156 -38t-156 38t-56 103q0 69 74 69q76 0 76 -69q0 -18 14 -24.5t48 -6.5t48 6.5t14 24.5q0 69 76 69q74 0 74 -69z" />
    <glyph glyph-name="afii10028" unicode="&#x41a;" horiz-adv-x="688"
d="M250 333v-287q0 -19 -13.5 -32.5t-32.5 -13.5h-68q-19 0 -32.5 13.5t-13.5 32.5v608q0 19 13.5 32.5t32.5 13.5h68q19 0 32.5 -13.5t13.5 -32.5v-259l208 277q21 28 56 28h66q19 0 31.5 -13t12.5 -30q0 -15 -10 -28l-206 -252l229 -304q10 -13 10 -28q0 -18 -13 -31.5
t-33 -13.5h-77q-35 0 -56 29z" />
    <glyph glyph-name="afii10029" unicode="&#x41b;" horiz-adv-x="731"
d="M641 654v-608q0 -19 -13.5 -32.5t-32.5 -13.5h-68q-19 0 -32.5 13.5t-13.5 32.5v504h-154l-15 -132q-19 -165 -51.5 -258t-78.5 -129t-118 -36q-20 0 -32.5 11.5t-12.5 29.5v60q0 23 8.5 35.5t33.5 23.5q42 18 65.5 99.5t40.5 305.5l7 94q2 20 16 33t33 13h372
q19 0 32.5 -13.5t13.5 -32.5z" />
    <glyph glyph-name="afii10030" unicode="&#x41c;" horiz-adv-x="912"
d="M250 443v-397q0 -19 -13.5 -32.5t-32.5 -13.5h-68q-19 0 -32.5 13.5t-13.5 32.5v608q0 19 13.5 32.5t32.5 13.5h84q31 0 52 -28l195 -267l184 266q19 29 50 29h75q19 0 32.5 -13.5t13.5 -32.5v-608q0 -19 -13.5 -32.5t-32.5 -13.5h-68q-19 0 -32.5 13.5t-13.5 32.5v400
l-145 -204q-26 -35 -61 -35t-61 35z" />
    <glyph glyph-name="afii10031" unicode="&#x41d;" horiz-adv-x="755"
d="M665 654v-608q0 -19 -13.5 -32.5t-32.5 -13.5h-68q-19 0 -32.5 13.5t-13.5 32.5v236h-255v-236q0 -19 -13.5 -32.5t-32.5 -13.5h-68q-19 0 -32.5 13.5t-13.5 32.5v608q0 19 13.5 32.5t32.5 13.5h68q19 0 32.5 -13.5t13.5 -32.5v-222h255v222q0 19 13.5 32.5t32.5 13.5h68
q19 0 32.5 -13.5t13.5 -32.5z" />
    <glyph glyph-name="afii10032" unicode="&#x41e;" horiz-adv-x="824"
d="M40 350q0 155 103.5 258.5t268.5 103.5q163 0 267.5 -99t104.5 -263q0 -158 -105.5 -260t-266.5 -102q-163 0 -267.5 99t-104.5 263zM210 350q0 -90 59 -151t143 -61q96 0 149 59.5t53 152.5q0 94 -58 153t-144 59q-88 0 -145 -58.5t-57 -153.5z" />
    <glyph glyph-name="afii10033" unicode="&#x41f;" horiz-adv-x="745"
d="M655 654v-608q0 -19 -13.5 -32.5t-32.5 -13.5h-68q-19 0 -32.5 13.5t-13.5 32.5v504h-245v-504q0 -19 -13.5 -32.5t-32.5 -13.5h-68q-19 0 -32.5 13.5t-13.5 32.5v608q0 19 13.5 32.5t32.5 13.5h473q19 0 32.5 -13.5t13.5 -32.5z" />
    <glyph glyph-name="afii10034" unicode="&#x420;" horiz-adv-x="627"
d="M304 702q149 0 216 -65.5t67 -166.5q0 -98 -71 -166.5t-188 -68.5q-53 0 -78 3v-192q0 -19 -13.5 -32.5t-32.5 -13.5h-68q-19 0 -32.5 13.5t-13.5 32.5v607q0 19 13.5 33t32.5 14q106 2 168 2zM250 550v-160q38 -5 73 -5q38 0 66 20t28 66q0 81 -97 81q-4 0 -70 -2z" />
    <glyph glyph-name="afii10035" unicode="&#x421;" horiz-adv-x="653"
d="M506 544q-46 18 -100 18q-85 0 -140.5 -56t-55.5 -156q0 -93 59 -152.5t153 -59.5q56 0 109 27q14 7 29 7q27 0 41 -24l24 -38q7 -12 7 -25q0 -26 -22 -42q-80 -55 -203 -55q-163 0 -265 99.5t-102 262.5q0 158 96 260t270 102q92 0 170 -39q24 -11 24 -39q0 -10 -5 -22
l-22 -46q-12 -27 -43 -27q-11 0 -24 5z" />
    <glyph glyph-name="afii10036" unicode="&#x422;"
d="M334 0h-68q-19 0 -32.5 13.5t-13.5 32.5v504h-164q-19 0 -32.5 13.5t-13.5 32.5v58q0 19 13.5 32.5t32.5 13.5h488q19 0 32.5 -13.5t13.5 -32.5v-58q0 -19 -13.5 -32.5t-32.5 -13.5h-164v-504q0 -19 -13.5 -32.5t-32.5 -13.5z" />
    <glyph glyph-name="afii10037" unicode="&#x423;" horiz-adv-x="694"
d="M205 669l179 -311l128 309q15 33 49 33h57q20 0 32.5 -12.5t12.5 -30.5q0 -9 -5 -21l-206 -470q-37 -83 -85.5 -124.5t-119.5 -41.5q-44 0 -82 17q-23 11 -23 37q0 10 4 21l19 49q12 31 42 31q6 0 18 -2q13 -3 26 -3q34 0 47 28l9 21l-259 431q-7 13 -7 27q0 18 12 30.5
t32 12.5h67q35 0 53 -31z" />
    <glyph glyph-name="afii10038" unicode="&#x424;" horiz-adv-x="844"
d="M501 86v-48q0 -19 -13.5 -32.5t-32.5 -13.5h-68q-19 0 -32.5 13.5t-13.5 32.5v48q-143 2 -227 73.5t-84 200.5q0 127 85 198.5t226 75.5v28q0 19 13.5 32.5t32.5 13.5h68q19 0 32.5 -13.5t13.5 -32.5v-28q140 -3 226.5 -76t86.5 -198q0 -128 -85.5 -200t-227.5 -74z
M501 233q77 1 110 32.5t33 94.5q0 55 -34 90t-109 37v-254zM341 487q-72 -2 -106.5 -37t-34.5 -90q0 -124 141 -127v254z" />
    <glyph glyph-name="afii10039" unicode="&#x425;" horiz-adv-x="666"
d="M214 670l123 -195l118 195q18 30 53 30h65q20 0 34 -14t14 -33q0 -13 -8 -26l-176 -270l185 -284q8 -13 8 -26q0 -19 -14 -33t-34 -14h-65q-34 0 -54 30l-131 205l-129 -205q-20 -30 -54 -30h-65q-20 0 -34 14t-14 33q0 13 8 26l185 284l-174 269q-8 13 -8 26
q0 19 14 33.5t34 14.5h65q34 0 54 -30z" />
    <glyph glyph-name="afii10040" unicode="&#x426;" horiz-adv-x="765"
d="M699 -120h-58q-19 0 -32.5 13.5t-13.5 32.5v74h-459q-19 0 -32.5 13.5t-13.5 32.5v608q0 19 13.5 32.5t32.5 13.5h68q19 0 32.5 -13.5t13.5 -32.5v-504h240v504q0 19 13.5 32.5t32.5 13.5h68q19 0 32.5 -13.5t13.5 -32.5v-504h49q19 0 32.5 -13.5t13.5 -32.5v-178
q0 -19 -13.5 -32.5t-32.5 -13.5z" />
    <glyph glyph-name="afii10041" unicode="&#x427;" horiz-adv-x="685"
d="M435 414v240q0 19 13.5 32.5t32.5 13.5h68q19 0 32.5 -13.5t13.5 -32.5v-608q0 -19 -13.5 -32.5t-32.5 -13.5h-68q-19 0 -32.5 13.5t-13.5 32.5v222q-52 -41 -150 -41q-40 0 -76.5 11.5t-68.5 36t-51 69.5t-19 106v204q0 19 13.5 32.5t32.5 13.5h68q19 0 32.5 -13.5
t13.5 -32.5v-156q0 -70 26.5 -95.5t71.5 -25.5q56 0 107 37z" />
    <glyph glyph-name="afii10042" unicode="&#x428;" horiz-adv-x="1000"
d="M910 654v-608q0 -19 -13.5 -32.5t-32.5 -13.5h-728q-19 0 -32.5 13.5t-13.5 32.5v608q0 19 13.5 32.5t32.5 13.5h68q19 0 32.5 -13.5t13.5 -32.5v-504h170v504q0 19 13.5 32.5t32.5 13.5h68q19 0 32.5 -13.5t13.5 -32.5v-504h170v504q0 19 13.5 32.5t32.5 13.5h68
q19 0 32.5 -13.5t13.5 -32.5z" />
    <glyph glyph-name="afii10043" unicode="&#x429;" horiz-adv-x="1025"
d="M959 -120h-58q-19 0 -32.5 13.5t-13.5 32.5v74h-719q-19 0 -32.5 13.5t-13.5 32.5v608q0 19 13.5 32.5t32.5 13.5h68q19 0 32.5 -13.5t13.5 -32.5v-504h170v504q0 19 13.5 32.5t32.5 13.5h68q19 0 32.5 -13.5t13.5 -32.5v-504h170v504q0 19 13.5 32.5t32.5 13.5h68
q19 0 32.5 -13.5t13.5 -32.5v-504h49q19 0 32.5 -13.5t13.5 -32.5v-178q0 -19 -13.5 -32.5t-32.5 -13.5z" />
    <glyph glyph-name="afii10044" unicode="&#x42a;" horiz-adv-x="677"
d="M338 -2q-60 0 -142 2q-19 0 -32.5 14t-13.5 33v503h-94q-19 0 -32.5 13.5t-13.5 32.5v58q0 19 13.5 32.5t32.5 13.5h208q19 0 32.5 -13.5t13.5 -32.5v-173q33 4 62 4q133 0 199 -62.5t66 -173.5q0 -115 -78 -183t-221 -68zM310 330v-178q36 -4 47 -4q110 0 110 97
q0 90 -109 90q-15 0 -48 -5z" />
    <glyph glyph-name="afii10045" unicode="&#x42b;" horiz-adv-x="885"
d="M795 654v-608q0 -19 -13.5 -32.5t-32.5 -13.5h-68q-19 0 -32.5 13.5t-13.5 32.5v608q0 19 13.5 32.5t32.5 13.5h68q19 0 32.5 -13.5t13.5 -32.5zM250 330v-178q36 -4 47 -4q100 0 100 97q0 45 -26.5 67.5t-72.5 22.5q-15 0 -48 -5zM90 47v607q0 19 13.5 32.5t32.5 13.5
h68q19 0 32.5 -13.5t13.5 -32.5v-173q33 4 62 4q126 0 190.5 -63t64.5 -173q0 -114 -76 -182.5t-213 -68.5q-60 0 -142 2q-19 0 -32.5 14t-13.5 33z" />
    <glyph glyph-name="afii10046" unicode="&#x42c;" horiz-adv-x="617"
d="M250 330v-178q36 -4 47 -4q110 0 110 97q0 90 -109 90q-15 0 -48 -5zM90 47v607q0 19 13.5 32.5t32.5 13.5h68q19 0 32.5 -13.5t13.5 -32.5v-173q33 4 62 4q133 0 199 -62.5t66 -173.5q0 -115 -78 -183t-221 -68q-60 0 -142 2q-19 0 -32.5 14t-13.5 33z" />
    <glyph glyph-name="afii10047" unicode="&#x42d;" horiz-adv-x="668"
d="M98 179q14 0 28 -7q63 -34 125 -34q75 0 132.5 35.5t76.5 108.5h-235q-19 0 -32.5 13.5t-13.5 32.5v58q0 19 13.5 32.5t32.5 13.5h229q-23 63 -80 96.5t-138 33.5q-55 0 -112 -27q-14 -7 -29 -7q-26 0 -40 23l-23 37q-7 11 -7 25q0 25 23 40q94 59 227 59
q154 0 253.5 -100t99.5 -262q0 -168 -101 -265t-273 -97q-118 0 -210 58q-21 13 -21 40q0 14 7 24l31 47q15 22 37 22z" />
    <glyph glyph-name="afii10048" unicode="&#x42e;" horiz-adv-x="1084"
d="M250 282v-236q0 -19 -13.5 -32.5t-32.5 -13.5h-68q-19 0 -32.5 13.5t-13.5 32.5v608q0 19 13.5 32.5t32.5 13.5h68q19 0 32.5 -13.5t13.5 -32.5v-222h88q25 125 117 202.5t227 77.5q162 0 262 -98.5t100 -263.5q0 -159 -101 -260.5t-261 -101.5q-132 0 -229 79.5
t-118 214.5h-85zM500 350q0 -89 55 -150.5t132 -61.5q95 0 141 58.5t46 153.5q0 96 -51 154t-136 58q-81 0 -134 -58.5t-53 -153.5z" />
    <glyph glyph-name="afii10049" unicode="&#x42f;" horiz-adv-x="639"
d="M549 653v-607q0 -19 -13.5 -32.5t-32.5 -13.5h-68q-19 0 -32.5 13.5t-13.5 32.5v179h-71l-115 -195q-18 -30 -53 -30h-61q-20 0 -33 13.5t-13 32.5q0 13 7 24l120 190q-108 64 -108 191q0 109 74 181t227 72q14 0 37.5 -0.5t55 -1.5t47.5 -1q19 -1 32.5 -14.5t13.5 -33.5
zM389 375v175q-20 4 -58 4q-41 0 -70 -25t-29 -67q0 -37 21 -58.5t52 -28.5h84z" />
    <glyph glyph-name="afii10065" unicode="&#x430;" horiz-adv-x="465"
d="M30 136q0 73 45.5 111t116.5 38q56 0 88 -25v9q0 68 -64 68q-36 0 -74 -11q-10 -2 -14 -2q-30 0 -39 26l-13 33q-3 7 -3 15q0 25 24 36q65 28 136 28q100 0 143.5 -48t43.5 -143v-233q0 -16 -11 -27t-27 -11h-54q-16 0 -27 11.5t-11 28.5q-34 -46 -118 -46
q-63 0 -102.5 37.5t-39.5 104.5zM280 142v28q-21 15 -57 15q-19 0 -31 -9t-12 -25q0 -15 12 -23.5t31 -8.5q40 0 57 23z" />
    <glyph glyph-name="afii10066" unicode="&#x431;" horiz-adv-x="539"
d="M514 221q0 -98 -66 -165.5t-174 -67.5q-117 0 -183 78t-66 211q0 286 173 362q35 16 88.5 30.5t75.5 27.5q22 12 35 12q18 0 32 -18l39 -50q9 -12 9 -27q0 -16 -9 -26q-35 -36 -72.5 -50.5t-77.5 -21.5t-65 -20q-68 -36 -77 -119q21 27 59.5 45t79.5 18q89 0 144 -59.5
t55 -159.5zM185 245q1 -48 23 -82.5t62 -34.5q41 0 62.5 24.5t21.5 61.5t-20 61.5t-58 24.5q-66 0 -91 -55z" />
    <glyph glyph-name="afii10067" unicode="&#x432;" horiz-adv-x="511"
d="M461 336q0 -39 -24 -66t-55 -33q42 -13 65.5 -39.5t23.5 -62.5q0 -141 -222 -141q-36 0 -156 5q-16 1 -27 12.5t-11 27.5v372q0 17 11 28.5t27 11.5q105 5 155 5q213 0 213 -120zM205 180v-62q44 -4 61 -4q20 0 33 9.5t13 22.5q0 34 -59 34h-48zM205 270h50q47 0 47 34
q0 13 -10.5 22.5t-29.5 9.5q-39 0 -57 -3v-63z" />
    <glyph glyph-name="afii10068" unicode="&#x433;" horiz-adv-x="385"
d="M205 310v-272q0 -16 -11 -27t-27 -11h-74q-16 0 -27 11t-11 27v374q0 16 11 27t27 11h244q16 0 27 -11t11 -27v-64q0 -16 -11 -27t-27 -11h-132z" />
    <glyph glyph-name="afii10069" unicode="&#x434;" horiz-adv-x="574"
d="M150 0v-62q0 -16 -11 -27t-27 -11h-64q-16 0 -27 11t-11 27v164q0 16 11 27t27 11h20q49 64 58 213l4 59q1 16 12.5 27t27.5 11h281q16 0 27 -11t11 -27v-272h37q16 0 27 -11t11 -27v-164q0 -16 -11 -27t-27 -11h-64q-16 0 -27 11t-11 27v62h-274zM339 140v170h-67
l-2 -18q-12 -101 -45 -152h114z" />
    <glyph glyph-name="afii10070" unicode="&#x435;" horiz-adv-x="512"
d="M455 175h-270q20 -62 105 -62q46 0 81 13q11 4 22 4q25 0 35 -21l16 -32q4 -8 4 -18q0 -22 -18 -33q-68 -38 -156 -38q-111 0 -177.5 65t-66.5 172q0 101 67.5 169t176.5 68q90 0 154 -59.5t64 -152.5q0 -27 -3 -45q-1 -11 -12 -20.5t-22 -9.5zM342 275q0 25 -19.5 43.5
t-53.5 18.5q-67 0 -89 -62h162z" />
    <glyph glyph-name="afii10072" unicode="&#x436;" horiz-adv-x="733"
d="M76 450h81q31 0 44 -27l89 -173v162q0 16 11 27t27 11h74q16 0 27 -11t11 -27v-163l93 174q13 27 44 27h77q17 0 28.5 -12t11.5 -28q0 -11 -6 -20l-96 -159l107 -171q6 -9 6 -20q0 -16 -11 -28t-28 -12h-77q-30 0 -45 27l-104 186v-175q0 -16 -11 -27t-27 -11h-74
q-16 0 -27 11t-11 27v174l-101 -185q-15 -27 -45 -27h-77q-17 0 -28 11.5t-11 27.5q0 11 6 21l104 171l-96 159q-6 9 -6 20q0 16 11.5 28t28.5 12z" />
    <glyph glyph-name="afii10073" unicode="&#x437;" horiz-adv-x="468"
d="M237 462q92 0 140.5 -35t48.5 -97q0 -32 -22 -58.5t-60 -39.5q92 -22 92 -107q0 -63 -58 -100t-155 -37q-59 0 -98 11.5t-79 43.5q-14 11 -14 31q0 13 8 23l23 30q13 17 33 17q12 0 25 -7q48 -29 90 -29q65 0 65 32q0 34 -48 34h-48q-16 0 -27 11t-11 27v24q0 16 11 27
t27 11h43q22 0 32.5 10.5t10.5 25.5q0 32 -58 32q-40 0 -85 -29q-11 -7 -24 -7q-21 0 -34 18l-19 26q-7 10 -7 23q0 19 14 30q82 59 184 59z" />
    <glyph glyph-name="afii10074" unicode="&#x438;" horiz-adv-x="570"
d="M477 0h-74q-16 0 -27 11t-11 27v197l-143 -210q-17 -25 -43 -25h-86q-16 0 -27 11t-11 27v374q0 16 11 27t27 11h74q16 0 27 -11t11 -27v-197l143 210q17 25 42 25h87q16 0 27 -11t11 -27v-374q0 -16 -11 -27t-27 -11z" />
    <glyph glyph-name="afii10075" unicode="&#x439;" horiz-adv-x="570"
d="M477 0h-74q-16 0 -27 11t-11 27v197l-143 -210q-17 -25 -43 -25h-86q-16 0 -27 11t-11 27v374q0 16 11 27t27 11h74q16 0 27 -11t11 -27v-197l143 210q17 25 42 25h87q16 0 27 -11t11 -27v-374q0 -16 -11 -27t-27 -11zM461 641q0 -63 -42 -102t-130 -39t-130 39t-42 102
q0 30 16 49.5t49 19.5t49 -19.5t16 -49.5q0 -29 42 -29t42 29q0 30 16 49.5t49 19.5t49 -19.5t16 -49.5z" />
    <glyph glyph-name="afii10076" unicode="&#x43a;" horiz-adv-x="530"
d="M205 210v-172q0 -16 -11 -27t-27 -11h-74q-16 0 -27 11t-11 27v374q0 16 11 27t27 11h74q16 0 27 -11t11 -27v-170l107 182q15 26 45 26h85q17 0 28 -11.5t11 -27.5q0 -12 -7 -22l-105 -153l125 -176q7 -10 7 -22q0 -15 -10.5 -26.5t-26.5 -11.5h-91q-30 0 -47 25z" />
    <glyph glyph-name="afii10077" unicode="&#x43b;" horiz-adv-x="543"
d="M488 412v-374q0 -16 -11 -27t-27 -11h-74q-16 0 -27 11t-11 27v262h-79l-2 -22q-14 -158 -58.5 -223t-133.5 -65q-18 0 -30.5 11t-12.5 27v52q0 28 5.5 38.5t27.5 21.5q25 12 39 49t18 121l5 102q1 16 12.5 27t27.5 11h293q16 0 27 -11t11 -27z" />
    <glyph glyph-name="afii10078" unicode="&#x43c;" horiz-adv-x="636"
d="M205 221v-183q0 -16 -11 -27t-27 -11h-74q-16 0 -27 11t-11 27v374q0 16 11 27t27 11h71q26 0 46 -23l115 -130l106 129q21 24 45 24h67q16 0 27 -11t11 -27v-374q0 -16 -11 -27t-27 -11h-74q-16 0 -27 11t-11 27v183l-85 -96q-10 -12 -26 -12q-15 0 -26 11z" />
    <glyph glyph-name="afii10079" unicode="&#x43d;" horiz-adv-x="555"
d="M500 412v-374q0 -16 -11 -27t-27 -11h-74q-16 0 -27 11t-11 27v117h-145v-117q0 -16 -11 -27t-27 -11h-74q-16 0 -27 11t-11 27v374q0 16 11 27t27 11h74q16 0 27 -11t11 -27v-117h145v117q0 16 11 27t27 11h74q16 0 27 -11t11 -27z" />
    <glyph glyph-name="afii10080" unicode="&#x43e;" horiz-adv-x="560"
d="M30 225q0 103 68.5 170t181.5 67t181.5 -67t68.5 -170t-68.5 -170t-181.5 -67t-181.5 67t-68.5 170zM190 225q0 -42 25.5 -69.5t64.5 -27.5t64.5 26t25.5 71q0 43 -26 70t-64 27t-64 -26.5t-26 -70.5z" />
    <glyph glyph-name="afii10081" unicode="&#x43f;" horiz-adv-x="550"
d="M495 412v-374q0 -16 -11 -27t-27 -11h-74q-16 0 -27 11t-11 27v272h-140v-272q0 -16 -11 -27t-27 -11h-74q-16 0 -27 11t-11 27v374q0 16 11 27t27 11h364q16 0 27 -11t11 -27z" />
    <glyph glyph-name="afii10082" unicode="&#x440;" horiz-adv-x="561"
d="M205 2v-164q0 -16 -11 -27t-27 -11h-74q-16 0 -27 11t-11 27v574q0 16 11 27t27 11h79q14 0 23.5 -10t9.5 -23q47 45 125 45q90 0 145.5 -64.5t55.5 -165.5q0 -105 -67 -174.5t-175 -69.5q-51 0 -84 14zM205 282v-137q29 -17 70 -17q47 0 71.5 28.5t24.5 72.5
q0 41 -23.5 67t-64.5 26q-42 0 -78 -40z" />
    <glyph glyph-name="afii10083" unicode="&#x441;" horiz-adv-x="487"
d="M356 304q-36 18 -69 18q-38 0 -67.5 -26t-29.5 -71q0 -43 30.5 -70t68.5 -27q35 0 70 22q13 9 28 9q19 0 31 -16l31 -41q8 -11 8 -24q0 -20 -16 -32q-71 -58 -161 -58q-114 0 -182 65t-68 172q0 100 66.5 168.5t171.5 68.5q92 0 157 -42q22 -14 22 -35q0 -10 -6 -19
l-29 -48q-12 -20 -34 -20q-12 0 -22 6z" />
    <glyph glyph-name="afii10084" unicode="&#x442;" horiz-adv-x="450"
d="M262 0h-74q-16 0 -27 11t-11 27v262h-92q-16 0 -27 11t-11 27v74q0 16 11 27t27 11h334q16 0 27 -11t11 -27v-74q0 -16 -11 -27t-27 -11h-92v-262q0 -16 -11 -27t-27 -11z" />
    <glyph glyph-name="afii10085" unicode="&#x443;" horiz-adv-x="515"
d="M256 244q6 -16 17 -62q4 40 11 63l51 176q9 29 38 29h71q20 0 34 -14.5t14 -33.5q0 -8 -3 -17l-150 -385q-48 -118 -86.5 -159t-95.5 -41q-48 0 -95 30q-16 11 -16 31q0 11 6 22l22 39q8 13 14 18.5t19 5.5q5 0 19 -4t24 -4q23 0 39 38l10 24l-172 386q-4 8 -4 19
q0 18 13 31.5t32 13.5h81q29 0 41 -29z" />
    <glyph glyph-name="afii10086" unicode="&#x444;" horiz-adv-x="700"
d="M425 -12v-150q0 -16 -11 -27t-27 -11h-74q-16 0 -27 11t-11 27v150q-117 0 -181 66t-64 171q0 98 65 167.5t180 69.5v200q0 16 11 27t27 11h74q16 0 27 -11t11 -27v-200q116 0 180.5 -67t64.5 -170q0 -106 -62 -171.5t-183 -65.5zM275 322q-85 0 -85 -97q0 -96 85 -97
v194zM425 322v-194q85 0 85 97q0 41 -21 69t-64 28z" />
    <glyph glyph-name="afii10087" unicode="&#x445;" horiz-adv-x="530"
d="M213 423l55 -101l57 101q15 27 45 27h65q18 0 30 -12.5t12 -29.5q0 -13 -7 -23l-97 -149l108 -170q7 -10 7 -23q0 -18 -12.5 -30.5t-30.5 -12.5h-75q-30 0 -45 27l-63 115l-68 -116q-15 -26 -45 -26h-65q-18 0 -30 12.5t-12 29.5q0 13 7 23l106 163l-97 156q-7 11 -7 23
q0 18 12.5 30.5t30.5 12.5h75q31 0 44 -27z" />
    <glyph glyph-name="afii10088" unicode="&#x446;" horiz-adv-x="570"
d="M522 -100h-64q-16 0 -27 11t-11 27v62h-327q-16 0 -27 11t-11 27v374q0 16 11 27t27 11h74q16 0 27 -11t11 -27v-272h130v272q0 16 11 27t27 11h74q16 0 27 -11t11 -27v-272h37q16 0 27 -11t11 -27v-164q0 -16 -11 -27t-27 -11z" />
    <glyph glyph-name="afii10089" unicode="&#x447;" horiz-adv-x="500"
d="M295 267v145q0 16 11 27t27 11h74q16 0 27 -11t11 -27v-374q0 -16 -11 -27t-27 -11h-74q-16 0 -27 11t-11 27v98q-43 -19 -100 -19q-88 0 -126.5 46t-38.5 135v114q0 16 11 27t27 11h84q16 0 27 -11t11 -27v-94q0 -61 48 -61q37 0 57 10z" />
    <glyph glyph-name="afii10090" unicode="&#x448;" horiz-adv-x="740"
d="M685 412v-374q0 -16 -11 -27t-27 -11h-554q-16 0 -27 11t-11 27v374q0 16 11 27t27 11h74q16 0 27 -11t11 -27v-272h90v272q0 16 11 27t27 11h74q16 0 27 -11t11 -27v-272h90v272q0 16 11 27t27 11h74q16 0 27 -11t11 -27z" />
    <glyph glyph-name="afii10091" unicode="&#x449;" horiz-adv-x="770"
d="M722 -100h-64q-16 0 -27 11t-11 27v62h-527q-16 0 -27 11t-11 27v374q0 16 11 27t27 11h74q16 0 27 -11t11 -27v-272h90v272q0 16 11 27t27 11h74q16 0 27 -11t11 -27v-272h90v272q0 16 11 27t27 11h74q16 0 27 -11t11 -27v-272h37q16 0 27 -11t11 -27v-164
q0 -16 -11 -27t-27 -11z" />
    <glyph glyph-name="afii10092" unicode="&#x44a;" horiz-adv-x="552"
d="M316 0h-153q-16 0 -27 11t-11 27v272h-67q-16 0 -27 11t-11 27v64q0 16 11 27t27 11h179q16 0 27 -11t11 -27v-67h52q109 0 157 -46.5t48 -115.5q0 -76 -53 -129.5t-163 -53.5zM275 130h38q59 0 59 47q0 48 -58 48h-39v-95z" />
    <glyph glyph-name="afii10093" unicode="&#x44b;" horiz-adv-x="705"
d="M205 345h47q109 0 157 -46.5t48 -115.5q0 -76 -53 -129.5t-163 -53.5h-148q-16 0 -27 11t-11 27v374q0 16 11 27t27 11h74q16 0 27 -11t11 -27v-67zM650 412v-374q0 -16 -11 -27t-27 -11h-74q-16 0 -27 11t-11 27v374q0 16 11 27t27 11h74q16 0 27 -11t11 -27zM205 130
h33q59 0 59 47q0 48 -58 48h-34v-95z" />
    <glyph glyph-name="afii10094" unicode="&#x44c;" horiz-adv-x="482"
d="M205 345h52q109 0 157 -46.5t48 -115.5q0 -76 -53 -129.5t-163 -53.5h-153q-16 0 -27 11t-11 27v374q0 16 11 27t27 11h74q16 0 27 -11t11 -27v-67zM205 130h38q59 0 59 47q0 48 -58 48h-39v-95z" />
    <glyph glyph-name="afii10095" unicode="&#x44d;" horiz-adv-x="495"
d="M94 144q15 0 30 -7q40 -19 82 -19q82 0 100 59h-142q-16 0 -27 11t-11 27v24q0 16 11 27t27 11h139q-23 55 -94 55q-47 0 -86 -18q-10 -5 -23 -5q-24 0 -35 20l-20 33q-7 12 -7 22q0 20 20 33q73 45 151 45q117 0 185.5 -64t68.5 -173q0 -103 -65.5 -170t-182.5 -67
q-100 0 -167 48q-16 12 -16 31q0 12 7 24l21 34q12 19 34 19z" />
    <glyph glyph-name="afii10096" unicode="&#x44e;" horiz-adv-x="785"
d="M215 155v-117q0 -16 -11 -27t-27 -11h-84q-16 0 -27 11t-11 27v374q0 16 11 27t27 11h84q16 0 27 -11t11 -27v-107h61q22 72 82.5 114.5t146.5 42.5q112 0 181 -67t69 -170q0 -102 -69.5 -169.5t-180.5 -67.5q-90 0 -151 45.5t-81 121.5h-58zM435 225q0 -42 21 -64.5
t54 -22.5q34 0 54.5 22.5t20.5 64.5q0 41 -19.5 64t-55.5 23q-33 0 -54 -23t-21 -64z" />
    <glyph glyph-name="afii10097" unicode="&#x44f;" horiz-adv-x="490"
d="M60 62l62 86q-75 40 -75 133q0 75 59.5 122t181.5 47h117q16 0 27 -11t11 -27v-374q0 -16 -11 -27t-27 -11h-74q-16 0 -27 11t-11 27v77h-36l-55 -89q-16 -26 -46 -26h-64q-17 0 -28.5 12t-11.5 27q0 12 8 23zM293 225v95h-29q-26 0 -41.5 -13t-15.5 -34
q0 -23 16.5 -35.5t42.5 -12.5h27z" />
    <glyph glyph-name="afii10071" unicode="&#x451;" horiz-adv-x="512"
d="M455 175h-270q20 -62 105 -62q46 0 81 13q11 4 22 4q25 0 35 -21l16 -32q4 -8 4 -18q0 -22 -18 -33q-68 -38 -156 -38q-111 0 -177.5 65t-66.5 172q0 101 67.5 169t176.5 68q90 0 154 -59.5t64 -152.5q0 -27 -3 -45q-1 -11 -12 -20.5t-22 -9.5zM342 275q0 25 -19.5 43.5
t-53.5 18.5q-67 0 -89 -62h162zM179 503q-35 0 -58.5 23t-23.5 63q0 37 23.5 59t58.5 22q30 0 53 -22t23 -59q0 -40 -22.5 -63t-53.5 -23zM372 503q-35 0 -58.5 23t-23.5 63q0 37 24 59t58 22q31 0 53.5 -22t22.5 -59q0 -40 -22.5 -63t-53.5 -23z" />
    <glyph glyph-name="afii10099" unicode="&#x452;" horiz-adv-x="584"
d="M227 0h-74q-16 0 -27 11t-11 27v367h-67q-16 0 -27 11t-11 27v44q0 16 11 27t27 11h67v137q0 16 11 27t27 11h74q16 0 27 -11t11 -27v-137h98q16 0 27 -11t11 -27v-44q0 -16 -11 -27t-27 -11h-98v-86q44 39 111 39q83 0 133 -46t50 -142q0 -222 -143 -356
q-10 -10 -26 -10q-17 0 -28 10l-33 29q-13 10 -13 26q0 14 10 27q82 108 82 237q0 42 -19 63.5t-52 21.5q-43 0 -72 -29v-151q0 -16 -11 -27t-27 -11z" />
    <glyph glyph-name="afii10100" unicode="&#x453;" horiz-adv-x="385"
d="M205 310v-272q0 -16 -11 -27t-27 -11h-74q-16 0 -27 11t-11 27v374q0 16 11 27t27 11h244q16 0 27 -11t11 -27v-64q0 -16 -11 -27t-27 -11h-132zM183 611l49 82q14 23 40 23q18 0 29 -10l33 -25q19 -15 19 -39q0 -18 -12 -32l-61 -68q-17 -19 -43 -19q-19 0 -36 12
q-26 18 -26 48q0 14 8 28z" />
    <glyph glyph-name="afii10101" unicode="&#x454;" horiz-adv-x="488"
d="M396 309q-12 0 -25 6q-37 17 -87 17q-72 0 -95 -55h140q16 0 27 -11t11 -27v-24q0 -16 -11 -27t-27 -11h-141q22 -59 109 -59q40 0 73 18q16 7 25 7q21 0 33 -18l22 -33q8 -13 8 -24q0 -18 -15 -30q-65 -50 -155 -50q-122 0 -190 67t-68 170q0 109 68.5 173t188.5 64
q86 0 151 -43q17 -11 17 -32q0 -11 -5 -20l-22 -39q-12 -19 -32 -19z" />
    <glyph glyph-name="afii10102" unicode="&#x455;" horiz-adv-x="459"
d="M41 103l27 37q10 15 28 15q16 0 33 -10q57 -32 113 -32q34 0 34 20q0 13 -24.5 21.5t-59.5 17t-70 22t-59.5 44.5t-24.5 77q0 70 50 108.5t126 38.5q84 0 156 -37q21 -11 21 -36q0 -9 -4 -16l-20 -38q-13 -23 -37 -23q-5 0 -17 4q-48 21 -90 21q-16 0 -25.5 -6t-9.5 -14
q0 -12 24.5 -20.5t59.5 -16.5t70 -21.5t59.5 -43.5t24.5 -75q0 -69 -52.5 -110.5t-141.5 -41.5q-114 0 -184 59q-15 12 -15 31q0 14 8 25z" />
    <glyph glyph-name="afii10103" unicode="&#x456;" horiz-adv-x="286"
d="M218 412v-374q0 -16 -11 -27t-27 -11h-74q-16 0 -27 11t-11 27v374q0 16 11 27t27 11h74q16 0 27 -11t11 -27zM55 605q0 39 26.5 62t64.5 23q34 0 59.5 -23.5t25.5 -61.5q0 -42 -25.5 -66.5t-59.5 -24.5q-39 0 -65 24t-26 67z" />
    <glyph glyph-name="afii10104" unicode="&#x457;" horiz-adv-x="337"
d="M15 586q0 32 21 51.5t53 19.5q27 0 47.5 -19.5t20.5 -51.5q0 -34 -20.5 -54.5t-47.5 -20.5q-32 0 -53 20t-21 55zM180 586q0 32 21.5 51.5t52.5 19.5q28 0 48 -19.5t20 -51.5q0 -34 -20 -54.5t-48 -20.5q-31 0 -52.5 20t-21.5 55zM243 412v-374q0 -16 -11 -27t-27 -11
h-74q-16 0 -27 11t-11 27v374q0 16 11 27t27 11h74q16 0 27 -11t11 -27z" />
    <glyph glyph-name="afii10105" unicode="&#x458;" horiz-adv-x="284"
d="M79 -19v431q0 16 11 27t27 11h74q16 0 27 -11t11 -27v-445q0 -175 -141 -175q-49 0 -93 16q-25 8 -25 35q0 3 2 13l17 53q8 25 32 25q8 0 12 -1q10 -2 18 -2q28 0 28 50zM67 605q0 39 26.5 62t64.5 23q34 0 59.5 -23.5t25.5 -61.5q0 -42 -25.5 -66.5t-59.5 -24.5
q-39 0 -65 24t-26 67z" />
    <glyph glyph-name="afii10106" unicode="&#x459;" horiz-adv-x="743"
d="M488 130h14q59 0 59 47q0 48 -58 48h-15v-95zM112 310l5 102q1 16 12.5 27t27.5 11h293q16 0 27 -11t11 -27v-67h28q109 0 157 -46.5t48 -115.5q0 -76 -53 -129.5t-163 -53.5h-129q-16 0 -27 11t-11 27v262h-79l-2 -22q-14 -158 -58.5 -223t-133.5 -65q-18 0 -30.5 11
t-12.5 27v52q0 28 5.5 39t27.5 21q50 23 57 170z" />
    <glyph glyph-name="afii10107" unicode="&#x45a;" horiz-adv-x="753"
d="M500 345h28q109 0 157 -46.5t48 -115.5q0 -76 -53 -129.5t-163 -53.5h-129q-16 0 -27 11t-11 27v117h-145v-117q0 -16 -11 -27t-27 -11h-74q-16 0 -27 11t-11 27v374q0 16 11 27t27 11h74q16 0 27 -11t11 -27v-117h145v117q0 16 11 27t27 11h74q16 0 27 -11t11 -27v-67z
M500 130h14q59 0 59 47q0 48 -58 48h-15v-95z" />
    <glyph glyph-name="afii10108" unicode="&#x45b;" horiz-adv-x="584"
d="M227 0h-74q-16 0 -27 11t-11 27v367h-67q-16 0 -27 11t-11 27v44q0 16 11 27t27 11h67v137q0 16 11 27t27 11h74q16 0 27 -11t11 -27v-137h98q16 0 27 -11t11 -27v-44q0 -16 -11 -27t-27 -11h-98v-86q44 39 111 39q84 0 133.5 -47t49.5 -147v-126q0 -16 -11 -27t-27 -11
h-74q-16 0 -27 11t-11 27v107q0 33 -20 53t-52 20q-43 0 -72 -29v-151q0 -16 -11 -27t-27 -11z" />
    <glyph glyph-name="afii10109" unicode="&#x45c;" horiz-adv-x="530"
d="M205 210v-172q0 -16 -11 -27t-27 -11h-74q-16 0 -27 11t-11 27v374q0 16 11 27t27 11h74q16 0 27 -11t11 -27v-170l107 182q15 26 45 26h85q17 0 28 -11.5t11 -27.5q0 -12 -7 -22l-105 -153l125 -176q7 -10 7 -22q0 -15 -10.5 -26.5t-26.5 -11.5h-91q-30 0 -47 25z
M209 611l49 82q14 23 40 23q18 0 29 -10l33 -25q19 -15 19 -39q0 -18 -12 -32l-61 -68q-17 -19 -43 -19q-19 0 -36 12q-26 18 -26 48q0 14 8 28z" />
    <glyph glyph-name="afii10110" unicode="&#x45e;" horiz-adv-x="515"
d="M256 244q6 -16 17 -62q4 40 11 63l51 176q9 29 38 29h71q20 0 34 -14.5t14 -33.5q0 -8 -3 -17l-150 -385q-48 -118 -86.5 -159t-95.5 -41q-48 0 -95 30q-16 11 -16 31q0 11 6 22l22 39q8 13 14 18.5t19 5.5q5 0 19 -4t24 -4q23 0 39 38l10 24l-172 386q-4 8 -4 19
q0 18 13 31.5t32 13.5h81q29 0 41 -29zM437 641q0 -63 -42 -102t-130 -39t-130 39t-42 102q0 30 16 49.5t49 19.5t49 -19.5t16 -49.5q0 -29 42 -29t42 29q0 30 16 49.5t49 19.5t49 -19.5t16 -49.5z" />
    <glyph glyph-name="afii10193" unicode="&#x45f;" horiz-adv-x="540"
d="M302 -110h-64q-16 0 -27 11t-11 27v72h-107q-16 0 -27 11t-11 27v374q0 16 11 27t27 11h74q16 0 27 -11t11 -27v-272h130v272q0 16 11 27t27 11h74q16 0 27 -11t11 -27v-374q0 -16 -11 -27t-27 -11h-107v-72q0 -16 -11 -27t-27 -11z" />
    <glyph glyph-name="afii10146" unicode="&#x462;" horiz-adv-x="657"
d="M130 640v14q0 19 13.5 32.5t32.5 13.5h68q19 0 32.5 -13.5t13.5 -32.5v-14h91q19 0 32.5 -13.5t13.5 -32.5v-58q0 -19 -13.5 -32.5t-32.5 -13.5h-91v-49q33 4 62 4q135 0 200 -54t65 -162q0 -113 -76.5 -172t-222.5 -59q-60 0 -142 2q-19 0 -32.5 14t-13.5 33v443h-64
q-19 0 -32.5 13.5t-13.5 32.5v58q0 19 13.5 32.5t32.5 13.5h64zM290 290v-138q36 -4 47 -4q57 0 83.5 14t26.5 63q0 32 -16.5 48t-36.5 19t-56 3q-15 0 -48 -5z" />
    <glyph glyph-name="afii10194" unicode="&#x463;" horiz-adv-x="527"
d="M291 0h-138q-16 0 -27 11t-11 27v292h-67q-16 0 -27 11t-11 27v44q0 16 11 27t27 11h67v212q0 16 11 27t27 11h74q16 0 27 -11t11 -27v-212h86q16 0 27 -11t11 -27v-44q0 -16 -11 -27t-27 -11h-86v-25h37q205 0 205 -142q0 -73 -52 -118t-164 -45zM265 120h23q31 0 45 8
t14 29t-13.5 29.5t-44.5 8.5h-24v-75z" />
    <glyph glyph-name="afii10147" unicode="&#x472;" horiz-adv-x="824"
d="M40 350q0 155 103.5 258.5t268.5 103.5q163 0 267.5 -99t104.5 -263q0 -158 -105.5 -260t-266.5 -102q-163 0 -267.5 99t-104.5 263zM222 277q21 -62 73 -100.5t117 -38.5q75 0 124.5 38t67.5 102q-53 -24 -91 -24q-42 0 -101.5 33t-91.5 33q-46 0 -98 -43zM603 424
q-20 63 -72 100.5t-119 37.5t-117 -34.5t-72 -95.5q54 28 97 28q42 0 104 -33t100 -33q40 0 79 30z" />
    <glyph glyph-name="afii10195" unicode="&#x473;" horiz-adv-x="580"
d="M30 225q0 104 70 170.5t190 66.5t190 -66.5t70 -170.5t-70 -170.5t-190 -66.5t-190 66.5t-70 170.5zM393 270q-12 37 -40.5 54.5t-62.5 17.5q-77 0 -102 -66q28 19 50 19q31 0 67 -20.5t48 -20.5q26 0 40 16zM188 175q12 -34 40.5 -50.5t61.5 -16.5q80 0 102 67
q-27 -21 -58 -21q-30 0 -59 20.5t-43 20.5q-24 0 -44 -20z" />
    <glyph glyph-name="afii10148" unicode="&#x474;" horiz-adv-x="665"
d="M688 652l-10 -46q-4 -18 -14 -26t-33 -11q-6 -1 -11.5 -3.5t-10.5 -7.5t-8 -9t-7 -12.5l-6 -13t-6 -14.5t-5 -14l-173 -462q-12 -33 -47 -33h-53q-35 0 -48 33l-243 606q-3 7 -3 16q0 18 13 31.5t31 13.5h71q35 0 48 -33l163 -429l112 330q25 72 59 107.5t98 35.5
q27 0 52 -6q33 -7 33 -39q0 -4 -2 -14z" />
    <glyph glyph-name="afii10196" unicode="&#x475;" horiz-adv-x="500"
d="M524 406l-15 -60q-4 -19 -13.5 -26t-29.5 -8q-15 0 -25.5 -10.5t-15 -19t-15.5 -34.5l-92 -220q-12 -28 -42 -28h-53q-30 0 -43 28l-162 358q-4 8 -4 19q0 18 13 31.5t32 13.5h78q30 0 42 -28l46 -114q20 -48 30 -104q8 47 29 105l11 30q22 60 52 90t90 30q25 0 60 -8
q12 -2 20 -12.5t8 -23.5q0 -6 -1 -9z" />
    <glyph glyph-name="afii10050" unicode="&#x490;" horiz-adv-x="510"
d="M250 550v-504q0 -19 -13.5 -32.5t-32.5 -13.5h-68q-19 0 -32.5 13.5t-13.5 32.5v608q0 19 13.5 32.5t32.5 13.5h204v64q0 19 13.5 32.5t32.5 13.5h58q19 0 32.5 -13.5t13.5 -32.5v-168q0 -19 -13.5 -32.5t-32.5 -13.5h-194z" />
    <glyph glyph-name="afii10098" unicode="&#x491;" horiz-adv-x="385"
d="M205 310v-272q0 -16 -11 -27t-27 -11h-74q-16 0 -27 11t-11 27v374q0 16 11 27t27 11h142v52q0 16 11 27t27 11h64q16 0 27 -11t11 -27v-154q0 -16 -11 -27t-27 -11h-132z" />
    <glyph glyph-name="uni1E9E" unicode="&#x1e9e;" horiz-adv-x="704"
d="M298 99l27 40q13 20 35 20q15 0 34 -10q19 -11 36 -11q25 0 39.5 15t14.5 42q0 33 -36.5 62.5t-105.5 66.5q-29 15 -29 49q0 19 11 33l90 119q-8 16 -30.5 26.5t-47.5 10.5q-86 0 -86 -100v-416q0 -19 -13.5 -32.5t-32.5 -13.5h-68q-19 0 -32.5 13.5t-13.5 32.5v403
q0 136 67 199.5t186 63.5q60 0 124 -29.5t112 -83.5q12 -13 12 -36q0 -20 -11 -34l-106 -126q75 -33 127.5 -94t52.5 -139q0 -81 -59 -131.5t-129 -50.5q-83 0 -156 50q-20 14 -20 37q0 11 8 24z" />
    <glyph glyph-name="uni2010" unicode="&#x2010;" horiz-adv-x="364"
d="M314 297v-44q0 -19 -14 -33.5t-34 -14.5h-168q-20 0 -34 14.5t-14 33.5v44q0 19 14 33.5t34 14.5h168q20 0 34 -14.5t14 -33.5z" />
    <glyph glyph-name="uni2011" unicode="&#x2011;" horiz-adv-x="364"
d="M314 297v-44q0 -19 -14 -33.5t-34 -14.5h-168q-20 0 -34 14.5t-14 33.5v44q0 19 14 33.5t34 14.5h168q20 0 34 -14.5t14 -33.5z" />
    <glyph glyph-name="figuredash" unicode="&#x2012;" horiz-adv-x="604"
d="M524 371v-34q0 -19 -14 -33.5t-34 -14.5h-348q-20 0 -34 14.5t-14 33.5v34q0 19 14 33.5t34 14.5h348q20 0 34 -14.5t14 -33.5z" />
    <glyph glyph-name="endash" unicode="&#x2013;" horiz-adv-x="604"
d="M524 287v-34q0 -19 -14 -33.5t-34 -14.5h-348q-20 0 -34 14.5t-14 33.5v34q0 19 14 33.5t34 14.5h348q20 0 34 -14.5t14 -33.5z" />
    <glyph glyph-name="emdash" unicode="&#x2014;" horiz-adv-x="824"
d="M744 287v-34q0 -19 -14 -33.5t-34 -14.5h-568q-20 0 -34 14.5t-14 33.5v34q0 19 14 33.5t34 14.5h568q20 0 34 -14.5t14 -33.5z" />
    <glyph glyph-name="afii00208" unicode="&#x2015;" horiz-adv-x="824"
d="M744 287v-34q0 -19 -14 -33.5t-34 -14.5h-568q-20 0 -34 14.5t-14 33.5v34q0 19 14 33.5t34 14.5h568q20 0 34 -14.5t14 -33.5z" />
    <glyph glyph-name="quoteleft" unicode="&#x2018;" horiz-adv-x="237"
d="M146 762q19 0 32 -10q19 -15 19 -36q0 -18 -13 -42q-14 -30 -14 -60q0 -15 5 -33q4 -11 4 -21q0 -20 -24 -34l-52 -30q-11 -7 -22 -7q-27 0 -38 28q-13 30 -13 64q0 98 74 166q17 15 42 15z" />
    <glyph glyph-name="quoteright" unicode="&#x2019;" horiz-adv-x="237"
d="M94 485q-18 0 -34 12q-19 15 -19 38q0 15 11 37q14 30 14 60q0 15 -5 33q-4 11 -4 21q0 20 24 34l52 30q11 6 21 6q13 0 24 -8.5t15 -18.5q13 -30 13 -64q0 -98 -74 -166q-16 -14 -38 -14z" />
    <glyph glyph-name="quotesinglbase" unicode="&#x201a;" horiz-adv-x="239"
d="M97 -180q-17 0 -34 12q-19 15 -19 38q0 15 11 37q14 30 14 60q0 15 -5 33q-4 11 -4 21q0 20 24 34l52 30q10 6 21 6q13 0 24 -8.5t15 -18.5q13 -30 13 -64q0 -98 -74 -166q-16 -14 -38 -14z" />
    <glyph glyph-name="quotedblleft" unicode="&#x201c;" horiz-adv-x="417"
d="M326 762q19 0 32 -10q19 -15 19 -36q0 -18 -13 -42q-14 -30 -14 -60q0 -15 5 -33q4 -11 4 -21q0 -20 -24 -34l-52 -30q-11 -7 -22 -7q-27 0 -38 28q-13 30 -13 64q0 98 74 166q17 15 42 15zM146 762q19 0 32 -10q19 -15 19 -36q0 -18 -13 -42q-14 -30 -14 -60
q0 -15 5 -33q4 -11 4 -21q0 -20 -24 -34l-52 -30q-11 -7 -22 -7q-27 0 -38 28q-13 30 -13 64q0 98 74 166q17 15 42 15z" />
    <glyph glyph-name="quotedblright" unicode="&#x201d;" horiz-adv-x="417"
d="M275 485q-17 0 -34 12q-19 15 -19 38q0 15 11 37q14 30 14 60q0 15 -5 33q-4 11 -4 21q0 20 24 34l52 30q10 6 21 6q13 0 24 -8.5t15 -18.5q13 -30 13 -64q0 -98 -74 -166q-16 -14 -38 -14zM93 485q-17 0 -34 12q-19 15 -19 38q0 15 11 37q14 30 14 60q0 15 -5 33
q-4 11 -4 21q0 20 24 34l52 30q10 6 21 6q13 0 24 -8.5t15 -18.5q13 -30 13 -64q0 -98 -74 -166q-16 -14 -38 -14z" />
    <glyph glyph-name="quotedblbase" unicode="&#x201e;" horiz-adv-x="423"
d="M281 -180q-17 0 -34 12q-19 15 -19 38q0 15 11 37q14 30 14 60q0 15 -5 33q-4 11 -4 21q0 20 24 34l52 30q10 6 21 6q13 0 24 -8.5t15 -18.5q13 -30 13 -64q0 -98 -74 -166q-16 -14 -38 -14zM97 -180q-17 0 -34 12q-19 15 -19 38q0 15 11 37q14 30 14 60q0 15 -5 33
q-4 11 -4 21q0 20 24 34l52 30q10 6 21 6q13 0 24 -8.5t15 -18.5q13 -30 13 -64q0 -98 -74 -166q-16 -14 -38 -14z" />
    <glyph glyph-name="dagger" unicode="&#x2020;" horiz-adv-x="524"
d="M284 -100h-44q-20 0 -34 14t-14 34v432h-104q-20 0 -34 14t-14 34v34q0 20 14 34t34 14h104v142q0 20 14 34t34 14h44q20 0 34 -14t14 -34v-142h104q20 0 34 -14t14 -34v-34q0 -20 -14 -34t-34 -14h-104v-432q0 -20 -14 -34t-34 -14z" />
    <glyph glyph-name="daggerdbl" unicode="&#x2021;" horiz-adv-x="524"
d="M88 250h104v130h-104q-20 0 -34 14t-14 34v34q0 20 14 34t34 14h104v142q0 20 14 34t34 14h44q20 0 34 -14t14 -34v-142h104q20 0 34 -14t14 -34v-34q0 -20 -14 -34t-34 -14h-104v-130h104q20 0 34 -14t14 -34v-34q0 -20 -14 -34t-34 -14h-104v-172q0 -20 -14 -34
t-34 -14h-44q-20 0 -34 14t-14 34v172h-104q-20 0 -34 14t-14 34v34q0 20 14 34t34 14z" />
    <glyph glyph-name="bullet" unicode="&#x2022;" horiz-adv-x="340"
d="M169 116q-61 0 -105 44.5t-44 105.5t44 105.5t105 44.5q62 0 106.5 -44.5t44.5 -105.5t-45 -105.5t-106 -44.5z" />
    <glyph glyph-name="ellipsis" unicode="&#x2026;" horiz-adv-x="876"
d="M640 96q0 36 28 65t74 29q40 0 67 -29t27 -65q0 -41 -26.5 -71.5t-67.5 -30.5q-46 0 -74 30t-28 72zM340 96q0 36 28 65t74 29q40 0 67 -29t27 -65q0 -41 -26.5 -71.5t-67.5 -30.5q-46 0 -74 30t-28 72zM40 96q0 36 28 65t74 29q40 0 67 -29t27 -65q0 -41 -26.5 -71.5
t-67.5 -30.5q-46 0 -74 30t-28 72z" />
    <glyph glyph-name="perthousand" unicode="&#x2030;" horiz-adv-x="1391"
d="M1150 -12q-93 0 -152 51.5t-59 136.5t59 135.5t152 50.5t152 -50.5t59 -135.5t-59 -136.5t-152 -51.5zM1150 242q-32 0 -51.5 -18t-19.5 -48q0 -32 20 -50t51 -18q33 0 52 18t19 50q0 30 -19.5 48t-51.5 18zM732 611l-437 -585q-14 -19 -39 -19q-17 0 -33 11
q-23 15 -23 41q0 14 9 26l439 589q14 18 37 18q19 0 34 -11q23 -18 23 -42q0 -15 -10 -28zM241 338q-93 0 -152 51.5t-59 136.5t59 135.5t152 50.5t152 -50.5t59 -135.5t-59 -136.5t-152 -51.5zM241 592q-32 0 -51.5 -18t-19.5 -48q0 -32 20 -50t51 -18q33 0 52 18t19 50
q0 30 -19.5 48t-51.5 18zM704 -12q-93 0 -152 51.5t-59 136.5t59 135.5t152 50.5t152 -50.5t59 -135.5t-59 -136.5t-152 -51.5zM704 242q-32 0 -51.5 -18t-19.5 -48q0 -32 20 -50t51 -18q33 0 52 18t19 50q0 30 -19.5 48t-51.5 18z" />
    <glyph glyph-name="guilsinglleft" unicode="&#x2039;" horiz-adv-x="352"
d="M199 250l98 -115q11 -14 11 -31q0 -22 -17 -37l-28 -23q-12 -11 -31 -11q-24 0 -37 17l-138 163q-13 16 -13 37q0 22 13 36l143 165q13 16 35 16q19 0 32 -12l25 -23q16 -15 16 -37q0 -19 -11 -31z" />
    <glyph glyph-name="guilsinglright" unicode="&#x203a;" horiz-adv-x="352"
d="M60 432l25 23q13 12 32 12q22 0 35 -16l143 -165q14 -16 14 -37t-14 -38l-138 -161q-13 -17 -37 -17q-19 0 -31 11l-28 23q-17 15 -17 37q0 17 11 31l98 115l-98 114q-12 14 -12 31q0 22 17 37z" />
    <glyph glyph-name="fraction" unicode="&#x2044;" horiz-adv-x="221"
d="M372 611l-437 -585q-14 -19 -39 -19q-17 0 -33 11q-23 15 -23 41q0 14 9 26l439 589q14 18 37 18q19 0 34 -11q23 -18 23 -42q0 -15 -10 -28z" />
    <glyph glyph-name="uni2070" unicode="&#x2070;" horiz-adv-x="412"
d="M30 525q0 78 46 128.5t130 50.5q83 0 129.5 -51.5t46.5 -127.5q0 -77 -46 -128t-129 -51q-85 0 -131 49.5t-46 129.5zM170 525q0 -69 37 -69q19 0 27 14t8 55q0 42 -8.5 55.5t-27.5 13.5t-27.5 -14.5t-8.5 -54.5z" />
    <glyph glyph-name="uni2074" unicode="&#x2074;" horiz-adv-x="391"
d="M321 411v-16q0 -19 -13 -32t-32 -13h-30q-19 0 -32 13t-13 32v16h-146q-19 0 -32 11.5t-13 31.5q0 9 1 16t7 18l8.5 15.5t14.5 24.5l89 142q23 36 55 36q23 0 35.5 -14t12.5 -34q0 -14 -8 -27l-75 -120h51v19q0 19 13 32t32 13h30q19 0 32 -13t13 -32v-19q21 0 35 -13
t14 -32v-10q0 -19 -14 -32t-35 -13z" />
    <glyph glyph-name="uni2075" unicode="&#x2075;" horiz-adv-x="349"
d="M109 448q15 -5 30 -5q27 0 36.5 5.5t9.5 18.5q0 24 -60 24q-17 0 -26 -1h-7q-39 0 -39 39v9l10 117q1 19 15.5 32t33.5 13h153q19 0 32 -13t13 -32v-10q0 -19 -13 -32t-32 -13h-108l-3 -27q16 8 47 8q57 0 90 -28.5t33 -79.5q0 -62 -44 -96t-118 -34q-79 0 -115 24
q-22 14 -22 40q0 14 7 25q16 24 39 24q16 0 38 -8z" />
    <glyph glyph-name="uni2076" unicode="&#x2076;" horiz-adv-x="410"
d="M165 551q40 20 87 20q60 0 96.5 -29t36.5 -77q0 -55 -48.5 -88.5t-124.5 -33.5q-90 0 -138.5 38.5t-48.5 105.5q0 82 65 142t177 75q4 1 12 1q45 0 49 -39v-7q0 -37 -44 -46q-77 -14 -119 -62zM165 468q4 -25 48 -25q32 0 32 19t-33 19q-24 0 -47 -13z" />
    <glyph glyph-name="uni2077" unicode="&#x2077;" horiz-adv-x="351"
d="M151 350h-32q-18 0 -30 12.5t-12 29.5q0 10 6 21l101 177h-126q-20 0 -34 14t-14 34v14q0 20 14 34t34 14h235q22 0 35 -14t13 -34q0 -18 -21 -57l-114 -213q-17 -32 -55 -32z" />
    <glyph glyph-name="uni2078" unicode="&#x2078;" horiz-adv-x="430"
d="M216 575q34 0 34 16t-36 16q-34 0 -34 -17q0 -15 36 -15zM216 485q-46 0 -46 -21t45 -21t45 21t-44 21zM215 707q73 0 119 -26t46 -67q0 -60 -56 -83q66 -20 66 -80q0 -52 -46 -80t-129 -28q-81 0 -128 26.5t-47 71.5q0 62 57 89q-47 26 -47 84q0 41 46 67t119 26z" />
    <glyph glyph-name="uni2079" unicode="&#x2079;" horiz-adv-x="410"
d="M245 499q-33 -30 -87 -30q-58 0 -95.5 32.5t-37.5 77.5q0 59 48.5 93.5t124.5 34.5q91 0 139 -41.5t48 -119.5q0 -90 -57.5 -140.5t-182.5 -61.5h-6q-18 0 -31.5 12t-15.5 29q0 1 -0.5 4t-0.5 4q0 39 44 46q102 16 110 60zM245 572q-4 35 -48 35q-32 0 -32 -19
q0 -10 9 -19.5t24 -9.5q24 0 47 13z" />
    <glyph glyph-name="uni207A" unicode="&#x207a;" horiz-adv-x="360"
d="M229 442q0 -20 -14.5 -34t-35.5 -14t-35.5 14t-14.5 34v38h-41q-20 0 -34 14.5t-14 35.5t14 35.5t34 14.5h41v37q0 20 14.5 34t35.5 14t35.5 -14t14.5 -34v-37h43q20 0 34 -14.5t14 -35.5t-14 -35.5t-34 -14.5h-43v-38z" />
    <glyph glyph-name="uni207B" unicode="&#x207b;" horiz-adv-x="360"
d="M88 580h184q20 0 34 -14.5t14 -35.5t-14 -35.5t-34 -14.5h-184q-20 0 -34 14.5t-14 35.5t14 35.5t34 14.5z" />
    <glyph glyph-name="uni207C" unicode="&#x207c;" horiz-adv-x="360"
d="M88 500h184q20 0 34 -14.5t14 -35.5t-14 -35.5t-34 -14.5h-184q-20 0 -34 14.5t-14 35.5t14 35.5t34 14.5zM88 660h184q20 0 34 -14.5t14 -35.5t-14 -35.5t-34 -14.5h-184q-20 0 -34 14.5t-14 35.5t14 35.5t34 14.5z" />
    <glyph glyph-name="uni207D" unicode="&#x207d;" horiz-adv-x="257"
d="M202 634q-42 -45 -42 -111t42 -111q25 -27 25 -51q0 -14 -11 -28q-15 -18 -38 -18q-21 0 -36 12q-112 81 -112 196t112 196q15 12 36 12q23 0 38 -18q11 -14 11 -28q0 -24 -25 -51z" />
    <glyph glyph-name="uni207E" unicode="&#x207e;" horiz-adv-x="251"
d="M52 412q42 45 42 111t-42 111q-25 27 -25 51q0 14 11 28q15 18 38 18q21 0 36 -12q112 -81 112 -196t-112 -196q-15 -12 -36 -12q-23 0 -38 18q-11 14 -11 28q0 24 25 51z" />
    <glyph glyph-name="uni2080" unicode="&#x2080;" horiz-adv-x="412"
d="M30 175q0 78 46 128.5t130 50.5q83 0 129.5 -51.5t46.5 -127.5q0 -77 -46 -128t-129 -51q-85 0 -131 49.5t-46 129.5zM170 175q0 -69 37 -69q19 0 27 14t8 55q0 42 -8.5 55.5t-27.5 13.5t-27.5 -14.5t-8.5 -54.5z" />
    <glyph glyph-name="uni2081" unicode="&#x2081;" horiz-adv-x="283"
d="M93 48v154q-12 -6 -23 -6q-24 0 -41 23q-9 15 -9 31q0 26 21 40l57 40q29 20 61 20h11q23 0 38 -14t15 -34v-254q0 -20 -14.5 -34t-33.5 -14h-34q-19 0 -33.5 14t-14.5 34z" />
    </font>
</defs>
</svg>
